<svg width="23" height="22" viewBox="0 0 23 22" fill="none" xmlns="http://www.w3.org/2000/svg">
<path fill-rule="evenodd" clip-rule="evenodd" d="M6.59275 1.67824C3.69363 1.67824 1.8205 3.59249 1.8205 6.54566V15.4442C1.8205 16.2729 1.98025 17.0128 2.25363 17.6531C2.26543 17.6395 2.52303 17.3372 2.85902 16.9429C3.51543 16.1726 4.47105 15.0512 4.47775 15.0455C5.25625 14.1897 6.71762 12.9135 8.63575 13.6859C9.05607 13.8537 9.42968 14.0836 9.77361 14.2953C9.8071 14.3159 9.84031 14.3363 9.87325 14.3565C10.5179 14.7714 10.897 14.9664 11.2907 14.9339C11.4539 14.9122 11.6069 14.8657 11.752 14.779C12.2995 14.454 13.7188 12.5174 14.1438 11.9375C14.2061 11.8524 14.2471 11.7966 14.2607 11.7792C15.487 10.2409 17.377 9.82924 18.952 10.7392C19.1635 10.8606 20.6789 11.88 21.1806 12.2895V6.54566C21.1806 3.59249 19.3075 1.67824 16.3982 1.67824H6.59275ZM16.3983 0.166992C20.1974 0.166992 22.75 2.72583 22.75 6.54566V15.4442C22.75 15.5402 22.7395 15.6303 22.7291 15.7204C22.7217 15.7836 22.7143 15.8469 22.7106 15.9122C22.7082 15.9516 22.707 15.9911 22.7059 16.0305C22.7043 16.0832 22.7027 16.1358 22.6982 16.1884C22.696 16.209 22.6918 16.2288 22.6876 16.2485C22.6833 16.2683 22.6791 16.2881 22.6769 16.3087C22.6397 16.6488 22.5824 16.9738 22.5025 17.2891C22.4836 17.3678 22.4618 17.4438 22.4398 17.5204L22.435 17.5372C22.345 17.8427 22.2393 18.1341 22.1121 18.4125C22.0898 18.4593 22.0664 18.5049 22.0429 18.5506C22.0272 18.581 22.0115 18.6114 21.9963 18.6422C21.859 18.9076 21.7105 19.1622 21.5384 19.3983C21.5065 19.442 21.4726 19.483 21.4387 19.5241C21.4163 19.5512 21.3938 19.5783 21.3719 19.6063C21.193 19.8295 21.0062 20.0429 20.7947 20.2368C20.7525 20.2755 20.7069 20.3109 20.6612 20.3463C20.6327 20.3684 20.6042 20.3905 20.5765 20.4134C20.3594 20.5932 20.1378 20.7655 19.8936 20.9128C19.8403 20.9451 19.7837 20.9721 19.7273 20.999C19.6909 21.0165 19.6545 21.0339 19.6191 21.0526C19.3705 21.1847 19.1196 21.3137 18.8463 21.4133C18.7805 21.4374 18.7105 21.4548 18.6403 21.4722C18.5904 21.4846 18.5405 21.4971 18.4919 21.5119C18.4675 21.5192 18.4432 21.5265 18.4189 21.5337C18.1747 21.6069 17.9313 21.6798 17.6684 21.7232C17.516 21.7489 17.3544 21.7587 17.1926 21.7686C17.1226 21.7729 17.0525 21.7772 16.9832 21.7827C16.9087 21.7881 16.8357 21.7968 16.7626 21.8054C16.6436 21.8195 16.5244 21.8337 16.3983 21.8337H6.59275C6.16975 21.8337 5.76588 21.7925 5.3755 21.7307C5.36088 21.7286 5.34737 21.7264 5.33388 21.7242C3.81175 21.4718 2.54838 20.7644 1.663 19.6973C1.65685 19.6973 1.65444 19.6933 1.65122 19.688C1.64914 19.6846 1.64673 19.6806 1.64275 19.6767C0.752875 18.5977 0.25 17.1472 0.25 15.4442V6.54566C0.25 2.72583 2.80487 0.166992 6.59275 0.166992H16.3983ZM10.3757 7.22443C10.3757 8.69229 9.10024 9.91656 7.56863 9.91656C6.22233 9.91656 5.07444 8.96935 4.81717 7.74299C4.77466 7.55899 4.75068 7.36975 4.75068 7.17425C4.75068 5.69593 5.99777 4.49989 7.53919 4.49989C8.32408 4.49989 9.03483 4.81772 9.54392 5.32478C10.0552 5.81407 10.3757 6.48841 10.3757 7.22443Z" fill="#666668"/>
</svg>
