<svg width="43" height="43" viewBox="0 0 43 43" fill="none" xmlns="http://www.w3.org/2000/svg">
<circle cx="21.5" cy="21.5" r="21.5" fill="#3A76EC"/>
<path fill-rule="evenodd" clip-rule="evenodd" d="M11.9903 14.8725C12.3067 14.3488 14.0495 12.4438 15.2932 12.5013C15.665 12.5321 15.9936 12.757 16.2607 13.0178C16.8738 13.6166 18.629 15.881 18.7286 16.3575C18.971 17.5262 17.5783 18.1999 18.0045 19.3778C19.0911 22.0366 20.9634 23.9088 23.6233 24.9943C24.8003 25.4205 25.474 24.0279 26.6428 24.2713C27.1183 24.3709 29.3839 26.126 29.9826 26.7391C30.2425 27.0051 30.4684 27.3347 30.4992 27.7065C30.5454 29.0159 28.5222 30.7833 28.1278 31.0092C27.1974 31.6747 25.9834 31.6634 24.5035 30.9753C20.3739 29.2572 13.7743 22.7822 12.0242 18.4967C11.3546 17.0251 11.3084 15.803 11.9903 14.8725Z" stroke="white" stroke-width="1.5" stroke-linecap="round" stroke-linejoin="round"/>
</svg>
