<svg width="18" height="20" viewBox="0 0 18 20" fill="none" xmlns="http://www.w3.org/2000/svg">
<path opacity="0.4" fill-rule="evenodd" clip-rule="evenodd" d="M5.947 3.08158H12.0897V1.65137H5.947V3.08158ZM4.54965 1.71011V1.71723C4.07015 1.76084 3.59578 1.85607 3.13429 1.99935V1.99401C3.12057 1.99979 3.10765 2.00423 3.09526 2.00849C3.07898 2.01408 3.06361 2.01936 3.04851 2.02694C3.01163 2.03584 2.9756 2.04919 2.94129 2.0661C2.84007 2.09903 2.73885 2.13819 2.64363 2.17824C2.61833 2.18803 2.59302 2.19938 2.56772 2.21073L2.56772 2.21073L2.56771 2.21073C2.54241 2.22208 2.51711 2.23342 2.4918 2.24321C2.45707 2.25967 2.42083 2.27769 2.38459 2.29571L2.38458 2.29572L2.38456 2.29573C2.34832 2.31375 2.31209 2.33177 2.27735 2.34823L2.10579 2.44702C2.07407 2.4632 2.04471 2.48217 2.01475 2.50153C1.99691 2.51306 1.97886 2.52473 1.95997 2.53602C1.70177 2.70245 1.46245 2.89736 1.24628 3.11896L1.23342 3.13231C1.20502 3.16541 1.17675 3.19752 1.14886 3.2292C1.10176 3.2827 1.05575 3.33497 1.0121 3.38863L0.999237 3.40109C0.297561 4.3694 -0.0541357 5.56288 0.00676782 6.77238V7.15597H1.39211V6.76882C1.39211 5.08318 1.92909 4.03388 3.124 3.49632C3.58034 3.30319 4.06243 3.18393 4.55308 3.14032H4.56595V1.71634L4.54965 1.71011ZM16.998 3.38329L17.004 3.39575C17.7048 4.36495 18.0548 5.55932 17.993 6.76882V7.15597H16.6085V6.75903C16.6377 6.04526 16.4945 5.33505 16.1908 4.69336C15.8991 4.14424 15.4325 3.71793 14.8689 3.48653C14.4203 3.2934 13.9451 3.17325 13.4604 3.13053V1.71367C13.9399 1.75817 14.4143 1.85251 14.8767 1.99579V1.98867C14.9026 2.00046 14.9225 2.00747 14.9565 2.0195L14.9624 2.0216C14.9782 2.02719 14.993 2.03277 15.0075 2.03829C15.0278 2.04597 15.0477 2.05352 15.0697 2.06076C15.1645 2.09188 15.2532 2.12856 15.3445 2.16629L15.3605 2.1729C15.4026 2.18769 15.4422 2.20604 15.478 2.22257C15.4896 2.22792 15.5007 2.23308 15.5114 2.23787C15.5869 2.2708 15.6641 2.30996 15.7259 2.34289C15.7671 2.36426 15.8072 2.38714 15.8448 2.40859C15.8652 2.42019 15.8848 2.43137 15.9034 2.44168C15.9342 2.45865 15.9609 2.47681 15.9866 2.49428C16.0054 2.50703 16.0236 2.51941 16.0424 2.53068C16.3015 2.698 16.5434 2.8938 16.7621 3.11362L16.7698 3.12697C16.8504 3.20796 16.9268 3.2934 16.998 3.38329Z" fill="#137C4B"/>
<path d="M13.4996 0.716928V3.86846C13.4996 4.26555 13.1774 4.58717 12.7796 4.58717C12.3818 4.58717 12.0596 4.26555 12.0596 3.86846V0.724115C12.056 0.327029 12.3764 0.00271211 12.7742 1.69568e-05C13.172 -0.0026782 13.4969 0.316248 13.4996 0.713334V0.716928Z" fill="#137C4B"/>
<path d="M5.94 0.728344V3.87209C5.94 4.27089 5.61741 4.59425 5.21955 4.59425C4.82169 4.59425 4.5 4.27089 4.5 3.87209V0.728344C4.5 0.329538 4.82169 0.00708008 5.21955 0.00708008C5.61741 0.00708008 5.94 0.329538 5.94 0.728344Z" fill="#137C4B"/>
<path fill-rule="evenodd" clip-rule="evenodd" d="M0 14.9103V7.15601H18V14.9103C18 18.2917 16.1116 20.0001 12.3691 20.0001H5.62232C1.88841 20.0001 0 18.2917 0 14.9103ZM4.06009 11.4669C4.06009 11.936 4.42918 12.3167 4.88412 12.3167C5.34764 12.3167 5.71674 11.9272 5.70815 11.458C5.70815 10.9889 5.33906 10.6082 4.8927 10.6082H4.88412C4.42918 10.6082 4.06009 10.9977 4.06009 11.4669ZM8.17167 11.4669C8.17167 11.936 8.54936 12.3167 9.00429 12.3167C9.45923 12.3167 9.82833 11.936 9.82833 11.458C9.82833 10.9977 9.45923 10.6171 9.00429 10.6082H8.99571C8.54077 10.6171 8.17167 10.9977 8.17167 11.4669ZM13.1159 12.3167C12.6609 12.3167 12.2918 11.936 12.2918 11.4669C12.2918 10.9977 12.6524 10.6171 13.1159 10.6171C13.5708 10.6171 13.9399 10.9977 13.9399 11.4669C13.9399 11.936 13.5708 12.3167 13.1159 12.3167ZM13.1159 15.9459C12.6609 15.9459 12.2918 15.5653 12.2833 15.0961C12.2833 14.627 12.6524 14.2464 13.1073 14.2464H13.1159C13.5708 14.2464 13.9399 14.627 13.9399 15.0961C13.9399 15.5653 13.5708 15.9459 13.1159 15.9459ZM9.00429 15.9459C8.54936 15.9459 8.17167 15.5653 8.17167 15.0961C8.17167 14.627 8.54077 14.2464 8.99571 14.2375H9.00429C9.45923 14.2464 9.81974 14.627 9.82833 15.0873C9.82833 15.5653 9.45923 15.9459 9.00429 15.9459ZM4.88412 15.9459C4.42918 15.9459 4.06009 15.5653 4.06009 15.0961C4.0515 14.627 4.4206 14.2375 4.88412 14.2375C5.33906 14.2375 5.70815 14.6181 5.70815 15.0873C5.70815 15.5564 5.33906 15.9459 4.88412 15.9459Z" fill="#137C4B"/>
</svg>
