<svg width="85" height="85" viewBox="0 0 85 85" fill="none" xmlns="http://www.w3.org/2000/svg">
<path d="M72.5665 12.4337C55.9887 -4.14407 29.0133 -4.1457 12.4339 12.4337C-4.14546 29.0131 -4.14382 55.9869 12.4339 72.5662C29.0117 89.1456 55.9871 89.1456 72.5665 72.5662C89.1442 55.9869 89.1442 29.0114 72.5665 12.4337ZM59.2677 59.2674C57.9904 60.5446 55.92 60.5446 54.6428 59.2674L42.5002 47.1248L29.7803 59.8447C28.5031 61.1219 26.4327 61.1219 25.1555 59.8447C23.8782 58.5675 23.8782 56.4971 25.1555 55.2199L37.8754 42.5L25.7328 30.3573C24.4555 29.0801 24.4555 27.0081 25.7328 25.7325C27.01 24.4553 29.0804 24.4553 30.3576 25.7325L42.5002 37.8751L54.0639 26.3114C55.3411 25.0342 57.4115 25.0342 58.6887 26.3114C59.966 27.5887 59.966 29.659 58.6887 30.9363L47.125 42.5L59.2677 54.6426C60.5449 55.9198 60.5449 57.9902 59.2677 59.2674Z" fill="#C31331"/>
</svg>
