<svg width="25" height="24" viewBox="0 0 25 24" fill="none" xmlns="http://www.w3.org/2000/svg">
<path d="M6.87913 19.8857H16.9843C17.4493 19.8857 17.8264 19.5789 17.8264 19.2C17.8264 18.8215 17.449 18.5144 16.9843 18.5144L6.87913 18.5142C6.41421 18.5142 6.03711 18.8215 6.03711 19.1998C6.03711 19.5789 6.41451 19.8857 6.87913 19.8857V19.8857Z" fill="#9999B4"/>
<path d="M6.87913 16.457H16.9843C17.4493 16.457 17.8264 16.1502 17.8264 15.7713C17.8264 15.3928 17.449 15.0857 16.9843 15.0857L6.87913 15.0854C6.41421 15.0854 6.03711 15.3928 6.03711 15.7711C6.03711 16.1502 6.41451 16.457 6.87913 16.457V16.457Z" fill="#9999B4"/>
<path d="M6.87913 13.0288H16.9843C17.4493 13.0288 17.8264 12.7219 17.8264 12.3431C17.8264 11.9645 17.449 11.6575 16.9843 11.6575L6.87913 11.6572C6.41421 11.6572 6.03711 11.9645 6.03711 12.3429C6.03711 12.7219 6.41451 13.0288 6.87913 13.0288V13.0288Z" fill="#9999B4"/>
<path d="M7.7215 3.42855C7.7215 4.5631 6.58842 5.48581 5.19505 5.48581H3.19964L7.7215 2.21246V3.42855ZM24.1424 2.7429C24.1424 1.23428 22.6267 0 20.774 0L8.56352 0.000717471V0.00693555C8.36145 0.00693555 8.16144 0.0593108 8.00402 0.173147L0.425121 5.65895C0.241851 5.79121 0.14904 5.97942 0.14904 6.17147H0.142578V21.2571C0.142578 22.7657 1.65836 24 3.51105 24H20.7741C22.6268 24 24.1426 22.7657 24.1426 21.2571L24.1424 2.7429ZM1.8268 6.8571H5.19527C7.51699 6.8571 9.40577 5.31909 9.40577 3.42855V1.37203L20.7741 1.37132C21.7025 1.37132 22.4582 1.98643 22.4582 2.74261V21.2568C22.4582 22.0128 21.7025 22.6281 20.7741 22.6281L3.51107 22.6286C2.58213 22.6286 1.82702 22.0132 1.82702 21.2573L1.8268 6.8571Z" fill="#9999B4"/>
<path d="M16.1411 5.82833V8.22826H13.1938V5.82833H16.1411ZM16.5623 4.45703H12.773C12.0784 4.45703 11.5098 4.9198 11.5098 5.48566V8.57123C11.5098 9.13684 12.0781 9.59986 12.773 9.59986H16.5623C17.2569 9.59986 17.8255 9.13709 17.8255 8.57123V5.48566C17.8255 4.91981 17.2569 4.45703 16.5623 4.45703Z" fill="#9999B4"/>
</svg>
