<svg width="98" height="120" viewBox="0 0 98 120" fill="none" xmlns="http://www.w3.org/2000/svg">
<path opacity="0.1" d="M48.795 111.795C75.7437 111.795 97.59 89.9488 97.59 63.0001C97.59 36.0513 75.7437 14.2051 48.795 14.2051C21.8463 14.2051 0 36.0513 0 63.0001C0 89.9488 21.8463 111.795 48.795 111.795Z" fill="#3A76EC"/>
<g filter="url(#filter0_d_6216_36249)">
<path d="M76.7681 42.1807H20.8165C19.0199 42.1807 17.5635 43.6371 17.5635 45.4337V113.747C17.5635 115.543 19.0199 117 20.8165 117H76.7681C78.5646 117 80.0211 115.543 80.0211 113.747V45.4337C80.0211 43.6371 78.5646 42.1807 76.7681 42.1807Z" fill="white"/>
</g>
<path d="M42.2902 51.9395H25.3747C24.2967 51.9395 23.4229 52.8133 23.4229 53.8913C23.4229 54.9692 24.2967 55.8431 25.3747 55.8431H42.2902C43.3682 55.8431 44.242 54.9692 44.242 53.8913C44.242 52.8133 43.3682 51.9395 42.2902 51.9395Z" fill="#D0D5DD"/>
<path d="M54.001 60.3975H25.3747C24.2967 60.3975 23.4229 61.2713 23.4229 62.3493C23.4229 63.4272 24.2967 64.3011 25.3747 64.3011H54.001C55.079 64.3011 55.9528 63.4272 55.9528 62.3493C55.9528 61.2713 55.079 60.3975 54.001 60.3975Z" fill="#EAECF0"/>
<path d="M42.2902 69.5059H25.3747C24.2967 69.5059 23.4229 70.3797 23.4229 71.4577C23.4229 72.5356 24.2967 73.4095 25.3747 73.4095H42.2902C43.3682 73.4095 44.242 72.5356 44.242 71.4577C44.242 70.3797 43.3682 69.5059 42.2902 69.5059Z" fill="#D0D5DD"/>
<path d="M54.001 77.9639H25.3747C24.2967 77.9639 23.4229 78.8377 23.4229 79.9157C23.4229 80.9936 24.2967 81.8675 25.3747 81.8675H54.001C55.079 81.8675 55.9528 80.9936 55.9528 79.9157C55.9528 78.8377 55.079 77.9639 54.001 77.9639Z" fill="#EAECF0"/>
<path d="M42.2902 87.0723H25.3747C24.2967 87.0723 23.4229 87.9461 23.4229 89.0241C23.4229 90.102 24.2967 90.9759 25.3747 90.9759H42.2902C43.3682 90.9759 44.242 90.102 44.242 89.0241C44.242 87.9461 43.3682 87.0723 42.2902 87.0723Z" fill="#D0D5DD"/>
<path d="M54.001 95.5303H25.3747C24.2967 95.5303 23.4229 96.4041 23.4229 97.4821C23.4229 98.56 24.2967 99.4339 25.3747 99.4339H54.001C55.079 99.4339 55.9528 98.56 55.9528 97.4821C55.9528 96.4041 55.079 95.5303 54.001 95.5303Z" fill="#EAECF0"/>
<g filter="url(#filter1_d_6216_36249)">
<path d="M76.769 9H20.8175C19.0209 9 17.5645 10.4564 17.5645 12.253V31.771C17.5645 33.5676 19.0209 35.024 20.8175 35.024H76.769C78.5656 35.024 80.022 33.5676 80.022 31.771V12.253C80.022 10.4564 78.5656 9 76.769 9Z" fill="#3A76EC"/>
</g>
<path d="M42.2902 16.1567H25.3747C24.2967 16.1567 23.4229 17.0306 23.4229 18.1085C23.4229 19.1865 24.2967 20.0603 25.3747 20.0603H42.2902C43.3682 20.0603 44.242 19.1865 44.242 18.1085C44.242 17.0306 43.3682 16.1567 42.2902 16.1567Z" fill="#EAECF0"/>
<path d="M54.001 24.6147H25.3747C24.2967 24.6147 23.4229 25.4886 23.4229 26.5665C23.4229 27.6445 24.2967 28.5183 25.3747 28.5183H54.001C55.079 28.5183 55.9528 27.6445 55.9528 26.5665C55.9528 25.4886 55.079 24.6147 54.001 24.6147Z" fill="white"/>
<defs>
<filter id="filter0_d_6216_36249" x="11.5635" y="33.1807" width="74.458" height="86.8188" filterUnits="userSpaceOnUse" color-interpolation-filters="sRGB">
<feFlood flood-opacity="0" result="BackgroundImageFix"/>
<feColorMatrix in="SourceAlpha" type="matrix" values="0 0 0 0 0 0 0 0 0 0 0 0 0 0 0 0 0 0 127 0" result="hardAlpha"/>
<feOffset dy="-3"/>
<feGaussianBlur stdDeviation="3"/>
<feColorMatrix type="matrix" values="0 0 0 0 0.788235 0 0 0 0 0.803922 0 0 0 0 0.85098 0 0 0 0.349 0"/>
<feBlend mode="normal" in2="BackgroundImageFix" result="effect1_dropShadow_6216_36249"/>
<feBlend mode="normal" in="SourceGraphic" in2="effect1_dropShadow_6216_36249" result="shape"/>
</filter>
<filter id="filter1_d_6216_36249" x="11.5645" y="0" width="74.458" height="38.0239" filterUnits="userSpaceOnUse" color-interpolation-filters="sRGB">
<feFlood flood-opacity="0" result="BackgroundImageFix"/>
<feColorMatrix in="SourceAlpha" type="matrix" values="0 0 0 0 0 0 0 0 0 0 0 0 0 0 0 0 0 0 127 0" result="hardAlpha"/>
<feOffset dy="-3"/>
<feGaussianBlur stdDeviation="3"/>
<feColorMatrix type="matrix" values="0 0 0 0 0.788235 0 0 0 0 0.803922 0 0 0 0 0.85098 0 0 0 0.349 0"/>
<feBlend mode="normal" in2="BackgroundImageFix" result="effect1_dropShadow_6216_36249"/>
<feBlend mode="normal" in="SourceGraphic" in2="effect1_dropShadow_6216_36249" result="shape"/>
</filter>
</defs>
</svg>
