<svg width="129" height="101" viewBox="0 0 129 101" fill="none" xmlns="http://www.w3.org/2000/svg">
<rect x="35" y="72.8359" width="58.854" height="20.1641" rx="10.082" fill="white"/>
<rect opacity="0.3" x="55.4824" y="77.0099" width="32.9645" height="2.11377" rx="1.05688" fill="#1B3554"/>
<rect opacity="0.3" x="55.4824" y="80.8629" width="24.2781" height="2.11377" rx="1.05688" fill="#1B3554"/>
<rect opacity="0.15" x="55.4824" y="86.6425" width="9.42683" height="2.11377" rx="1.05688" fill="#1B3554"/>
<ellipse cx="45.5574" cy="80.3367" rx="5.35037" ry="4.93212" fill="#BAC2CB"/>
<path d="M44.6992 82.1667C44.801 82.2609 44.9341 82.3079 45.0674 82.3079C45.2007 82.3079 45.3338 82.2609 45.4356 82.1667L48.0395 79.7586C48.2429 79.5705 48.2429 79.2656 48.0395 79.0775C47.8362 78.8894 47.5065 78.8894 47.3031 79.0775L45.0674 81.145L43.8733 80.0408C43.6699 79.8527 43.3403 79.8527 43.1369 80.0408C42.9335 80.2289 42.9335 80.5338 43.1369 80.7218L44.6992 82.1667Z" fill="white"/>
<rect x="35" y="49.3975" width="58.854" height="20.1641" rx="10.082" fill="white"/>
<rect opacity="0.3" x="55.4824" y="53.5715" width="32.9645" height="2.11377" rx="1.05688" fill="#1B3554"/>
<rect opacity="0.3" x="55.4824" y="57.4246" width="24.2781" height="2.11377" rx="1.05688" fill="#1B3554"/>
<rect opacity="0.15" x="55.4824" y="63.2041" width="9.42683" height="2.11377" rx="1.05688" fill="#1B3554"/>
<ellipse cx="45.5574" cy="56.8982" rx="5.35037" ry="4.93212" fill="#BAC2CB"/>
<path d="M44.6992 58.7284C44.801 58.8226 44.9341 58.8695 45.0674 58.8695C45.2007 58.8695 45.3338 58.8226 45.4356 58.7284L48.0395 56.3202C48.2429 56.1321 48.2429 55.8272 48.0395 55.6392C47.8362 55.4511 47.5065 55.4511 47.3031 55.6392L45.0674 57.7066L43.8733 56.6024C43.6699 56.4144 43.3403 56.4144 43.1369 56.6024C42.9335 56.7905 42.9335 57.0954 43.1369 57.2835L44.6992 58.7284Z" fill="white"/>
<g filter="url(#filter0_d_6214_36107)">
<path fill-rule="evenodd" clip-rule="evenodd" d="M40.0341 16.0312L89.1671 22.4808C91.7556 22.8472 93.854 24.5201 93.854 26.2149V37.5358C93.854 39.2306 91.7556 40.9011 89.1671 41.2644L40.3813 46.0539C37.7928 46.3596 35 44.3503 35 41.1724V20.9077C35 17.7298 37.4456 15.7227 40.0341 16.0312Z" fill="white"/>
</g>
<path opacity="0.3" fill-rule="evenodd" clip-rule="evenodd" d="M56.6252 25.2734L87.3042 27.2462C87.9353 27.2888 88.4469 27.6877 88.4469 28.1371C88.4469 28.5865 87.9353 28.9284 87.3042 28.9009L56.6252 27.6277C55.9941 27.6028 55.4824 27.0501 55.4824 26.3932C55.4824 25.7362 55.9941 25.2348 56.6252 25.2734Z" fill="#1B3554"/>
<path opacity="0.3" fill-rule="evenodd" clip-rule="evenodd" d="M56.6252 29.5648L78.6178 30.0579C79.2489 30.0726 79.7606 30.4949 79.7606 31.0011C79.7606 31.5073 79.2489 31.9177 78.6178 31.9177L56.6252 31.9191C55.9941 31.9191 55.4824 31.3866 55.4824 30.7296C55.4824 30.0727 55.9941 29.5511 56.6252 29.5648Z" fill="#1B3554"/>
<path opacity="0.15" fill-rule="evenodd" clip-rule="evenodd" d="M56.6252 36.0021L63.7665 35.73C64.3976 35.7057 64.9093 36.1722 64.9093 36.772C64.9093 37.3718 64.3976 37.8893 63.7665 37.9277L56.6252 38.3565C55.9941 38.3939 55.4824 37.8916 55.4824 37.2346C55.4824 36.5776 55.9941 36.0259 56.6252 36.0021Z" fill="#1B3554"/>
<path fill-rule="evenodd" clip-rule="evenodd" d="M46.3065 34.7312C49.6752 34.6655 52.406 32.0183 52.406 28.8192C52.406 25.62 49.6752 22.849 46.3065 22.6322C42.9379 22.4181 40.207 25.0674 40.207 28.5472C40.207 32.027 42.9379 34.796 46.3065 34.7312Z" fill="#3A76EC"/>
<path d="M45.33 30.9196C45.446 31.0365 45.5977 31.0953 45.7497 31.0962C45.9017 31.097 46.0534 31.0402 46.1694 30.9253L49.1379 28.0498C49.3698 27.8303 49.3698 27.4643 49.1379 27.2308C48.9061 26.9966 48.5303 26.9835 48.2984 27.2029L45.7497 29.6643L44.3884 28.2712C44.1565 28.0314 43.7807 28.0216 43.5489 28.2506C43.317 28.4803 43.317 28.8619 43.5489 29.1017L45.33 30.9196Z" fill="white"/>
<defs>
<filter id="filter0_d_6214_36107" x="0" y="0" width="128.854" height="100.085" filterUnits="userSpaceOnUse" color-interpolation-filters="sRGB">
<feFlood flood-opacity="0" result="BackgroundImageFix"/>
<feColorMatrix in="SourceAlpha" type="matrix" values="0 0 0 0 0 0 0 0 0 0 0 0 0 0 0 0 0 0 127 0" result="hardAlpha"/>
<feOffset dy="19"/>
<feGaussianBlur stdDeviation="17.5"/>
<feColorMatrix type="matrix" values="0 0 0 0 0.226735 0 0 0 0 0.437054 0 0 0 0 0.687819 0 0 0 0.189057 0"/>
<feBlend mode="normal" in2="BackgroundImageFix" result="effect1_dropShadow_6214_36107"/>
<feBlend mode="normal" in="SourceGraphic" in2="effect1_dropShadow_6214_36107" result="shape"/>
</filter>
</defs>
</svg>
