<svg width="24" height="24" viewBox="0 0 24 24" fill="none" xmlns="http://www.w3.org/2000/svg">
<path d="M20.2836 5.50623H9.57445C9.28003 4.63178 8.45292 4 7.48045 4C6.50798 4 5.68088 4.63178 5.38645 5.50623H3.71484C3.32653 5.50623 3.01172 5.82105 3.01172 6.20936C3.01172 6.59767 3.32653 6.91248 3.71484 6.91248H5.3865C5.68092 7.78694 6.50803 8.41872 7.4805 8.41872C8.45297 8.41872 9.28008 7.78694 9.5745 6.91248H20.2836C20.6719 6.91248 20.9867 6.59767 20.9867 6.20936C20.9867 5.82105 20.6719 5.50623 20.2836 5.50623ZM7.48045 7.01247C7.03763 7.01247 6.67734 6.65219 6.67734 6.20936C6.67734 5.76653 7.03763 5.40625 7.48045 5.40625C7.92328 5.40625 8.28356 5.76653 8.28356 6.20936C8.28356 6.65219 7.92328 7.01247 7.48045 7.01247Z" fill="#137C4B"/>
<path d="M20.2836 11.5316H18.6119C18.3175 10.6572 17.4903 10.0254 16.5179 10.0254C15.5455 10.0254 14.7184 10.6572 14.424 11.5316H3.71484C3.32653 11.5316 3.01172 11.8464 3.01172 12.2347C3.01172 12.6231 3.32653 12.9379 3.71484 12.9379H14.424C14.7184 13.8123 15.5455 14.4441 16.518 14.4441C17.4904 14.4441 18.3175 13.8123 18.612 12.9379H20.2836C20.6719 12.9379 20.9867 12.6231 20.9867 12.2347C20.9867 11.8464 20.6719 11.5316 20.2836 11.5316ZM16.518 13.0379C16.0751 13.0379 15.7148 12.6776 15.7148 12.2347C15.7148 11.7919 16.0751 11.4316 16.518 11.4316C16.9608 11.4316 17.3211 11.7919 17.3211 12.2347C17.3211 12.6776 16.9608 13.0379 16.518 13.0379Z" fill="#137C4B"/>
<path d="M20.2836 17.556H12.587C12.2925 16.6816 11.4654 16.0498 10.493 16.0498C9.5205 16.0498 8.69339 16.6816 8.39897 17.556H3.71484C3.32653 17.556 3.01172 17.8709 3.01172 18.2592C3.01172 18.6475 3.32653 18.9623 3.71484 18.9623H8.39897C8.69339 19.8367 9.5205 20.4685 10.493 20.4685C11.4654 20.4685 12.2925 19.8367 12.587 18.9623H20.2836C20.6719 18.9623 20.9867 18.6475 20.9867 18.2592C20.9867 17.8709 20.6719 17.556 20.2836 17.556ZM10.493 19.0623C10.0501 19.0623 9.68986 18.702 9.68986 18.2592C9.68986 17.8164 10.0501 17.4561 10.493 17.4561C10.9358 17.4561 11.2961 17.8163 11.2961 18.2592C11.2961 18.702 10.9358 19.0623 10.493 19.0623Z" fill="#137C4B"/>
</svg>
