<svg width="18" height="12" viewBox="0 0 18 12" fill="none" xmlns="http://www.w3.org/2000/svg">
<path opacity="0.4" d="M17.2895 6.65933L8.81147 6.65933C8.41926 6.65933 8.10095 6.34102 8.10095 5.94881C8.10095 5.5566 8.41926 5.23828 8.81147 5.23828L17.2895 5.23828C17.6817 5.23828 18 5.5566 18 5.94881C18 6.34102 17.6817 6.65933 17.2895 6.65933" fill="#666668"/>
<mask id="mask0_7241_9453" style="mask-type:alpha" maskUnits="userSpaceOnUse" x="0" y="0" width="10" height="12">
<path fill-rule="evenodd" clip-rule="evenodd" d="M9.52148 0.500244L9.52148 11.3966L0.582021 11.3966L0.582021 0.500244L9.52148 0.500244Z" fill="white"/>
</mask>
<g mask="url(#mask0_7241_9453)">
<path d="M8.81096 11.3969C8.67833 11.3969 8.54759 11.36 8.43201 11.288L0.913695 6.55019C0.707169 6.41945 0.581168 6.19303 0.581168 5.94861C0.581168 5.70419 0.707169 5.47777 0.913695 5.34703L8.43201 0.609242C8.65085 0.471874 8.92748 0.463347 9.15391 0.589347C9.38127 0.7144 9.52148 0.952189 9.52148 1.21082L9.52148 10.6864C9.52148 10.945 9.38127 11.1828 9.15391 11.3079C9.04685 11.3676 8.92843 11.3969 8.81096 11.3969" fill="#666668"/>
</g>
</svg>
