<svg width="18" height="20" viewBox="0 0 18 20" fill="none" xmlns="http://www.w3.org/2000/svg">
<path opacity="0.4" d="M14.39 5.29997V6.87997C13.9226 6.72097 13.4044 6.62997 12.876 6.62997H12.8658V5.29997C12.8658 3.20998 11.1384 1.49999 9.00449 1.49999H8.99433C6.86044 1.49999 5.133 3.19098 5.12284 5.27997V6.62997H5.11268C4.58429 6.62997 4.07622 6.72097 3.59863 6.87997V5.29997C3.60879 2.36099 6.0272 0 8.98417 0H9.01465C11.9716 0 14.39 2.37999 14.39 5.29997Z" fill="#666668"/>
<path fill-rule="evenodd" clip-rule="evenodd" d="M12.8766 6.63013C13.405 6.63013 13.9232 6.72113 14.3906 6.88013C16.1993 7.50012 17.5 9.18111 17.5 11.1701V15.4601C17.5 17.9601 15.4271 20.0001 12.8766 20.0001H5.11327C2.57292 20.0001 0.5 17.9601 0.5 15.4601V11.1701C0.5 9.18111 1.80066 7.50012 3.59922 6.88013C4.07681 6.72113 4.58488 6.63013 5.11327 6.63013H12.8766ZM8.99492 15.3001C9.49283 15.3001 9.88912 14.9101 9.88912 14.4201V12.2001C9.88912 11.7211 9.49283 11.3301 8.99492 11.3301C8.50717 11.3301 8.11088 11.7211 8.11088 12.2001V14.4201C8.11088 14.9101 8.50717 15.3001 8.99492 15.3001Z" fill="#666668"/>
</svg>
