<svg width="30" height="30" viewBox="0 0 30 30" fill="none" xmlns="http://www.w3.org/2000/svg">
<rect x="0.5" y="0.5" width="29" height="29" rx="7.5" stroke="#137C4B"/>
<path fill-rule="evenodd" clip-rule="evenodd" d="M7.5 10.9316C7.5 9.82707 8.39543 8.93164 9.5 8.93164H20.5C21.6046 8.93164 22.5 9.82707 22.5 10.9316V14.9463C22.229 14.8923 21.9506 14.8643 21.6666 14.8643C18.9052 14.8643 16.6666 17.5204 16.6666 20.7969C16.6666 21.1338 16.6903 21.4641 16.7358 21.7856H9.5C8.39543 21.7856 7.5 20.8902 7.5 19.7856V10.9316ZM20.1203 10.7506C20.4242 10.5565 20.8033 10.6914 20.9669 11.052C21.1306 11.4126 21.0169 11.8623 20.7129 12.0565L15.2963 15.5172C15.1113 15.6354 14.8886 15.6354 14.7036 15.5172L9.28698 12.0565C8.98306 11.8623 8.86935 11.4126 9.033 11.052C9.19665 10.6914 9.57569 10.5565 9.87961 10.7506L15 14.022L20.1203 10.7506Z" fill="#137C4B"/>
<path opacity="0.3" fill-rule="evenodd" clip-rule="evenodd" d="M21.2498 22.7759C22.4004 22.7759 23.3332 21.6692 23.3332 20.304C23.3332 18.9387 22.4004 17.832 21.2498 17.832C20.0992 17.832 19.1665 18.9387 19.1665 20.304C19.1665 21.6692 20.0992 22.7759 21.2498 22.7759Z" fill="#137C4B"/>
</svg>
