<svg width="160" height="141" viewBox="0 0 160 141" fill="none" xmlns="http://www.w3.org/2000/svg">
<g clip-path="url(#clip0_5849_5930)">
<path d="M86.645 124.302C107.846 124.302 125.032 107.115 125.032 85.9143C125.032 64.7136 107.846 47.5271 86.645 47.5271C65.4444 47.5271 48.2578 64.7136 48.2578 85.9143C48.2578 107.115 65.4444 124.302 86.645 124.302Z" fill="#137C4B"/>
<path d="M106.606 70.5593L82.0385 98.1981L66.6836 85.9142" stroke="white" stroke-width="2" stroke-miterlimit="10" stroke-linecap="round" stroke-linejoin="round"/>
</g>
<path d="M148.442 69.3945L144.597 67.4717C143.45 66.8981 142.985 65.503 143.558 64.3557L145.481 60.5103C146.055 59.3632 147.45 58.8982 148.597 59.4717L152.442 61.3945C153.589 61.9681 154.054 63.3632 153.481 64.5105L151.558 68.3559C150.984 69.503 149.589 69.968 148.442 69.3945Z" fill="#FF7115"/>
<path d="M51.9098 43.1104L53.4056 47.3167C53.4697 47.4968 53.5965 47.6395 53.7564 47.7116L57.4934 49.3953C58.0213 49.6331 58.0213 50.4744 57.4934 50.7122L53.7564 52.396C53.5965 52.468 53.4696 52.6108 53.4056 52.7909L51.9098 56.997C51.6985 57.5913 50.9511 57.5913 50.7398 56.997L49.2438 52.7907C49.1797 52.6106 49.0529 52.4679 48.893 52.3958L45.1558 50.7122C44.6277 50.4744 44.6277 49.6333 45.1558 49.3953L48.8928 47.7116C49.0529 47.6395 49.1797 47.4968 49.2436 47.3167L50.7396 43.1104C50.9511 42.5163 51.6984 42.5163 51.9098 43.1104Z" fill="#CAB4EF"/>
<path d="M38.2068 113.664L39.3165 116.784C39.3639 116.918 39.4579 117.024 39.5768 117.077L42.3488 118.326C42.7405 118.503 42.7405 119.127 42.3488 119.303L39.5768 120.552C39.4581 120.606 39.3641 120.712 39.3165 120.845L38.2068 123.965C38.0501 124.406 37.4957 124.406 37.339 123.965L36.2293 120.845C36.1819 120.712 36.0879 120.606 35.969 120.552L33.197 119.303C32.8054 119.127 32.8054 118.503 33.197 118.326L35.969 117.077C36.0877 117.024 36.1817 116.918 36.2293 116.784L37.339 113.664C37.4957 113.224 38.05 113.224 38.2068 113.664Z" fill="#FFC7B6"/>
<path d="M61.7821 42.6648C62.5603 42.6648 63.1912 42.0339 63.1912 41.2557C63.1912 40.4775 62.5603 39.8467 61.7821 39.8467C61.0039 39.8467 60.373 40.4775 60.373 41.2557C60.373 42.0339 61.0039 42.6648 61.7821 42.6648Z" fill="#B548C6"/>
<path d="M123.568 64.1985C124.346 64.1985 124.977 63.5676 124.977 62.7894C124.977 62.0112 124.346 61.3804 123.568 61.3804C122.79 61.3804 122.159 62.0112 122.159 62.7894C122.159 63.5676 122.79 64.1985 123.568 64.1985Z" fill="#FF7115"/>
<path d="M121.779 45.3088C123.446 44.6179 124.237 42.7066 123.546 41.0398C122.855 39.3729 120.944 38.5818 119.277 39.2727C117.61 39.9636 116.819 41.8749 117.51 43.5418C118.201 45.2086 120.112 45.9997 121.779 45.3088Z" fill="#3A76EC"/>
<path d="M91.1527 39.3649C91.8221 39.0487 92.4242 38.5656 92.8919 37.9258L97.1879 32.0492C98.8104 29.8302 99.1015 26.934 97.9473 24.4911L95.6822 19.6969C94.528 17.254 92.1058 15.6398 89.361 15.4839L81.5764 14.9465L87.0086 7.29343C88.5036 5.24864 88.0577 2.37917 86.0131 0.884227C83.9683 -0.610716 81.0988 -0.164816 79.6037 1.8798L75.3076 7.75633C73.6852 9.97572 73.3942 12.8719 74.5483 15.3144L76.8134 20.1086C77.9676 22.5513 80.3896 24.1656 83.1342 24.3216L91.1106 24.5515L85.4869 32.5121C83.992 34.5569 84.4379 37.4264 86.4825 38.9213C87.8878 39.9488 89.6826 40.0596 91.1527 39.3649Z" fill="#137C4B"/>
<path d="M81.144 15.5948L81.5766 14.9465L89.3613 15.484C91.7204 15.6179 93.8402 16.83 95.1225 18.7188C94.071 20.2923 92.9589 21.8241 91.8222 23.3389C91.5399 23.715 91.3007 24.1214 91.1108 24.5516L83.1344 24.3217C80.6634 24.1813 78.4545 22.8585 77.1963 20.8139C78.5223 19.0814 79.8455 17.3473 81.144 15.5948Z" fill="#137C4B"/>
<path opacity="0.6" d="M128.438 136.78L123.009 139.914C121.39 140.849 119.319 140.294 118.384 138.674L115.25 133.246C114.315 131.627 114.87 129.556 116.489 128.621L121.918 125.487C123.537 124.552 125.608 125.107 126.543 126.726L129.677 132.154C130.612 133.774 130.057 135.845 128.438 136.78Z" fill="#137C4B"/>
<path d="M62.3735 131.422L66.5076 130.241C67.741 129.888 69.0262 130.603 69.3786 131.836L70.5596 135.97C70.912 137.203 70.1978 138.489 68.9644 138.841L64.8304 140.022C63.597 140.374 62.3117 139.66 61.9593 138.427L60.7784 134.293C60.4261 133.059 61.1403 131.774 62.3735 131.422Z" fill="#B548C6"/>
<path d="M135.223 115.133C135.91 115.409 136.673 115.523 137.461 115.432L144.691 114.592C147.422 114.275 149.745 112.521 150.754 110.015L152.733 105.095C153.741 102.589 153.281 99.7147 151.53 97.5948L146.636 91.5171L155.942 90.3043C158.458 90.0121 160.261 87.7357 159.969 85.2195C159.677 82.7035 157.401 80.9008 154.884 81.1926L147.653 82.0322C144.923 82.3493 142.6 84.1033 141.591 86.6096L139.612 91.5288C138.604 94.0353 139.064 96.9092 140.815 99.0292L146.065 105.039L136.403 106.32C133.887 106.612 132.084 108.889 132.376 111.405C132.577 113.134 133.714 114.526 135.223 115.133Z" fill="#B548C6"/>
<path d="M146.636 91.5171L147.151 92.1573L151.53 97.5948C153.035 99.4168 153.585 101.796 153.07 104.02C150.968 104.354 148.184 104.827 146.065 105.039L145.392 104.269L140.815 99.0294C139.239 97.1207 138.709 94.6012 139.355 92.2888C141.527 92.0848 144.468 91.7546 146.636 91.5171Z" fill="#B548C6"/>
<path d="M34.287 84.1019C33.7529 84.6147 33.087 85.005 32.3226 85.2139L25.301 87.1341C22.6495 87.8594 19.8397 87.0992 17.9685 85.1504L14.2961 81.3255C12.4249 79.3765 11.7796 76.5382 12.6121 73.9181L14.8837 66.453L5.79734 68.8016C3.35411 69.4698 0.831724 68.0308 0.163586 65.5875C-0.504551 63.1443 0.934433 60.6221 3.37766 59.9538L10.3992 58.0337C13.0511 57.3085 15.8608 58.0687 17.7319 60.0174L21.4043 63.8422C23.2755 65.791 23.9208 68.6293 23.0885 71.2495L20.461 78.7842L29.9031 76.3663C32.3463 75.6982 34.8687 77.1371 35.5368 79.5804C35.996 81.2591 35.46 82.9756 34.287 84.1019Z" fill="#3A76EC"/>
<path d="M14.884 66.4531L14.6447 67.2394L12.6122 73.9184C11.8967 76.1704 12.2738 78.583 13.5817 80.4541C15.6564 79.9797 18.4157 79.3788 20.4612 78.7842L20.798 77.8184L23.0888 71.2494C23.838 68.8907 23.3891 66.3554 21.9269 64.4512C19.8358 65.0726 16.9838 65.8643 14.884 66.4531Z" fill="#3A76EC"/>
<defs>
<clipPath id="clip0_5849_5930">
<rect width="76.7745" height="76.7745" fill="white" transform="translate(48.2578 47.5271)"/>
</clipPath>
</defs>
</svg>
