<svg width="18" height="20" viewBox="0 0 18 20" fill="none" xmlns="http://www.w3.org/2000/svg">
<path opacity="0.4" d="M13.7618 4.52091C13.3653 4.66091 12.9281 4.45091 12.7858 4.06092C12.2469 2.53095 10.7828 1.49997 9.13565 1.49997H9.11532C6.99032 1.49997 5.26185 3.19094 5.25168 5.28089V6.62987H5.24151C4.71281 6.62987 4.19427 6.71987 3.72656 6.87986V5.29989C3.73673 2.36095 6.15659 0 9.11532 0H9.13565C11.4335 0 13.4772 1.42997 14.2296 3.57093C14.3719 3.95992 14.1584 4.38991 13.7618 4.52091Z" fill="#666668"/>
<path fill-rule="evenodd" clip-rule="evenodd" d="M5.11603 6.63037H12.884C15.436 6.63037 17.5 8.66033 17.5 11.1703V15.4602C17.5 17.9601 15.436 20.0001 12.884 20.0001H5.11603C2.564 20.0001 0.5 17.9601 0.5 15.4602V11.1703C0.5 9.18032 1.79127 7.50035 3.60108 6.88037C4.06878 6.72037 4.58732 6.63037 5.11603 6.63037ZM9 15.3002C9.48804 15.3002 9.88457 14.9002 9.88457 14.4202V12.2003C9.88457 11.7203 9.48804 11.3203 9 11.3203C8.51196 11.3203 8.10526 11.7203 8.10526 12.2003V14.4202C8.10526 14.9002 8.51196 15.3002 9 15.3002Z" fill="#666668"/>
</svg>
