<svg width="18" height="12" viewBox="0 0 18 12" fill="none" xmlns="http://www.w3.org/2000/svg">
<path opacity="0.4" d="M0.710526 5.34067L9.18853 5.34067C9.58074 5.34067 9.89905 5.65898 9.89905 6.05119C9.89905 6.4434 9.58074 6.76172 9.18853 6.76172L0.710526 6.76172C0.318316 6.76172 0 6.4434 0 6.05119C0 5.65898 0.318316 5.34067 0.710526 5.34067" fill="#F44771"/>
<mask id="mask0_8249_29604" style="mask-type:alpha" maskUnits="userSpaceOnUse" x="8" y="0" width="10" height="12">
<path fill-rule="evenodd" clip-rule="evenodd" d="M8.47656 11.4998L8.47656 0.603358L17.416 0.603358L17.416 11.4998L8.47656 11.4998Z" fill="white"/>
</mask>
<g mask="url(#mask0_8249_29604)">
<path d="M9.18709 0.603074C9.31972 0.603074 9.45046 0.640021 9.56604 0.712021L17.0844 5.44981C17.2909 5.58055 17.4169 5.80697 17.4169 6.05139C17.4169 6.29581 17.2909 6.52223 17.0844 6.65297L9.56604 11.3908C9.34719 11.5281 9.07056 11.5367 8.84414 11.4107C8.61677 11.2856 8.47656 11.0478 8.47656 10.7892L8.47656 1.3136C8.47656 1.05497 8.61677 0.817179 8.84414 0.692126C8.95119 0.632442 9.06962 0.603074 9.18709 0.603074" fill="#F44771"/>
</g>
</svg>
