<svg aria-hidden="true" style="position: absolute; width: 0; height: 0; overflow: hidden;" version="1.1"
    xmlns="http://www.w3.org/2000/svg" xmlns:xlink="http://www.w3.org/1999/xlink">
    <defs>
        <symbol id="icon-user" viewBox="0 0 32 32">
            <path fill="#fff" style="fill: var(--color1, #fff)"
                d="M15.996 20.232c-5.751 0-10.663 0.907-10.663 4.533 0 3.628 4.881 4.567 10.663 4.567 5.751 0 10.663-0.905 10.663-4.533s-4.88-4.567-10.663-4.567z">
            </path>
            <path fill="#fff" style="fill: var(--color1, #fff)" opacity="0.4"
                d="M15.996 16.778c3.917 0 7.056-3.14 7.056-7.056s-3.139-7.056-7.056-7.056c-3.916 0-7.056 3.14-7.056 7.056s3.14 7.056 7.056 7.056z">
            </path>
        </symbol>
        <symbol id="icon-users" viewBox="0 0 32 32">
            <path fill="#fff" style="fill: var(--color1, #fff)"
                d="M15.932 19.387c-4.6 0-8.481 0.752-8.481 3.653 0 2.902 3.906 3.627 8.481 3.627 4.6 0 8.481-0.752 8.481-3.653 0-2.902-3.906-3.627-8.481-3.627z">
            </path>
            <path fill="#fff" style="fill: var(--color1, #fff)" opacity="0.4"
                d="M15.933 16.623c3.115 0 5.612-2.512 5.612-5.645 0-3.134-2.498-5.645-5.612-5.645s-5.612 2.511-5.612 5.645c0 3.133 2.498 5.645 5.612 5.645z">
            </path>
            <path fill="#fff" style="fill: var(--color1, #fff)" opacity="0.4"
                d="M28.118 12.292c0.806-3.17-1.557-6.017-4.565-6.017-0.327 0-0.64 0.036-0.945 0.097-0.041 0.010-0.086 0.030-0.11 0.066-0.027 0.046-0.007 0.107 0.023 0.146 0.904 1.275 1.423 2.828 1.423 4.494 0 1.597-0.476 3.086-1.312 4.322-0.086 0.127-0.010 0.299 0.142 0.325 0.21 0.037 0.425 0.056 0.645 0.062 2.191 0.058 4.157-1.36 4.7-3.496z">
            </path>
            <path fill="#fff" style="fill: var(--color1, #fff)"
                d="M30.413 19.756c-0.401-0.86-1.369-1.449-2.841-1.739-0.695-0.171-2.575-0.411-4.324-0.378-0.026 0.004-0.041 0.022-0.043 0.034-0.004 0.017 0.004 0.046 0.038 0.064 0.808 0.402 3.933 2.152 3.54 5.842-0.017 0.16 0.111 0.298 0.27 0.274 0.769-0.111 2.747-0.538 3.361-1.87 0.339-0.704 0.339-1.521 0-2.226z">
            </path>
            <path fill="#fff" style="fill: var(--color1, #fff)" opacity="0.4"
                d="M9.393 6.373c-0.304-0.062-0.618-0.097-0.946-0.097-3.009 0-5.371 2.847-4.564 6.017 0.542 2.136 2.508 3.554 4.699 3.497 0.22-0.006 0.436-0.026 0.645-0.062 0.152-0.026 0.228-0.198 0.142-0.325-0.836-1.237-1.312-2.725-1.312-4.322 0-1.668 0.521-3.22 1.424-4.494 0.029-0.040 0.050-0.101 0.021-0.146-0.024-0.037-0.068-0.056-0.11-0.066z">
            </path>
            <path fill="#fff" style="fill: var(--color1, #fff)"
                d="M4.429 18.017c-1.472 0.289-2.439 0.879-2.84 1.739-0.34 0.705-0.34 1.523 0 2.227 0.614 1.331 2.592 1.759 3.361 1.868 0.159 0.024 0.285-0.113 0.269-0.274-0.393-3.689 2.732-5.438 3.541-5.84 0.033-0.019 0.041-0.047 0.037-0.065-0.002-0.012-0.016-0.030-0.042-0.032-1.75-0.034-3.629 0.207-4.325 0.377z">
            </path>
        </symbol>
        <symbol id="icon-blocks" viewBox="0 0 32 32">
            <path fill="#fff" style="fill: var(--color1, #fff)"
                d="M7.333 5.333h5.333c1.105 0 2 0.895 2 2v5.333c0 1.105-0.895 2-2 2h-5.333c-1.105 0-2-0.895-2-2v-5.333c0-1.105 0.895-2 2-2z">
            </path>
            <path fill="#fff" style="fill: var(--color1, #fff)" opacity="0.3"
                d="M17.333 7.333c0-1.105 0.895-2 2-2h5.333c1.105 0 2 0.895 2 2v5.333c0 1.105-0.895 2-2 2h-5.333c-1.105 0-2-0.895-2-2v-5.333zM5.333 19.333c0-1.105 0.895-2 2-2h5.333c1.105 0 2 0.895 2 2v5.333c0 1.105-0.895 2-2 2h-5.333c-1.105 0-2-0.895-2-2v-5.333zM19.333 17.333c-1.105 0-2 0.895-2 2v5.333c0 1.105 0.895 2 2 2h5.333c1.105 0 2-0.895 2-2v-5.333c0-1.105-0.895-2-2-2h-5.333z">
            </path>
        </symbol>
        <symbol id="icon-add-circle" viewBox="0 0 32 32">
            <path fill="#fff" style="fill: var(--color1, #fff)"
                d="M17.524 14.476h6.095v3.048h-6.095v6.095h-3.048v-6.095h-6.095v-3.048h6.095v-6.095h3.048v6.095zM16 31.238c-4.041 0-7.917-1.605-10.775-4.463s-4.463-6.734-4.463-10.775c0-4.041 1.605-7.917 4.463-10.775s6.734-4.463 10.775-4.463c4.041 0 7.917 1.605 10.775 4.463s4.463 6.734 4.463 10.775c0 4.041-1.605 7.917-4.463 10.775s-6.734 4.463-10.775 4.463zM16 28.19c3.233 0 6.334-1.284 8.62-3.57s3.57-5.387 3.57-8.62c0-3.233-1.284-6.334-3.57-8.62s-5.387-3.571-8.62-3.571c-3.233 0-6.334 1.284-8.62 3.571s-3.571 5.387-3.571 8.62c0 3.233 1.284 6.334 3.571 8.62s5.387 3.57 8.62 3.57z">
            </path>
        </symbol>
        <symbol id="icon-arrow-filled" viewBox="0 0 48 32">
            <path fill="#666668" style="fill: var(--color2, #666668)" opacity="0.4"
                d="M46.105 17.758h-22.608c-1.046 0-1.895-0.849-1.895-1.895s0.849-1.895 1.895-1.895h22.608c1.046 0 1.895 0.849 1.895 1.895s-0.849 1.895-1.895 1.895z">
            </path>
            <path fill="#666668" style="fill: var(--color2, #666668)"
                d="M23.496 30.392c-0.354 0-0.702-0.098-1.011-0.29l-20.049-12.634c-0.551-0.349-0.887-0.952-0.887-1.604s0.336-1.256 0.887-1.604l20.049-12.634c0.584-0.366 1.321-0.389 1.925-0.053 0.606 0.333 0.98 0.968 0.98 1.657v25.268c0 0.69-0.374 1.324-0.98 1.657-0.285 0.159-0.601 0.237-0.915 0.237z">
            </path>
        </symbol>
        <symbol id="icon-arrow-outlined" viewBox="0 0 47 32">
            <path fill="none" stroke="#666668" style="stroke: var(--color2, #666668)" stroke-linejoin="round"
                stroke-linecap="round" stroke-miterlimit="4" stroke-width="3.6923" d="M23.877 16.612h-22.031"></path>
            <path fill="none" stroke="#666668" style="stroke: var(--color2, #666668)" stroke-linejoin="round"
                stroke-linecap="round" stroke-miterlimit="4" stroke-width="3.6923"
                d="M23.875 28.923l19.537-12.31-19.537-12.31v24.62z"></path>
        </symbol>
        <symbol id="icon-bank-building" viewBox="0 0 32 32">
            <path fill="#ff7115" style="fill: var(--color3, #ff7115)"
                d="M29.936 28.932h-28.292c-0.782 0-1.415 0.633-1.415 1.416 0 0.781 0.633 1.414 1.415 1.414h28.291c0.782 0 1.415-0.633 1.415-1.414-0.001-0.782-0.634-1.416-1.414-1.416z">
            </path>
            <path fill="#ff7115" style="fill: var(--color3, #ff7115)"
                d="M3.411 25.254c-0.782 0-1.415 0.633-1.415 1.415s0.633 1.416 1.415 1.416h24.755c0.782 0 1.415-0.634 1.415-1.416s-0.633-1.415-1.415-1.415h-0.353v-12.732h0.353c0.391 0 0.707-0.317 0.707-0.707s-0.317-0.707-0.707-0.707h-24.755c-0.391 0-0.707 0.317-0.707 0.707s0.317 0.707 0.707 0.707h0.354v12.731h-0.354v0.001zM24.983 12.521v12.731h-4.244v-12.731h4.244zM17.91 12.521v12.731h-4.244v-12.731h4.244zM6.593 12.521h4.244v12.731h-4.244v-12.731z">
            </path>
            <path fill="#ff7115" style="fill: var(--color3, #ff7115)"
                d="M1.644 9.839h28.291c0.005 0 0.010 0 0.014 0 0.782 0 1.415-0.633 1.415-1.415 0-0.621-0.4-1.148-0.956-1.339l-14.037-6.316c-0.369-0.166-0.791-0.166-1.161 0l-14.147 6.365c-0.609 0.274-0.943 0.935-0.803 1.587s0.716 1.118 1.383 1.118z">
            </path>
        </symbol>
        <symbol id="icon-box-plus" viewBox="0 0 32 32">
            <path fill="none" stroke="#9999b4" style="stroke: var(--color4, #9999b4)" stroke-linejoin="round"
                stroke-linecap="round" stroke-miterlimit="4" stroke-width="2.1818" d="M15.999 10.658v10.656"></path>
            <path fill="none" stroke="#9999b4" style="stroke: var(--color4, #9999b4)" stroke-linejoin="round"
                stroke-linecap="round" stroke-miterlimit="4" stroke-width="2.1818" d="M21.334 15.986h-10.667"></path>
            <path fill="none" stroke="#9999b4" style="stroke: var(--color4, #9999b4)" stroke-linejoin="round"
                stroke-linecap="round" stroke-miterlimit="4" stroke-width="2.1818"
                d="M22.816 1.455h-13.631c-4.752 0-7.73 3.363-7.73 8.124v12.843c0 4.761 2.965 8.124 7.73 8.124h13.631c4.765 0 7.73-3.363 7.73-8.124v-12.843c0-4.761-2.965-8.124-7.73-8.124z">
            </path>
        </symbol>
        <symbol id="icon-calendar" viewBox="0 0 32 32">
            <path fill="#137c4b" style="fill: var(--color5, #137c4b)" opacity="0.4"
                d="M11.929 6.775h8.19v-1.907h-8.19v1.907zM10.066 4.947v0.010c-0.639 0.058-1.272 0.185-1.887 0.376v-0.007c-0.018 0.008-0.036 0.014-0.052 0.019-0.022 0.007-0.042 0.014-0.062 0.025-0.049 0.012-0.097 0.030-0.143 0.052-0.135 0.044-0.27 0.096-0.397 0.15-0.034 0.013-0.067 0.028-0.101 0.043v0 0c-0.034 0.015-0.067 0.030-0.101 0.043-0.046 0.022-0.095 0.046-0.143 0.070l-0 0c-0.048 0.024-0.097 0.048-0.143 0.070l-0.229 0.132c-0.042 0.022-0.081 0.047-0.121 0.073-0.024 0.015-0.048 0.031-0.073 0.046-0.344 0.222-0.663 0.482-0.952 0.777l-0.017 0.018c-0.038 0.044-0.076 0.087-0.113 0.129-0.063 0.071-0.124 0.141-0.182 0.213l-0.017 0.017c-0.936 1.291-1.405 2.882-1.323 4.495v0.511h1.847v-0.516c0-2.248 0.716-3.647 2.309-4.363 0.608-0.258 1.251-0.417 1.905-0.475h0.017v-1.899l-0.022-0.008zM26.664 7.178l0.008 0.017c0.934 1.292 1.401 2.885 1.319 4.497v0.516h-1.846v-0.529c0.039-0.952-0.152-1.899-0.557-2.754-0.389-0.732-1.011-1.301-1.763-1.609-0.598-0.258-1.232-0.418-1.878-0.475v-1.889c0.639 0.059 1.272 0.185 1.888 0.376v-0.010c0.035 0.016 0.061 0.025 0.106 0.041l0.008 0.003c0.021 0.007 0.041 0.015 0.060 0.022 0.027 0.010 0.054 0.020 0.083 0.030 0.126 0.042 0.245 0.090 0.366 0.141l0.021 0.009c0.056 0.020 0.109 0.044 0.157 0.066 0.015 0.007 0.030 0.014 0.045 0.020 0.101 0.044 0.204 0.096 0.286 0.14 0.055 0.029 0.108 0.059 0.159 0.088 0.027 0.015 0.053 0.030 0.078 0.044 0.041 0.023 0.077 0.047 0.111 0.070 0.025 0.017 0.049 0.034 0.074 0.049 0.345 0.223 0.668 0.484 0.96 0.777l0.010 0.018c0.107 0.108 0.209 0.222 0.304 0.342z">
            </path>
            <path fill="#137c4b" style="fill: var(--color5, #137c4b)"
                d="M22.001 3.623v4.202c0 0.529-0.43 0.958-0.96 0.958s-0.96-0.429-0.96-0.958v-4.192c-0.005-0.529 0.422-0.962 0.953-0.965s0.964 0.422 0.967 0.951v0.005z">
            </path>
            <path fill="#137c4b" style="fill: var(--color5, #137c4b)"
                d="M11.92 3.638v4.192c0 0.532-0.43 0.963-0.961 0.963s-0.959-0.431-0.959-0.963v-4.192c0-0.532 0.429-0.962 0.959-0.962s0.961 0.43 0.961 0.962z">
            </path>
            <path fill="#137c4b" style="fill: var(--color5, #137c4b)"
                d="M4 22.547v-10.339h24v10.339c0 4.509-2.518 6.786-7.508 6.786h-8.996c-4.979 0-7.496-2.278-7.496-6.786zM9.413 17.955c0 0.626 0.492 1.133 1.099 1.133 0.618 0 1.11-0.519 1.099-1.145 0-0.626-0.492-1.133-1.087-1.133h-0.011c-0.607 0-1.099 0.519-1.099 1.145zM14.896 17.955c0 0.626 0.504 1.133 1.11 1.133s1.099-0.507 1.099-1.145c0-0.614-0.492-1.121-1.099-1.133h-0.011c-0.607 0.012-1.099 0.519-1.099 1.145zM21.488 19.089c-0.607 0-1.099-0.507-1.099-1.133s0.481-1.133 1.099-1.133c0.607 0 1.099 0.508 1.099 1.133s-0.492 1.133-1.099 1.133zM21.488 23.928c-0.607 0-1.099-0.508-1.11-1.133 0-0.626 0.492-1.133 1.099-1.133h0.011c0.607 0 1.099 0.507 1.099 1.133s-0.492 1.133-1.099 1.133zM16.006 23.928c-0.607 0-1.11-0.508-1.11-1.133s0.492-1.133 1.099-1.145h0.011c0.607 0.012 1.087 0.519 1.099 1.133 0 0.637-0.492 1.145-1.099 1.145zM10.512 23.928c-0.607 0-1.099-0.508-1.099-1.133-0.011-0.626 0.481-1.145 1.099-1.145 0.607 0 1.099 0.507 1.099 1.133s-0.492 1.145-1.099 1.145z">
            </path>
        </symbol>
        <symbol id="icon-chevron-arrow" viewBox="0 0 36 32">
            <path fill="none" stroke="#137c4b" style="stroke: var(--color5, #137c4b)" stroke-linejoin="round"
                stroke-linecap="round" stroke-miterlimit="4" stroke-width="3.2" d="M33.6 16.481h-32"></path>
            <path fill="none" stroke="#137c4b" style="stroke: var(--color5, #137c4b)" stroke-linejoin="round"
                stroke-linecap="round" stroke-miterlimit="4" stroke-width="3.2"
                d="M20.692 3.629l12.907 12.851-12.907 12.853"></path>
        </symbol>
        <symbol id="icon-chevron-down" viewBox="0 0 51 32">
            <path fill="none" stroke="#9999b4" style="stroke: var(--color4, #9999b4)" stroke-linejoin="round"
                stroke-linecap="round" stroke-miterlimit="4" stroke-width="4.8" d="M48 4.8l-22.4 22.4-22.4-22.4"></path>
        </symbol>
        <symbol id="icon-close" viewBox="0 0 32 32">
            <path stroke-linejoin="round" stroke-linecap="round" stroke-miterlimit="4" stroke-width="2.9091"
                d="M8 8l17.032 17.032"></path>
            <path stroke-linejoin="round" stroke-linecap="round" stroke-miterlimit="4" stroke-width="2.9091"
                d="M8 25.032l17.032-17.032"></path>
        </symbol>
        <symbol id="icon-copy-filled-green" viewBox="0 0 32 32">
            <path fill="#137c4b" style="fill: var(--color5, #137c4b)"
                d="M12.999 26c-3.124 0-5.667-2.543-5.667-5.667v-13.667h-2.333c-2.023 0-3.667 1.644-3.667 3.667v18c0 2.023 1.644 3.667 3.667 3.667h16.667c2.023 0 3.667-1.644 3.667-3.667v-2.333h-12.333z">
            </path>
            <path fill="#137c4b" style="fill: var(--color5, #137c4b)"
                d="M30.665 3.667c0-2.025-1.641-3.667-3.667-3.667h-14c-2.025 0-3.667 1.641-3.667 3.667v16.667c0 2.025 1.641 3.667 3.667 3.667h14c2.025 0 3.667-1.641 3.667-3.667v-16.667z">
            </path>
        </symbol>
        <symbol id="icon-document" viewBox="0 0 33 32">
            <path fill="#9999b4" style="fill: var(--color4, #9999b4)"
                d="M9.17 26.514h13.474c0.62 0 1.123-0.409 1.123-0.914s-0.503-0.914-1.123-0.914l-13.474-0c-0.62 0-1.123 0.41-1.123 0.914 0 0.505 0.503 0.915 1.123 0.915v0z">
            </path>
            <path fill="#9999b4" style="fill: var(--color4, #9999b4)"
                d="M9.17 21.943h13.474c0.62 0 1.123-0.409 1.123-0.914s-0.503-0.914-1.123-0.914l-13.474-0c-0.62 0-1.123 0.41-1.123 0.914 0 0.505 0.503 0.915 1.123 0.915v0z">
            </path>
            <path fill="#9999b4" style="fill: var(--color4, #9999b4)"
                d="M9.17 17.372h13.474c0.62 0 1.123-0.409 1.123-0.914s-0.503-0.914-1.123-0.914l-13.474-0c-0.62 0-1.123 0.41-1.123 0.914s0.503 0.915 1.123 0.915v0z">
            </path>
            <path fill="#9999b4" style="fill: var(--color4, #9999b4)"
                d="M10.293 4.571c0 1.513-1.511 2.743-3.369 2.743h-2.661l6.029-4.364v1.621zM32.187 3.657c0-2.011-2.021-3.657-4.491-3.657l-16.281 0.009c-0.269 0-0.536 0.070-0.746 0.222l-10.105 7.314c-0.244 0.176-0.368 0.427-0.368 0.683h-0.009v20.114c0 2.011 2.021 3.657 4.491 3.657h23.017c2.47 0 4.491-1.646 4.491-3.657l-0-24.686zM2.433 9.143h4.491c3.096 0 5.614-2.051 5.614-4.571v-2.742l15.158-0.001c1.238 0 2.245 0.82 2.245 1.828v24.686c0 1.008-1.008 1.828-2.245 1.828l-23.017 0.001c-1.239 0-2.245-0.821-2.245-1.828l-0-19.2z">
            </path>
            <path fill="#9999b4" style="fill: var(--color4, #9999b4)"
                d="M21.519 7.771v3.2h-3.93v-3.2h3.93zM22.080 5.943h-5.052c-0.926 0-1.684 0.617-1.684 1.372v4.114c0 0.754 0.758 1.371 1.684 1.371h5.052c0.926 0 1.684-0.617 1.684-1.371v-4.114c0-0.754-0.758-1.372-1.684-1.372z">
            </path>
        </symbol>
        <symbol id="icon-gear" viewBox="0 0 32 32">
            <path fill="#fff" style="fill: var(--color1, #fff)"
                d="M16.016 19.774c-2.139 0-3.87-1.667-3.87-3.76s1.731-3.773 3.87-3.773c2.139 0 3.829 1.68 3.829 3.773s-1.69 3.76-3.829 3.76z">
            </path>
            <path fill="#fff" style="fill: var(--color1, #fff)" opacity="0.4"
                d="M28.307 19.16c-0.259-0.4-0.627-0.8-1.104-1.053-0.381-0.187-0.627-0.493-0.845-0.853-0.695-1.147-0.286-2.653 0.872-3.333 1.363-0.76 1.799-2.453 1.008-3.773l-0.913-1.573c-0.777-1.32-2.48-1.787-3.829-1.013-1.199 0.64-2.739 0.213-3.434-0.92-0.218-0.373-0.341-0.773-0.313-1.173 0.041-0.52-0.123-1.013-0.368-1.413-0.504-0.827-1.417-1.387-2.425-1.387h-1.921c-0.995 0.027-1.908 0.56-2.412 1.387-0.259 0.4-0.409 0.893-0.382 1.413 0.027 0.4-0.095 0.8-0.313 1.173-0.695 1.133-2.235 1.56-3.42 0.92-1.363-0.773-3.052-0.307-3.843 1.013l-0.913 1.573c-0.777 1.32-0.341 3.013 1.008 3.773 1.158 0.68 1.567 2.187 0.886 3.333-0.232 0.36-0.477 0.667-0.858 0.853-0.463 0.253-0.872 0.653-1.090 1.053-0.504 0.827-0.477 1.867 0.027 2.733l0.94 1.6c0.504 0.853 1.444 1.387 2.425 1.387 0.463 0 1.008-0.133 1.444-0.4 0.341-0.227 0.749-0.307 1.199-0.307 1.349 0 2.48 1.107 2.507 2.427 0 1.533 1.254 2.733 2.834 2.733h1.853c1.567 0 2.821-1.2 2.821-2.733 0.041-1.32 1.172-2.427 2.521-2.427 0.436 0 0.845 0.080 1.199 0.307 0.436 0.267 0.967 0.4 1.444 0.4 0.967 0 1.908-0.533 2.412-1.387l0.954-1.6c0.491-0.893 0.531-1.907 0.027-2.733z">
            </path>
        </symbol>
        <symbol id="icon-intrest" viewBox="0 0 32 32">
            <path fill="#3a76ec" style="fill: var(--color6, #3a76ec); stroke: var(--color6, #3a76ec)" stroke="#3a76ec"
                stroke-linejoin="miter" stroke-linecap="butt" stroke-miterlimit="4" stroke-width="2.1333"
                d="M18.929 13.078v7.372c0.369-0.288 0.769-0.525 1.188-0.719v-6.653h-1.188z"></path>
            <path fill="#3a76ec" style="fill: var(--color6, #3a76ec); stroke: var(--color6, #3a76ec)" stroke="#3a76ec"
                stroke-linejoin="miter" stroke-linecap="butt" stroke-miterlimit="4" stroke-width="2.1333"
                d="M23.808 9.827v9.417c0.406 0.056 0.807 0.169 1.188 0.319v-9.736h-1.188z"></path>
            <path fill="#3a76ec" style="fill: var(--color6, #3a76ec)"
                d="M25.273 21.082c-0.644-0.388-1.376-0.619-2.126-0.675h-0.006c-0.131-0.012-0.256-0.019-0.388-0.019-0.575 0-1.151 0.1-1.688 0.3-0.063 0.038-0.131 0.069-0.206 0.081-1.851 0.763-3.058 2.57-3.058 4.571 0 2.726 2.214 4.946 4.946 4.946 1.745 0 3.364-0.919 4.258-2.426 1.395-2.351 0.619-5.384-1.732-6.778zM22.752 24.834c0.838 0 1.595 0.513 1.901 1.294 0.406 1.044-0.106 2.226-1.157 2.639v0.344c0 0.344-0.281 0.625-0.625 0.625s-0.625-0.281-0.625-0.625v-0.281c-0.894-0.231-1.52-1.044-1.526-1.97v-0.006c-0.006-0.344 0.269-0.619 0.613-0.619s0.625 0.281 0.625 0.625c0 0.432 0.35 0.788 0.782 0.788s0.788-0.35 0.788-0.782c0-0.432-0.35-0.788-0.782-0.788-0.925 0-1.732-0.625-1.957-1.526-0.281-1.088 0.375-2.201 1.463-2.482v-0.45c0-0.344 0.281-0.625 0.625-0.625s0.625 0.281 0.625 0.625v0.519c0.782 0.306 1.294 1.063 1.294 1.901-0.006 0.35-0.288 0.625-0.638 0.625-0.344 0-0.625-0.281-0.625-0.625 0-0.432-0.35-0.788-0.788-0.788-0.438 0.006-0.782 0.356-0.782 0.794s0.35 0.788 0.788 0.788z">
            </path>
            <path fill="#3a76ec" style="fill: var(--color6, #3a76ec); stroke: var(--color6, #3a76ec)" stroke="#3a76ec"
                stroke-linejoin="miter" stroke-linecap="butt" stroke-miterlimit="4" stroke-width="2.1333"
                d="M10.301 18.081h-1.188v8.629h1.188v-8.629z"></path>
            <path fill="#3a76ec" style="fill: var(--color6, #3a76ec); stroke: var(--color6, #3a76ec)" stroke="#3a76ec"
                stroke-linejoin="miter" stroke-linecap="butt" stroke-miterlimit="4" stroke-width="2.1333"
                d="M15.242 16.643h-1.188v10.068h1.188v-10.068z"></path>
            <path fill="#3a76ec" style="fill: var(--color6, #3a76ec); stroke: var(--color6, #3a76ec)" stroke="#3a76ec"
                stroke-linejoin="miter" stroke-linecap="butt" stroke-miterlimit="4" stroke-width="2.1333"
                d="M5.363 23.458h-1.188v3.252h1.188v-3.252z"></path>
            <path fill="#3a76ec" style="fill: var(--color6, #3a76ec); stroke: var(--color6, #3a76ec)" stroke="#3a76ec"
                stroke-linejoin="miter" stroke-linecap="butt" stroke-miterlimit="4" stroke-width="2.1333"
                d="M26.151 0.634l-4.277 0.006c-0.344-0.006-0.625 0.275-0.632 0.619s0.275 0.625 0.619 0.632c0.006 0 0.006 0 0.013 0l2.77-0.006-6.785 6.76-2.37-2.351c-0.119-0.113-0.281-0.169-0.444-0.163-0.163-0.006-0.325 0.050-0.444 0.163l-12.006 12.006c-0.244 0.244-0.244 0.638 0 0.875 0.119 0.119 0.275 0.181 0.444 0.181s0.325-0.063 0.444-0.181l11.568-11.568 2.37 2.389c0.113 0.125 0.275 0.194 0.444 0.2 0.169-0.006 0.325-0.075 0.444-0.2l7.216-7.222-0.006 2.783c0 0.35 0.275 0.632 0.625 0.644 0.35-0.006 0.625-0.294 0.625-0.644l0.006-4.29c0-0.344-0.281-0.632-0.625-0.632z">
            </path>
        </symbol>
        <symbol id="icon-logout---Copy" viewBox="0 0 32 32">
            <path fill="#fff" style="fill: var(--color1, #fff)" opacity="0.4"
                d="M2.667 8.596c0-3.268 2.707-5.929 6.033-5.929h6.615c3.319 0 6.019 2.653 6.019 5.916v14.821c0 3.269-2.707 5.929-6.034 5.929h-6.612c-3.32 0-6.021-2.653-6.021-5.916v-14.821z">
            </path>
            <path fill="#fff" style="fill: var(--color1, #fff)"
                d="M29.039 15.273l-3.794-3.879c-0.392-0.4-1.023-0.4-1.414 0.003-0.389 0.403-0.388 1.052 0.003 1.452l2.079 2.124h-13.18c-0.552 0-1 0.46-1 1.027 0 0.568 0.448 1.027 1 1.027h13.18l-2.079 2.124c-0.391 0.4-0.392 1.049-0.003 1.452 0.196 0.201 0.452 0.303 0.709 0.303 0.255 0 0.51-0.101 0.705-0.3l3.794-3.877c0.188-0.193 0.295-0.455 0.295-0.728 0-0.272-0.107-0.533-0.295-0.727z">
            </path>
        </symbol>
        <symbol id="icon-logout" viewBox="0 0 32 32">
            <path fill="#fff" style="fill: var(--color1, #fff)" opacity="0.4"
                d="M2.667 8.596c0-3.268 2.707-5.929 6.033-5.929h6.615c3.319 0 6.019 2.653 6.019 5.916v14.821c0 3.269-2.707 5.929-6.034 5.929h-6.612c-3.32 0-6.021-2.653-6.021-5.916v-14.821z">
            </path>
            <path fill="#fff" style="fill: var(--color1, #fff)"
                d="M29.039 15.273l-3.794-3.879c-0.392-0.4-1.023-0.4-1.414 0.003-0.389 0.403-0.388 1.052 0.003 1.452l2.079 2.124h-13.18c-0.552 0-1 0.46-1 1.027 0 0.568 0.448 1.027 1 1.027h13.18l-2.079 2.124c-0.391 0.4-0.392 1.049-0.003 1.452 0.196 0.201 0.452 0.303 0.709 0.303 0.255 0 0.51-0.101 0.705-0.3l3.794-3.877c0.188-0.193 0.295-0.455 0.295-0.728 0-0.272-0.107-0.533-0.295-0.727z">
            </path>
        </symbol>
        <symbol id="icon-menu" viewBox="0 0 32 32">
            <path fill="#fff" style="fill: var(--color1, #fff)"
                d="M30.75 14.75h-29.5c-0.69 0-1.25 0.56-1.25 1.25s0.56 1.25 1.25 1.25h29.5c0.69 0 1.25-0.56 1.25-1.25s-0.56-1.25-1.25-1.25z">
            </path>
            <path fill="#fff" style="fill: var(--color1, #fff)"
                d="M30.75 4.75h-29.5c-0.69 0-1.25 0.56-1.25 1.25s0.56 1.25 1.25 1.25h29.5c0.69 0 1.25-0.56 1.25-1.25s-0.56-1.25-1.25-1.25z">
            </path>
            <path fill="#fff" style="fill: var(--color1, #fff)"
                d="M30.75 24.75h-29.5c-0.69 0-1.25 0.56-1.25 1.25s0.56 1.25 1.25 1.25h29.5c0.69 0 1.25-0.56 1.25-1.25s-0.56-1.25-1.25-1.25z">
            </path>
        </symbol>
        <symbol id="icon-message-notification" viewBox="0 0 32 32">
            <path fill="none" stroke="#137c4b" style="stroke: var(--color5, #137c4b)" stroke-linejoin="miter"
                stroke-linecap="butt" stroke-miterlimit="4" stroke-width="1.0667"
                d="M8.533 0.533h14.933c4.418 0 8 3.582 8 8v14.933c0 4.418-3.582 8-8 8h-14.933c-4.418 0-8-3.582-8-8v-14.933c0-4.418 3.582-8 8-8z">
            </path>
            <path fill="#137c4b" style="fill: var(--color5, #137c4b)"
                d="M8 11.661v9.444c0 1.178 0.955 2.133 2.133 2.133h7.718c-0.049-0.343-0.074-0.695-0.074-1.055 0-3.495 2.388-6.328 5.333-6.328 0.303 0 0.6 0.030 0.889 0.088v-4.282c0-1.178-0.955-2.133-2.133-2.133h-11.733c-1.178 0-2.133 0.955-2.133 2.133zM21.462 11.468c0.324-0.207 0.729-0.063 0.903 0.322s0.053 0.864-0.271 1.071l-5.778 3.691c-0.197 0.126-0.435 0.126-0.632 0l-5.778-3.691c-0.324-0.207-0.445-0.687-0.271-1.071s0.579-0.529 0.903-0.322l5.462 3.489 5.462-3.489z">
            </path>
            <path fill="#137c4b" style="fill: var(--color5, #137c4b)" opacity="0.3"
                d="M22.664 24.294c1.227 0 2.222-1.18 2.222-2.637s-0.995-2.637-2.222-2.637c-1.227 0-2.222 1.181-2.222 2.637s0.995 2.637 2.222 2.637z">
            </path>
        </symbol>
        <symbol id="icon-message-notification-mobile" viewBox="0 0 32 32">
            <path fill="none" stroke="#e7ebed" style="stroke: var(--color1, #e7ebed)" stroke-linejoin="miter"
                stroke-linecap="butt" stroke-miterlimit="4" stroke-width="1.0667"
                d="M8.533 0.533h14.933c4.418 0 8 3.582 8 8v14.933c0 4.418-3.582 8-8 8h-14.933c-4.418 0-8-3.582-8-8v-14.933c0-4.418 3.582-8 8-8z">
            </path>
            <path fill="#e7ebed" style="fill: var(--color1, #e7ebed)"
                d="M8 11.661v9.444c0 1.178 0.955 2.133 2.133 2.133h7.718c-0.049-0.343-0.074-0.695-0.074-1.055 0-3.495 2.388-6.328 5.333-6.328 0.303 0 0.6 0.030 0.889 0.088v-4.282c0-1.178-0.955-2.133-2.133-2.133h-11.733c-1.178 0-2.133 0.955-2.133 2.133zM21.462 11.468c0.324-0.207 0.729-0.063 0.903 0.322s0.053 0.864-0.271 1.071l-5.778 3.691c-0.197 0.126-0.435 0.126-0.632 0l-5.778-3.691c-0.324-0.207-0.445-0.687-0.271-1.071s0.579-0.529 0.903-0.322l5.462 3.489 5.462-3.489z">
            </path>
            <path fill="#e7ebed" style="fill: var(--color1, #e7ebed)" opacity="0.3"
                d="M22.668 24.294c1.227 0 2.222-1.18 2.222-2.637s-0.995-2.637-2.222-2.637c-1.227 0-2.222 1.181-2.222 2.637s0.995 2.637 2.222 2.637z">
            </path>
        </symbol>
        <symbol id="icon-note" viewBox="0 0 32 32">
            <path fill="#fff" style="fill: var(--color1, #fff)" opacity="0.4"
                d="M21.588 2.667h-11.175c-4.053 0-6.413 2.373-6.413 6.44v13.773c0 4.133 2.36 6.453 6.413 6.453h11.175c4.119 0 6.412-2.32 6.412-6.453v-13.773c0-4.067-2.293-6.44-6.412-6.44z">
            </path>
            <path fill="#fff" style="fill: var(--color1, #fff)"
                d="M10.775 8.867v0.013c-0.575 0-1.040 0.467-1.040 1.040s0.465 1.040 1.040 1.040h3.985c0.575 0 1.041-0.467 1.041-1.055 0-0.572-0.467-1.039-1.041-1.039h-3.985zM21.228 16.987h-10.453c-0.575 0-1.040-0.467-1.040-1.040s0.465-1.041 1.040-1.041h10.453c0.573 0 1.040 0.468 1.040 1.041s-0.467 1.040-1.040 1.040zM21.228 23.080h-10.453c-0.4 0.053-0.787-0.147-1-0.48-0.213-0.347-0.213-0.787 0-1.12 0.213-0.347 0.6-0.533 1-0.493h10.453c0.532 0.053 0.933 0.507 0.933 1.053 0 0.532-0.401 0.987-0.933 1.040z">
            </path>
        </symbol>
        <symbol id="icon-note-folded" viewBox="0 0 32 32">
            <path fill="#fff" style="fill: var(--color1, #fff)" opacity="0.4"
                d="M25.078 12.028c-0.602 0-1.399-0.013-2.392-0.013-2.421 0-4.412-2.004-4.412-4.448v-4.288c0-0.337-0.269-0.612-0.603-0.612h-7.053c-3.291 0-5.952 2.701-5.952 6.012v14.367c0 3.473 2.787 6.288 6.226 6.288h10.502c3.279 0 5.938-2.684 5.938-5.997v-10.708c0-0.339-0.268-0.612-0.603-0.611-0.564 0.004-1.24 0.011-1.652 0.011z">
            </path>
            <path fill="#fff" style="fill: var(--color1, #fff)" opacity="0.4"
                d="M21.446 3.423c-0.399-0.415-1.095-0.129-1.095 0.445v3.516c0 1.475 1.215 2.688 2.689 2.688 0.929 0.011 2.22 0.013 3.316 0.011 0.561-0.001 0.847-0.672 0.457-1.077-1.407-1.463-3.925-4.084-5.368-5.583z">
            </path>
            <path fill="#fff" style="fill: var(--color1, #fff)"
                d="M11.966 15.183h4.513c0.548 0 0.993-0.444 0.993-0.992s-0.445-0.993-0.993-0.993h-4.513c-0.548 0-0.992 0.445-0.992 0.993s0.444 0.992 0.992 0.992zM11.966 21.842h7.259c0.548 0 0.993-0.444 0.993-0.992s-0.445-0.993-0.993-0.993h-7.259c-0.548 0-0.992 0.445-0.992 0.993s0.444 0.992 0.992 0.992z">
            </path>
        </symbol>
        <symbol id="icon-notification" viewBox="0 0 32 32">
            <path fill="#fff" style="fill: var(--color1, #fff)"
                d="M26.359 15.527c-0.974-1.137-1.417-2.123-1.417-3.798v-0.569c0-2.182-0.502-3.588-1.594-4.994-1.683-2.183-4.516-3.499-7.29-3.499h-0.118c-2.715 0-5.46 1.256-7.172 3.35-1.152 1.434-1.712 2.901-1.712 5.143v0.569c0 1.675-0.413 2.66-1.417 3.798-0.738 0.838-0.974 1.915-0.974 3.081 0 1.167 0.383 2.272 1.152 3.171 1.003 1.077 2.42 1.764 3.867 1.884 2.095 0.239 4.19 0.329 6.316 0.329 2.124 0 4.219-0.15 6.316-0.329 1.446-0.12 2.862-0.807 3.865-1.884 0.767-0.898 1.152-2.004 1.152-3.171 0-1.166-0.236-2.243-0.974-3.081z">
            </path>
            <path fill="#fff" style="fill: var(--color1, #fff)" opacity="0.4"
                d="M18.677 25.638c-0.667-0.142-4.728-0.142-5.395 0-0.57 0.132-1.186 0.438-1.186 1.109 0.033 0.641 0.408 1.206 0.928 1.564l-0.001 0.001c0.672 0.524 1.46 0.857 2.286 0.976 0.44 0.060 0.888 0.058 1.344 0 0.824-0.119 1.613-0.453 2.285-0.976l-0.001-0.001c0.519-0.359 0.894-0.924 0.928-1.564 0-0.671-0.616-0.978-1.186-1.109z">
            </path>
        </symbol>
        <symbol id="icon-planvest-logo" viewBox="0 0 157 32">
            <path fill="#fff" style="fill: var(--color1, #fff)" d="M0 0l15.267 5.804v11.609l-15.267-5.805v-11.609z">
            </path>
            <path fill="#fff" style="fill: var(--color1, #fff)" d="M0 13.88l15.267 5.805v11.609l-15.267-5.805v-11.609z">
            </path>
            <path fill="#9d9d9c" style="fill: var(--color7, #9d9d9c)"
                d="M30.408 0l-15.141 5.804v11.609l15.141-5.805v-11.609z"></path>
            <path fill="#fff" style="fill: var(--color1, #fff)"
                d="M36.463 5.805h9.085c2.397 0 4.29 0.631 5.678 1.893s2.145 3.028 2.145 5.3c0 2.271-0.757 4.038-2.145 5.3s-3.281 1.893-5.678 1.893h-3.785v6.183h-5.173v-20.569h-0.126zM44.665 15.774c1.009 0 1.893-0.252 2.397-0.631 0.631-0.379 0.883-1.136 0.883-2.271s-0.252-1.767-0.883-2.145c-0.631-0.379-1.388-0.631-2.523-0.631h-3.028v5.678h3.154z">
            </path>
            <path fill="#fff" style="fill: var(--color1, #fff)" d="M55.264 4.543h5.173v21.704h-5.173v-21.704z"></path>
            <path fill="#fff" style="fill: var(--color1, #fff)"
                d="M64.22 25.364c-1.136-0.883-1.64-2.019-1.64-3.533 0-1.64 0.505-2.776 1.514-3.659s2.523-1.262 4.542-1.262c0.757 0 1.514 0.126 2.271 0.252s1.388 0.378 2.019 0.631v-0.252c0-1.514-1.262-2.271-3.659-2.271-1.766 0-3.281 0.379-4.668 1.009v-3.533c0.631-0.252 1.388-0.505 2.523-0.757 1.009-0.126 2.019-0.252 3.154-0.252 2.65 0 4.542 0.505 5.93 1.514s2.019 2.524 2.019 4.416v8.581h-4.795v-1.262c-0.505 0.505-1.136 0.883-2.019 1.262-0.757 0.252-1.767 0.379-2.776 0.379-1.893 0-3.281-0.378-4.416-1.262zM71.664 23.093c0.505-0.252 0.883-0.505 1.262-1.009v-1.262c-0.883-0.505-1.766-0.883-2.902-0.883-0.631 0-1.262 0.126-1.64 0.379s-0.505 0.757-0.505 1.262 0.126 0.883 0.505 1.262c0.378 0.252 0.883 0.379 1.514 0.379 0.757 0.252 1.262 0.126 1.767-0.126z">
            </path>
            <path fill="#fff" style="fill: var(--color1, #fff)"
                d="M80.751 12.113h4.921v1.514c0.631-0.631 1.388-1.136 2.145-1.514 0.883-0.379 1.767-0.505 2.65-0.505 2.019 0 3.407 0.505 4.416 1.514s1.388 2.397 1.388 4.164v8.833h-5.173v-8.076c0-1.64-0.757-2.398-2.145-2.398-0.631 0-1.262 0.126-1.767 0.505-0.505 0.252-1.009 0.757-1.388 1.388v8.581h-5.173v-14.007h0.126z">
            </path>
            <path fill="#fff" style="fill: var(--color1, #fff)"
                d="M97.659 12.114h5.173l3.154 8.202 3.154-8.202h5.173l-5.93 14.007h-4.921l-5.804-14.007z"></path>
            <path fill="#fff" style="fill: var(--color1, #fff)"
                d="M116.713 24.733c-1.514-1.262-2.397-3.155-2.397-5.426s0.757-4.164 2.145-5.552c1.388-1.388 3.407-2.019 6.056-2.019 1.64 0 3.154 0.379 4.29 1.010 1.262 0.631 2.145 1.514 2.776 2.65s0.883 2.398 0.883 3.786v1.893h-11.23c0.252 0.757 0.631 1.388 1.514 1.64 0.757 0.378 1.893 0.505 3.154 0.505 0.883 0 1.893-0.126 2.776-0.253 1.009-0.126 1.766-0.378 2.523-0.631v3.407c-0.757 0.252-1.64 0.505-2.65 0.757-1.136 0.126-2.145 0.252-3.281 0.252-2.776-0.126-4.921-0.757-6.561-2.019zM125.671 17.667c-0.126-0.757-0.378-1.388-0.883-1.767s-1.262-0.631-2.271-0.631c-0.883 0-1.64 0.252-2.271 0.631-0.505 0.379-0.883 1.010-0.883 1.767h6.309z">
            </path>
            <path fill="#fff" style="fill: var(--color1, #fff)"
                d="M135.258 26.372c-1.262-0.252-2.145-0.505-2.902-1.010v-3.785c0.757 0.505 1.766 0.883 2.902 1.136s2.145 0.505 3.028 0.505c0.631 0 1.136-0 1.514-0.126 0.252-0.126 0.505-0.253 0.505-0.631 0-0.252-0.126-0.379-0.252-0.631-0.252-0.126-0.631-0.252-1.136-0.505-0.505-0.126-1.136-0.379-1.893-0.505-1.136-0.379-2.145-0.757-2.776-1.136s-1.136-0.883-1.514-1.388c-0.379-0.505-0.505-1.262-0.505-2.145 0-1.514 0.631-2.65 1.767-3.407 1.262-0.757 2.902-1.136 4.921-1.136 1.009 0 2.145 0.126 3.154 0.379 1.136 0.252 2.019 0.505 2.524 0.883v3.659c-0.631-0.378-1.388-0.757-2.271-1.009-1.009-0.252-1.893-0.378-2.65-0.378-0.631 0-1.136 0.126-1.514 0.252s-0.505 0.379-0.505 0.631 0.126 0.505 0.505 0.631c0.378 0.126 1.009 0.378 2.019 0.631 0.631 0.126 0.883 0.253 0.757 0.253 1.262 0.379 2.271 0.757 2.902 1.136s1.136 0.884 1.388 1.388c0.253 0.505 0.378 1.262 0.378 2.145 0 1.388-0.63 2.398-1.766 3.155s-2.902 1.136-5.047 1.136c-1.136 0.126-2.397 0.126-3.533-0.126z">
            </path>
            <path fill="#fff" style="fill: var(--color1, #fff)"
                d="M149.517 25.237c-0.883-1.010-1.388-2.271-1.388-3.912v-5.552h-2.019v-3.533h2.019v-4.164h5.174v4.164h3.28v3.533h-3.28v4.795c0 0.757 0.125 1.262 0.378 1.641 0.252 0.378 0.756 0.505 1.514 0.505 0.631 0 1.261-0.126 1.892-0.505v3.786c-0.505 0.252-1.009 0.379-1.641 0.505-0.63 0.126-1.261 0.126-2.144 0.126-1.641 0-2.902-0.378-3.786-1.388z">
            </path>
        </symbol>
        <symbol id="icon-plus" viewBox="0 0 32 32">
            <path fill="none" stroke="#137c4b" style="stroke: var(--color5, #137c4b)" stroke-linejoin="round"
                stroke-linecap="round" stroke-miterlimit="4" stroke-width="3.5556" d="M16 6.667v18.667"></path>
            <path fill="none" stroke="#137c4b" style="stroke: var(--color5, #137c4b)" stroke-linejoin="round"
                stroke-linecap="round" stroke-miterlimit="4" stroke-width="3.5556" d="M6.667 16h18.667"></path>
        </symbol>
        <symbol id="icon-power" viewBox="0 0 27 32">
            <path fill="#137c4b" style="fill: var(--color5, #137c4b)"
                d="M13.713 11.964c0.513 0 0.915-0.376 0.915-0.855v-10.255c0-0.479-0.403-0.855-0.915-0.855s-0.915 0.376-0.915 0.855v10.255c0 0.479 0.403 0.855 0.915 0.855z">
            </path>
            <path fill="#137c4b" style="fill: var(--color5, #137c4b)"
                d="M13.714 30.531c3.662 0 7.104-1.428 9.704-4.028 5.347-5.347 5.347-14.062 0-19.408-0.366-0.366-0.952-0.366-1.282 0-0.366 0.366-0.366 0.952 0 1.282 4.651 4.651 4.651 12.194 0 16.845-2.234 2.234-5.237 3.479-8.423 3.479s-6.152-1.245-8.423-3.479c-4.651-4.651-4.651-12.194 0-16.845 0.366-0.366 0.366-0.952 0-1.282-0.366-0.366-0.952-0.366-1.282 0-5.347 5.347-5.347 14.062 0 19.408 2.6 2.6 6.043 4.028 9.705 4.028h-0z">
            </path>
        </symbol>
        <symbol id="icon-transfer" viewBox="0 0 48 32">
            <path fill="#c0be30" style="fill: var(--color8, #c0be30)"
                d="M31.22 30.378v-7.027h-13.514c-9.239 0-16.757-7.518-16.757-16.757v-3.243c0-0.895 0.727-1.622 1.622-1.622s1.622 0.726 1.622 1.622c0 6.259 5.092 11.351 11.351 11.351h15.676v-7.027c0-1.421 1.71-2.158 2.742-1.172l11.892 11.351c0.32 0.305 0.502 0.729 0.502 1.172s-0.182 0.867-0.502 1.172l-11.892 11.351c-1.031 0.982-2.742 0.251-2.742-1.172z">
            </path>
        </symbol>
        <symbol id="icon-upload-green" viewBox="0 0 32 32">
            <path fill="#137c4b" style="fill: var(--color5, #137c4b)" opacity="0.6"
                d="M10.184 4.527c-3.436 0-5.656 2.356-5.656 5.991v10.952c0 1.020 0.189 1.931 0.513 2.719 0.014-0.017 0.319-0.389 0.717-0.874 0.778-0.948 1.911-2.328 1.919-2.335 0.923-1.053 2.655-2.624 4.928-1.673 0.498 0.207 0.941 0.49 1.348 0.75 0.040 0.025 0.079 0.050 0.118 0.075 0.764 0.511 1.213 0.751 1.68 0.711 0.193-0.027 0.375-0.084 0.547-0.191 0.649-0.4 2.331-2.784 2.835-3.497 0.074-0.105 0.122-0.173 0.139-0.195 1.453-1.893 3.693-2.4 5.56-1.28 0.251 0.149 2.047 1.404 2.641 1.908v-7.069c0-3.635-2.22-5.991-5.668-5.991h-11.621zM21.805 2.667c4.503 0 7.528 3.149 7.528 7.851v10.952c0 0.118-0.012 0.229-0.025 0.34-0.009 0.078-0.017 0.156-0.022 0.236-0.003 0.049-0.004 0.097-0.006 0.146-0.002 0.065-0.004 0.13-0.009 0.194-0.003 0.025-0.008 0.050-0.013 0.074s-0.010 0.049-0.013 0.074c-0.044 0.419-0.112 0.819-0.207 1.207-0.022 0.097-0.048 0.191-0.074 0.285l-0.006 0.020c-0.107 0.376-0.232 0.735-0.383 1.077-0.026 0.058-0.054 0.114-0.082 0.17-0.019 0.037-0.037 0.075-0.055 0.113-0.163 0.327-0.339 0.64-0.543 0.931-0.038 0.054-0.078 0.104-0.118 0.155-0.027 0.033-0.053 0.067-0.079 0.101-0.212 0.275-0.433 0.537-0.684 0.776-0.050 0.048-0.104 0.091-0.158 0.135-0.034 0.027-0.068 0.054-0.1 0.083-0.257 0.221-0.52 0.433-0.809 0.615-0.063 0.040-0.13 0.073-0.197 0.106-0.043 0.021-0.086 0.043-0.128 0.066-0.295 0.163-0.592 0.321-0.916 0.444-0.078 0.030-0.161 0.051-0.244 0.072-0.059 0.015-0.118 0.031-0.176 0.049-0.029 0.009-0.058 0.018-0.086 0.027-0.289 0.090-0.578 0.18-0.89 0.233-0.181 0.032-0.372 0.044-0.564 0.056-0.083 0.005-0.166 0.011-0.248 0.017-0.088 0.007-0.175 0.017-0.262 0.028-0.141 0.017-0.282 0.035-0.432 0.035h-11.621c-0.501 0-0.98-0.051-1.443-0.127-0.017-0.003-0.033-0.005-0.049-0.008-1.804-0.311-3.301-1.181-4.351-2.495-0.007 0-0.010-0.005-0.014-0.012-0.002-0.004-0.005-0.009-0.010-0.014-1.055-1.328-1.651-3.113-1.651-5.209v-10.952c0-4.701 3.028-7.851 7.517-7.851h11.621zM14.668 11.353c0 1.807-1.512 3.313-3.327 3.313-1.596 0-2.956-1.166-3.261-2.675-0.050-0.226-0.079-0.459-0.079-0.7 0-1.819 1.478-3.292 3.305-3.292 0.93 0 1.773 0.391 2.376 1.015 0.606 0.602 0.986 1.432 0.986 2.338z">
            </path>
        </symbol>
        <symbol id="icon-upload-grey" viewBox="0 0 32 32">
            <path fill="#666668" style="fill: var(--color2, #666668)" opacity="0.6"
                d="M10.181 4.527c-3.436 0-5.656 2.356-5.656 5.991v10.952c0 1.020 0.189 1.931 0.513 2.719 0.014-0.017 0.319-0.389 0.718-0.874 0.778-0.948 1.91-2.328 1.918-2.335 0.923-1.053 2.655-2.624 4.928-1.673 0.498 0.207 0.941 0.489 1.349 0.75 0.040 0.025 0.079 0.050 0.118 0.075 0.764 0.511 1.213 0.751 1.68 0.711 0.193-0.027 0.375-0.084 0.547-0.191 0.649-0.4 2.331-2.784 2.835-3.497 0.074-0.105 0.122-0.173 0.139-0.195 1.453-1.893 3.693-2.4 5.56-1.28 0.251 0.149 2.047 1.404 2.641 1.908v-7.069c0-3.635-2.22-5.991-5.668-5.991h-11.621zM21.802 2.667c4.503 0 7.528 3.149 7.528 7.851v10.952c0 0.118-0.012 0.229-0.025 0.34-0.009 0.078-0.017 0.156-0.022 0.236-0.003 0.049-0.004 0.097-0.006 0.146-0.002 0.065-0.004 0.129-0.009 0.194-0.003 0.025-0.008 0.050-0.013 0.074s-0.010 0.049-0.013 0.074c-0.044 0.419-0.112 0.819-0.207 1.207-0.022 0.097-0.048 0.191-0.074 0.285l-0.006 0.021c-0.107 0.376-0.232 0.735-0.383 1.077-0.026 0.058-0.054 0.114-0.082 0.17-0.019 0.037-0.037 0.075-0.055 0.113-0.163 0.327-0.339 0.64-0.543 0.931-0.038 0.054-0.078 0.104-0.118 0.155-0.027 0.033-0.053 0.067-0.079 0.101-0.212 0.275-0.433 0.537-0.684 0.776-0.050 0.048-0.104 0.091-0.158 0.135-0.034 0.027-0.068 0.054-0.1 0.083-0.257 0.221-0.52 0.433-0.809 0.615-0.063 0.040-0.13 0.073-0.197 0.106-0.043 0.022-0.086 0.043-0.128 0.066-0.295 0.163-0.592 0.321-0.916 0.444-0.078 0.030-0.161 0.051-0.244 0.073-0.059 0.015-0.118 0.031-0.176 0.049-0.029 0.009-0.058 0.018-0.086 0.027-0.289 0.090-0.578 0.18-0.89 0.233-0.181 0.032-0.372 0.044-0.564 0.056-0.083 0.005-0.166 0.011-0.248 0.017-0.088 0.007-0.175 0.017-0.262 0.028-0.141 0.017-0.282 0.035-0.432 0.035h-11.621c-0.501 0-0.98-0.051-1.443-0.127-0.017-0.003-0.033-0.005-0.049-0.008-1.804-0.311-3.301-1.181-4.351-2.495-0.007 0-0.010-0.005-0.014-0.011-0.002-0.004-0.005-0.009-0.010-0.014-1.055-1.328-1.651-3.113-1.651-5.209v-10.952c0-4.701 3.028-7.851 7.517-7.851h11.621zM14.664 11.353c0 1.807-1.512 3.313-3.327 3.313-1.596 0-2.956-1.166-3.261-2.675-0.050-0.226-0.079-0.459-0.079-0.7 0-1.819 1.478-3.292 3.305-3.292 0.93 0 1.773 0.391 2.376 1.015 0.606 0.602 0.986 1.432 0.986 2.338z">
            </path>
        </symbol>
        <symbol id="icon-wallet" viewBox="0 0 32 32">
            <path fill="#fff" style="fill: var(--color1, #fff)"
                d="M29.329 11.167h-5.646c-2.628 0.005-4.756 2.080-4.761 4.642-0.004 2.568 2.127 4.652 4.761 4.656h5.651v0.408c0 4.479-2.715 7.128-7.31 7.128h-12.045c-4.596 0-7.311-2.649-7.311-7.128v-9.755c0-4.479 2.715-7.117 7.311-7.117h12.040c4.595 0 7.31 2.638 7.31 7.117v0.050zM8.986 11.156h7.534c0.563-0.002 1.018-0.45 1.016-1-0.002-0.549-0.462-0.993-1.025-0.99h-7.525c-0.559 0.002-1.013 0.445-1.016 0.991-0.002 0.549 0.453 0.996 1.016 0.998z">
            </path>
            <path fill="#fff" style="fill: var(--color1, #fff)" opacity="0.4"
                d="M21.383 16.395c0.279 1.268 1.391 2.161 2.66 2.137h4.333c0.528 0 0.957-0.437 0.957-0.978v-3.375c-0.001-0.54-0.428-0.978-0.957-0.979h-4.435c-1.444 0.005-2.61 1.203-2.608 2.68 0 0.173 0.017 0.346 0.050 0.515z">
            </path>
            <path fill="#fff" style="fill: var(--color1, #fff)"
                d="M25.333 15.867c0 0.736-0.597 1.333-1.333 1.333s-1.333-0.597-1.333-1.333c0-0.736 0.597-1.333 1.333-1.333s1.333 0.597 1.333 1.333z">
            </path>
        </symbol>
    </defs>
</svg>