<svg width="557" height="602" viewBox="0 0 557 602" fill="none" xmlns="http://www.w3.org/2000/svg">
<path d="M100.787 462.88L13.5136 187.43L247.263 209.62L100.787 462.88Z" stroke="url(#paint0_linear_55_1764)" stroke-width="8" stroke-miterlimit="10"/>
<path d="M250.363 201.878L19.4245 179.955L274.653 8.99911L250.363 201.878Z" stroke="url(#paint1_linear_55_1764)" stroke-width="8" stroke-miterlimit="10"/>
<path d="M282.869 7.78319L525.246 173.101L258.447 201.711L282.869 7.78319Z" stroke="url(#paint2_linear_55_1764)" stroke-width="8" stroke-miterlimit="10"/>
<path d="M20.538 245.463L87.4444 456.633L37.0663 423.975L20.538 245.463ZM7.87503 182.877L30.5665 427.912L99.7177 472.735L7.87503 182.877Z" fill="url(#paint3_linear_55_1764)"/>
<path d="M414.765 472.129L286.139 596.817L112.262 476.546L414.765 472.129Z" stroke="url(#paint4_linear_55_1764)" stroke-width="8" stroke-miterlimit="10"/>
<path d="M106.705 468.626L254.053 213.859L417.469 464.088L106.705 468.626Z" stroke="url(#paint5_linear_55_1764)" stroke-width="8" stroke-miterlimit="10"/>
<path d="M536.477 175.92L424.789 467.982L253.847 206.227L536.477 175.92Z" stroke="url(#paint6_linear_55_1764)" stroke-miterlimit="10"/>
<path d="M532.153 206.359L549.486 414.098L436.585 456.283L532.153 206.359ZM536.471 175.914L424.79 467.982L556.733 418.688L536.471 175.914Z" fill="url(#paint7_linear_55_1764)"/>
<path d="M347.709 552.232L428.532 473.887L505.681 445.064L347.715 552.226M286.57 601.969L556.739 418.682L424.796 467.976L286.57 601.969Z" fill="url(#paint8_linear_55_1764)"/>
<path style="mix-blend-mode:color-dodge" d="M278.496 0.627117L252.564 206.05L255.023 206.362L280.955 0.939679L278.496 0.627117Z" fill="url(#paint9_linear_55_1764)" stroke="url(#paint10_linear_55_1764)" stroke-miterlimit="10"/>
<path style="mix-blend-mode:color-dodge" d="M8.01389 181.645L7.78259 184.104L253.747 207.465L253.979 205.006L8.01389 181.645Z" stroke="url(#paint11_linear_55_1764)" stroke-miterlimit="10"/>
<g style="mix-blend-mode:color-dodge">
<path d="M7.77875 183.807L8.50372 183.578L99.82 471.798L99.095 472.028L7.77875 183.807ZM6.70294 183.251L98.5396 473.103L100.896 472.355L9.0531 182.509L6.70294 183.251Z" fill="url(#paint12_linear_55_1764)"/>
</g>
<path style="mix-blend-mode:color-dodge" d="M252.805 205.627L98.6064 472.093L100.744 473.331L254.942 206.865L252.805 205.627Z" fill="url(#paint13_linear_55_1764)" stroke="url(#paint14_linear_55_1764)" stroke-miterlimit="10"/>
<path style="mix-blend-mode:color-dodge" d="M99.6968 471.5L99.735 473.969L424.816 469.237L424.778 466.767L99.6968 471.5Z" fill="url(#paint15_linear_55_1764)" stroke="url(#paint16_linear_55_1764)" stroke-miterlimit="10"/>
<path style="mix-blend-mode:color-dodge" d="M252.947 206.792L423.589 468.752L425.665 467.401L255.023 205.441L252.947 206.792Z" fill="url(#paint17_linear_55_1764)" stroke="url(#paint18_linear_55_1764)" stroke-miterlimit="10"/>
<path style="mix-blend-mode:color-dodge" d="M253.684 204.985L253.951 207.449L536.583 177.121L536.316 174.657L253.684 204.985Z" fill="url(#paint19_linear_55_1764)" stroke="url(#paint20_linear_55_1764)" stroke-miterlimit="10"/>
<defs>
<linearGradient id="paint0_linear_55_1764" x1="-28.801" y1="265.532" x2="204.902" y2="351.562" gradientUnits="userSpaceOnUse">
<stop stop-color="#3B4F22"/>
<stop offset="1" stop-color="#92CC3E"/>
</linearGradient>
<linearGradient id="paint1_linear_55_1764" x1="46.1497" y1="54.5781" x2="282.047" y2="141.412" gradientUnits="userSpaceOnUse">
<stop stop-color="#3B4F22"/>
<stop offset="1" stop-color="#92CC3E"/>
</linearGradient>
<linearGradient id="paint2_linear_55_1764" x1="240.521" y1="93.984" x2="536.946" y2="203.106" gradientUnits="userSpaceOnUse">
<stop stop-color="#3B4F22"/>
<stop offset="1" stop-color="#92CC3E"/>
</linearGradient>
<linearGradient id="paint3_linear_55_1764" x1="-33.6031" y1="295.566" x2="141.24" y2="359.925" gradientUnits="userSpaceOnUse">
<stop stop-color="#3B4F22"/>
<stop offset="1" stop-color="#92CC3E"/>
</linearGradient>
<linearGradient id="paint4_linear_55_1764" x1="100.035" y1="439.46" x2="401.683" y2="550.502" gradientUnits="userSpaceOnUse">
<stop stop-color="#3B4F22"/>
<stop offset="1" stop-color="#92CC3E"/>
</linearGradient>
<linearGradient id="paint5_linear_55_1764" x1="148.106" y1="328.531" x2="443.57" y2="437.297" gradientUnits="userSpaceOnUse">
<stop stop-color="#3B4F22"/>
<stop offset="1" stop-color="#92CC3E"/>
</linearGradient>
<linearGradient id="paint6_linear_55_1764" x1="242.663" y1="234.241" x2="482.912" y2="322.68" gradientUnits="userSpaceOnUse">
<stop stop-color="#3B4F22"/>
<stop offset="1" stop-color="#92CC3E"/>
</linearGradient>
<linearGradient id="paint7_linear_55_1764" x1="478.802" y1="321.273" x2="579.015" y2="358.169" gradientUnits="userSpaceOnUse">
<stop stop-color="#3B4F22"/>
<stop offset="1" stop-color="#92CC3E"/>
</linearGradient>
<linearGradient id="paint8_linear_55_1764" x1="332.418" y1="477.415" x2="510.925" y2="543.125" gradientUnits="userSpaceOnUse">
<stop stop-color="#3B4F22"/>
<stop offset="1" stop-color="#92CC3E"/>
</linearGradient>
<linearGradient id="paint9_linear_55_1764" x1="250.138" y1="205.703" x2="283.464" y2="1.39982" gradientUnits="userSpaceOnUse">
<stop stop-color="#89C149"/>
<stop offset="0.16" stop-color="#72A03C"/>
<stop offset="1"/>
</linearGradient>
<linearGradient id="paint10_linear_55_1764" x1="243.257" y1="94.8436" x2="290.299" y2="112.162" gradientUnits="userSpaceOnUse">
<stop stop-color="#3B4F22"/>
<stop offset="1" stop-color="#92CC3E"/>
</linearGradient>
<linearGradient id="paint11_linear_55_1764" x1="18.0262" y1="152.916" x2="243.78" y2="236.018" gradientUnits="userSpaceOnUse">
<stop stop-color="#3B4F22"/>
<stop offset="1" stop-color="#92CC3E"/>
</linearGradient>
<linearGradient id="paint12_linear_55_1764" x1="-34.5218" y1="295.228" x2="142.159" y2="360.262" gradientUnits="userSpaceOnUse">
<stop stop-color="#3B4F22"/>
<stop offset="1" stop-color="#92CC3E"/>
</linearGradient>
<linearGradient id="paint13_linear_55_1764" x1="153.653" y1="481.943" x2="200.134" y2="196.991" gradientUnits="userSpaceOnUse">
<stop stop-color="#89C149"/>
<stop offset="0.16" stop-color="#72A03C"/>
<stop offset="1"/>
</linearGradient>
<linearGradient id="paint14_linear_55_1764" x1="150.511" y1="329.785" x2="203.065" y2="349.132" gradientUnits="userSpaceOnUse">
<stop stop-color="#3B4F22"/>
<stop offset="1" stop-color="#92CC3E"/>
</linearGradient>
<linearGradient id="paint15_linear_55_1764" x1="257.509" y1="499.642" x2="267.08" y2="440.968" gradientUnits="userSpaceOnUse">
<stop stop-color="#89C149"/>
<stop offset="0.16" stop-color="#72A03C"/>
<stop offset="1"/>
</linearGradient>
<linearGradient id="paint16_linear_55_1764" x1="118.997" y1="417.497" x2="405.617" y2="523.008" gradientUnits="userSpaceOnUse">
<stop stop-color="#3B4F22"/>
<stop offset="1" stop-color="#92CC3E"/>
</linearGradient>
<linearGradient id="paint17_linear_55_1764" x1="320.657" y1="451.84" x2="358.086" y2="222.391" gradientUnits="userSpaceOnUse">
<stop/>
<stop offset="0.84" stop-color="#72A03C"/>
<stop offset="1" stop-color="#89C149"/>
</linearGradient>
<linearGradient id="paint18_linear_55_1764" x1="220.381" y1="293.231" x2="458.297" y2="380.813" gradientUnits="userSpaceOnUse">
<stop stop-color="#3B4F22"/>
<stop offset="1" stop-color="#92CC3E"/>
</linearGradient>
<linearGradient id="paint19_linear_55_1764" x1="388.852" y1="229.504" x2="401.378" y2="152.718" gradientUnits="userSpaceOnUse">
<stop stop-color="#89C149"/>
<stop offset="0.16" stop-color="#72A03C"/>
<stop offset="1"/>
</linearGradient>
<linearGradient id="paint20_linear_55_1764" x1="274.575" y1="146.606" x2="515.756" y2="235.396" gradientUnits="userSpaceOnUse">
<stop stop-color="#3B4F22"/>
<stop offset="1" stop-color="#92CC3E"/>
</linearGradient>
</defs>
</svg>
