<svg width="507" height="617" viewBox="0 0 507 617" fill="none" xmlns="http://www.w3.org/2000/svg">
<path d="M57.0953 324.316L158.236 53.6499L328.575 215.254L57.0953 324.316Z" stroke="url(#paint0_linear_102_15)" stroke-width="8" stroke-miterlimit="10"/>
<path d="M335.789 211.07L167.498 51.41L473.844 74.2014L335.789 211.07Z" stroke="url(#paint1_linear_102_15)" stroke-width="8" stroke-miterlimit="10"/>
<path d="M481.062 78.3105L569.939 357.914L342.257 215.923L481.062 78.3105Z" stroke="url(#paint2_linear_102_15)" stroke-width="8" stroke-miterlimit="10"/>
<path d="M127.981 103.669L50.4434 311.17L30.92 254.396L127.981 103.669ZM156.604 46.5884L23.3755 253.487L50.1766 331.415L156.604 46.5884Z" fill="url(#paint3_linear_102_15)"/>
<path d="M298.575 525.202L120.427 544.051L57.7019 342.15L298.575 525.202Z" stroke="url(#paint4_linear_102_15)" stroke-width="8" stroke-miterlimit="10"/>
<path d="M58.2111 332.489L331.307 222.778L305.662 520.539L58.2111 332.489Z" stroke="url(#paint5_linear_102_15)" stroke-width="8" stroke-miterlimit="10"/>
<path d="M577.043 367.058L309.024 528.118L335.85 216.642L577.043 367.058Z" stroke="url(#paint6_linear_102_15)" stroke-miterlimit="10"/>
<path d="M554.868 388.355L440.418 562.588L325.524 526.182L554.868 388.355ZM577.041 367.049L309.024 528.118L443.294 570.67L577.041 367.049Z" fill="url(#paint7_linear_102_15)"/>
<path d="M196.391 546.916L308.329 535.075L386.838 559.955L196.399 546.915M117.59 548.373L443.302 570.668L309.032 528.117L117.59 548.373Z" fill="url(#paint8_linear_102_15)"/>
<path style="mix-blend-mode:color-dodge" d="M482.033 69.9807L334.95 215.712L336.693 217.474L483.776 71.7428L482.033 69.9807Z" fill="url(#paint9_linear_102_15)" stroke="url(#paint10_linear_102_15)" stroke-miterlimit="10"/>
<path style="mix-blend-mode:color-dodge" d="M157.473 45.7046L155.775 47.4974L335.009 217.555L336.707 215.762L157.473 45.7046Z" stroke="url(#paint11_linear_102_15)" stroke-miterlimit="10"/>
<g style="mix-blend-mode:color-dodge">
<path d="M155.955 47.2616L156.667 47.5281L50.8346 330.74L50.1225 330.474L155.955 47.2616ZM155.451 46.1602L49.0222 330.978L51.3385 331.842L157.759 47.0251L155.451 46.1602Z" fill="url(#paint12_linear_102_15)"/>
</g>
<path style="mix-blend-mode:color-dodge" d="M335.4 215.527L49.6976 330.224L50.617 332.517L336.319 217.82L335.4 215.527Z" fill="url(#paint13_linear_102_15)" stroke="url(#paint14_linear_102_15)" stroke-miterlimit="10"/>
<path style="mix-blend-mode:color-dodge" d="M50.9217 330.43L49.4291 332.397L308.271 529.123L309.764 527.155L50.9217 330.43Z" fill="url(#paint15_linear_102_15)" stroke="url(#paint16_linear_102_15)" stroke-miterlimit="10"/>
<path style="mix-blend-mode:color-dodge" d="M334.793 216.532L307.604 527.984L310.072 528.201L337.261 216.748L334.793 216.532Z" fill="url(#paint17_linear_102_15)" stroke="url(#paint18_linear_102_15)" stroke-miterlimit="10"/>
<path style="mix-blend-mode:color-dodge" d="M336.488 215.564L335.179 217.668L576.385 368.069L577.694 365.965L336.488 215.564Z" fill="url(#paint19_linear_102_15)" stroke="url(#paint20_linear_102_15)" stroke-miterlimit="10"/>
<defs>
<linearGradient id="paint0_linear_102_15" x1="76.7641" y1="89.0446" x2="207.701" y2="300.879" gradientUnits="userSpaceOnUse">
<stop stop-color="#3B4F22"/>
<stop offset="1" stop-color="#92CC3E"/>
</linearGradient>
<linearGradient id="paint1_linear_102_15" x1="265.848" y1="-30.8152" x2="398.018" y2="183.004" gradientUnits="userSpaceOnUse">
<stop stop-color="#3B4F22"/>
<stop offset="1" stop-color="#92CC3E"/>
</linearGradient>
<linearGradient id="paint2_linear_102_15" x1="394.57" y1="120.06" x2="560.648" y2="388.749" gradientUnits="userSpaceOnUse">
<stop stop-color="#3B4F22"/>
<stop offset="1" stop-color="#92CC3E"/>
</linearGradient>
<linearGradient id="paint3_linear_102_15" x1="54.4637" y1="109.728" x2="152.427" y2="268.207" gradientUnits="userSpaceOnUse">
<stop stop-color="#3B4F22"/>
<stop offset="1" stop-color="#92CC3E"/>
</linearGradient>
<linearGradient id="paint4_linear_102_15" x1="70.9445" y1="305.414" x2="239.95" y2="578.835" gradientUnits="userSpaceOnUse">
<stop stop-color="#3B4F22"/>
<stop offset="1" stop-color="#92CC3E"/>
</linearGradient>
<linearGradient id="paint5_linear_102_15" x1="177.19" y1="247.726" x2="342.73" y2="515.541" gradientUnits="userSpaceOnUse">
<stop stop-color="#3B4F22"/>
<stop offset="1" stop-color="#92CC3E"/>
</linearGradient>
<linearGradient id="paint6_linear_102_15" x1="309.772" y1="231.8" x2="444.378" y2="449.568" gradientUnits="userSpaceOnUse">
<stop stop-color="#3B4F22"/>
<stop offset="1" stop-color="#92CC3E"/>
</linearGradient>
<linearGradient id="paint7_linear_102_15" x1="442.009" y1="445.926" x2="498.153" y2="536.765" gradientUnits="userSpaceOnUse">
<stop stop-color="#3B4F22"/>
<stop offset="1" stop-color="#92CC3E"/>
</linearGradient>
<linearGradient id="paint8_linear_102_15" x1="230.487" y1="478.586" x2="330.5" y2="640.388" gradientUnits="userSpaceOnUse">
<stop stop-color="#3B4F22"/>
<stop offset="1" stop-color="#92CC3E"/>
</linearGradient>
<linearGradient id="paint9_linear_102_15" x1="333.253" y1="213.943" x2="485.467" y2="73.6523" gradientUnits="userSpaceOnUse">
<stop stop-color="#89C149"/>
<stop offset="0.16" stop-color="#72A03C"/>
<stop offset="1"/>
</linearGradient>
<linearGradient id="paint10_linear_102_15" x1="396.195" y1="122.425" x2="422.55" y2="165.065" gradientUnits="userSpaceOnUse">
<stop stop-color="#3B4F22"/>
<stop offset="1" stop-color="#92CC3E"/>
</linearGradient>
<linearGradient id="paint11_linear_102_15" x1="183.07" y1="29.2614" x2="309.556" y2="233.888" gradientUnits="userSpaceOnUse">
<stop stop-color="#3B4F22"/>
<stop offset="1" stop-color="#92CC3E"/>
</linearGradient>
<linearGradient id="paint12_linear_102_15" x1="53.9495" y1="108.895" x2="152.942" y2="269.039" gradientUnits="userSpaceOnUse">
<stop stop-color="#3B4F22"/>
<stop offset="1" stop-color="#92CC3E"/>
</linearGradient>
<linearGradient id="paint13_linear_102_15" x1="86.9598" y1="371.921" x2="299.26" y2="176.251" gradientUnits="userSpaceOnUse">
<stop stop-color="#89C149"/>
<stop offset="0.16" stop-color="#72A03C"/>
<stop offset="1"/>
</linearGradient>
<linearGradient id="paint14_linear_102_15" x1="178.31" y1="250.196" x2="207.754" y2="297.833" gradientUnits="userSpaceOnUse">
<stop stop-color="#3B4F22"/>
<stop offset="1" stop-color="#92CC3E"/>
</linearGradient>
<linearGradient id="paint15_linear_102_15" x1="157.808" y1="449.894" x2="201.522" y2="409.605" gradientUnits="userSpaceOnUse">
<stop stop-color="#89C149"/>
<stop offset="0.16" stop-color="#72A03C"/>
<stop offset="1"/>
</linearGradient>
<linearGradient id="paint16_linear_102_15" x1="99.4152" y1="299.816" x2="260" y2="559.616" gradientUnits="userSpaceOnUse">
<stop stop-color="#3B4F22"/>
<stop offset="1" stop-color="#92CC3E"/>
</linearGradient>
<linearGradient id="paint17_linear_102_15" x1="236.998" y1="451.2" x2="407.947" y2="293.643" gradientUnits="userSpaceOnUse">
<stop/>
<stop offset="0.84" stop-color="#72A03C"/>
<stop offset="1" stop-color="#89C149"/>
</linearGradient>
<linearGradient id="paint18_linear_102_15" x1="255.856" y1="264.501" x2="389.153" y2="480.155" gradientUnits="userSpaceOnUse">
<stop stop-color="#3B4F22"/>
<stop offset="1" stop-color="#92CC3E"/>
</linearGradient>
<linearGradient id="paint19_linear_102_15" x1="427.782" y1="318.215" x2="484.991" y2="265.487" gradientUnits="userSpaceOnUse">
<stop stop-color="#89C149"/>
<stop offset="0.16" stop-color="#72A03C"/>
<stop offset="1"/>
</linearGradient>
<linearGradient id="paint20_linear_102_15" x1="388.933" y1="182.486" x2="524.055" y2="401.104" gradientUnits="userSpaceOnUse">
<stop stop-color="#3B4F22"/>
<stop offset="1" stop-color="#92CC3E"/>
</linearGradient>
</defs>
</svg>
