<svg width="79" height="80" viewBox="0 0 79 80" fill="none" xmlns="http://www.w3.org/2000/svg">
<path d="M0.275145 36.7102L13.874 8.54178L32.5645 51.6114L18.9656 79.7798L0.275145 36.7102Z" fill="url(#paint0_linear_102_54)"/>
<path d="M13.874 8.54178L57.3433 0L78.4776 42.723L32.5645 51.6114L13.874 8.54178Z" fill="url(#paint1_linear_102_54)"/>
<path style="mix-blend-mode:color-dodge" d="M14.0536 8.46287L13.6955 8.61874L32.3855 51.6879L32.7436 51.532L14.0536 8.46287Z" fill="url(#paint2_radial_102_54)"/>
<path d="M32.5645 51.6113L78.4776 42.723L61.6626 71.3749L18.9656 79.7798L32.5645 51.6113Z" fill="url(#paint3_linear_102_54)"/>
<mask id="mask0_102_54" style="mask-type:luminance" maskUnits="userSpaceOnUse" x="0" y="0" width="79" height="80">
<path d="M13.874 8.54178L0.275146 36.7102L18.9656 79.7798L21.1957 79.3409L23.7513 78.8379L61.6626 71.3749L78.4776 42.723L57.3433 0L13.874 8.54178Z" fill="white"/>
</mask>
<g mask="url(#mask0_102_54)">
<path style="mix-blend-mode:color-dodge" d="M60.5799 76.4425C75.7974 61.2022 75.7974 36.4928 60.5799 21.2525C45.3625 6.01224 20.6901 6.01224 5.47265 21.2525C-9.74481 36.4928 -9.74482 61.2022 5.47263 76.4425C20.6901 91.6828 45.3625 91.6828 60.5799 76.4425Z" fill="url(#paint4_radial_102_54)"/>
</g>
<defs>
<linearGradient id="paint0_linear_102_54" x1="-0.770023" y1="54.1828" x2="37.7413" y2="31.837" gradientUnits="userSpaceOnUse">
<stop stop-color="#2D2B2A"/>
<stop offset="0.46" stop-color="#566F38"/>
<stop offset="0.98" stop-color="#89C149"/>
</linearGradient>
<linearGradient id="paint1_linear_102_54" x1="27.5437" y1="47.2991" x2="63.6143" y2="5.41117" gradientUnits="userSpaceOnUse">
<stop offset="0.02" stop-color="#89C149"/>
<stop offset="0.15" stop-color="#8CC34E"/>
<stop offset="0.33" stop-color="#97C95E"/>
<stop offset="0.52" stop-color="#A9D378"/>
<stop offset="0.73" stop-color="#C2E19C"/>
<stop offset="0.95" stop-color="#E1F4CA"/>
<stop offset="1" stop-color="#EAF9D7"/>
</linearGradient>
<radialGradient id="paint2_radial_102_54" cx="0" cy="0" r="1" gradientUnits="userSpaceOnUse" gradientTransform="translate(23.1971 30.0676) rotate(-49.3526) scale(16.7013 16.6976)">
<stop offset="0.12" stop-color="white"/>
<stop offset="0.2" stop-color="#F7F7F7"/>
<stop offset="0.32" stop-color="#E1E1E1"/>
<stop offset="0.47" stop-color="#BFBEBE"/>
<stop offset="0.65" stop-color="#8E8D8D"/>
<stop offset="0.84" stop-color="#514F4F"/>
<stop offset="1" stop-color="#181615"/>
</radialGradient>
<linearGradient id="paint3_linear_102_54" x1="50.9077" y1="72.7477" x2="46.2385" y2="48.6217" gradientUnits="userSpaceOnUse">
<stop stop-color="#2F312D"/>
<stop offset="0.27" stop-color="#495C35"/>
<stop offset="0.76" stop-color="#77A443"/>
<stop offset="0.98" stop-color="#89C149"/>
</linearGradient>
<radialGradient id="paint4_radial_102_54" cx="0" cy="0" r="1" gradientUnits="userSpaceOnUse" gradientTransform="translate(33.0038 48.8398) rotate(-49.3524) scale(39.0014 38.9926)">
<stop stop-color="#547F0F"/>
<stop offset="0.28" stop-color="#415E10"/>
<stop offset="0.76" stop-color="#232A13"/>
<stop offset="1" stop-color="#181615"/>
</radialGradient>
</defs>
</svg>
