<svg width="20" height="21" viewBox="0 0 20 21" fill="none" xmlns="http://www.w3.org/2000/svg">
<path d="M10 0.334473C12.717 0.334473 13.056 0.344473 14.122 0.394473C15.187 0.444473 15.912 0.611473 16.55 0.859473C17.21 1.11347 17.766 1.45747 18.322 2.01247C18.8305 2.51237 19.224 3.11706 19.475 3.78447C19.722 4.42147 19.89 5.14747 19.94 6.21247C19.987 7.27847 20 7.61747 20 10.3345C20 13.0515 19.99 13.3905 19.94 14.4565C19.89 15.5215 19.722 16.2465 19.475 16.8845C19.2247 17.5522 18.8311 18.1571 18.322 18.6565C17.822 19.1648 17.2173 19.5582 16.55 19.8095C15.913 20.0565 15.187 20.2245 14.122 20.2745C13.056 20.3215 12.717 20.3345 10 20.3345C7.283 20.3345 6.944 20.3245 5.878 20.2745C4.813 20.2245 4.088 20.0565 3.45 19.8095C2.78233 19.5589 2.17753 19.1654 1.678 18.6565C1.16941 18.1567 0.775931 17.5519 0.525 16.8845C0.277 16.2475 0.11 15.5215 0.0599999 14.4565C0.0129999 13.3905 0 13.0515 0 10.3345C0 7.61747 0.00999994 7.27847 0.0599999 6.21247C0.11 5.14647 0.277 4.42247 0.525 3.78447C0.775236 3.11665 1.1688 2.51179 1.678 2.01247C2.17767 1.5037 2.78243 1.1102 3.45 0.859473C4.088 0.611473 4.812 0.444473 5.878 0.394473C6.944 0.347473 7.283 0.334473 10 0.334473ZM10 5.33447C8.67392 5.33447 7.40215 5.86126 6.46447 6.79894C5.52678 7.73662 5 9.00839 5 10.3345C5 11.6606 5.52678 12.9323 6.46447 13.87C7.40215 14.8077 8.67392 15.3345 10 15.3345C11.3261 15.3345 12.5979 14.8077 13.5355 13.87C14.4732 12.9323 15 11.6606 15 10.3345C15 9.00839 14.4732 7.73662 13.5355 6.79894C12.5979 5.86126 11.3261 5.33447 10 5.33447ZM16.5 5.08447C16.5 4.75295 16.3683 4.43501 16.1339 4.20059C15.8995 3.96617 15.5815 3.83447 15.25 3.83447C14.9185 3.83447 14.6005 3.96617 14.3661 4.20059C14.1317 4.43501 14 4.75295 14 5.08447C14 5.41599 14.1317 5.73394 14.3661 5.96836C14.6005 6.20278 14.9185 6.33447 15.25 6.33447C15.5815 6.33447 15.8995 6.20278 16.1339 5.96836C16.3683 5.73394 16.5 5.41599 16.5 5.08447ZM10 7.33447C10.7956 7.33447 11.5587 7.65054 12.1213 8.21315C12.6839 8.77576 13 9.53882 13 10.3345C13 11.1301 12.6839 11.8932 12.1213 12.4558C11.5587 13.0184 10.7956 13.3345 10 13.3345C9.20435 13.3345 8.44129 13.0184 7.87868 12.4558C7.31607 11.8932 7 11.1301 7 10.3345C7 9.53882 7.31607 8.77576 7.87868 8.21315C8.44129 7.65054 9.20435 7.33447 10 7.33447Z" fill="url(#paint0_linear_102_83)"/>
<defs>
<linearGradient id="paint0_linear_102_83" x1="0" y1="10.3345" x2="20" y2="10.3345" gradientUnits="userSpaceOnUse">
<stop stop-color="#638D33"/>
<stop offset="1" stop-color="#89C149"/>
</linearGradient>
</defs>
</svg>
