<svg width="178" height="26" viewBox="0 0 178 26" fill="none" xmlns="http://www.w3.org/2000/svg">
<path d="M0.303101 16.222C0.515988 15.9027 0.899184 15.6046 1.21851 15.3279C1.94233 14.7318 2.64486 14.1144 3.34739 13.4971C4.53956 12.4965 5.94461 11.4746 6.92389 10.2612C7.96704 9.47351 9.01018 7.91943 13.9705 7.91943C14.4814 9.66511 15.2691 12.092 19.1862 16.1582C19.1862 16.1582 18.9733 16.2646 18.9307 16.2859C18.7178 16.3923 18.4624 16.4775 18.2069 16.5626C17.3341 16.8607 16.4612 17.0736 15.5458 17.2226C14.2259 17.4142 12.8634 17.4355 11.5223 17.329C10.99 17.2865 10.4365 17.2013 9.9256 17.0736C9.64885 17.031 9.35081 16.9458 9.09534 16.882C8.90374 16.8394 8.73343 16.8181 8.56312 16.7329C8.37152 16.6265 8.2225 16.4775 8.0309 16.3923C7.71157 16.2433 7.39224 16.2646 7.0942 16.4988C6.68971 16.7755 6.49811 16.8181 6.17878 16.5201C5.85945 16.222 5.66786 16.9884 5.5827 17.0097C5.51884 17.031 5.36981 17.2013 5.09306 16.9458C4.81631 16.6691 4.15636 16.7542 4.13507 17.2226C4.00734 17.5845 3.21965 17.4781 3.07063 17.2865C2.92161 17.0949 2.53842 17.0097 2.17651 17.2652C1.87847 17.4568 1.60171 17.7761 1.55913 18.138C1.51656 18.3509 1.55913 18.6064 1.623 18.8192C1.66558 18.9683 1.75073 19.096 1.83589 19.2237C1.87846 19.2876 1.94233 19.3728 2.0062 19.4366C2.04878 19.4792 2.07006 19.5643 2.15522 19.5856C2.17651 19.5856 2.17651 19.6069 2.1978 19.6069C2.49584 19.6708 2.87903 19.7347 3.15579 19.5856C3.15579 19.5856 3.66672 19.3089 3.96476 19.6921C4.24151 20.0327 4.90146 20.1179 5.1995 19.6921C5.47626 19.2663 6.07234 19.7134 6.07234 19.7134C6.07234 19.7134 6.37039 20.054 6.86003 19.7347C6.96647 19.3089 7.62642 19.3089 7.90317 19.394C8.17992 19.4579 8.43539 19.0321 8.43539 19.0321C8.43539 19.0321 8.77601 18.8831 9.09534 19.2025C9.60627 19.2025 9.75529 18.9044 9.9256 18.6276C10.0959 18.3509 10.692 18.6064 10.7346 18.9257C10.99 19.1812 11.5435 19.0321 11.6287 18.798C11.6926 18.5851 11.799 18.287 12.2886 18.3722C12.7783 18.4786 12.6931 18.8618 13.0763 18.7128C13.4808 18.5638 13.5021 18.2019 13.6511 18.138C13.8001 18.0954 14.0982 18.0316 14.3111 18.3509C14.5665 18.6489 15.0349 18.5212 15.12 18.3296C15.2052 18.138 15.3116 17.7335 15.7161 17.7548C16.1206 17.7761 15.8864 18.0316 16.1845 18.2019C16.4825 18.3509 16.7806 18.3296 17.1212 17.7974C17.4618 17.2864 18.0579 17.6058 18.0579 17.6058C18.0579 17.6058 18.6965 17.7122 18.952 17.2439C19.2288 16.7755 19.8674 16.5201 20.3358 16.882C20.8041 17.2226 21.4428 18.0741 23.4652 18.8192C23.4652 18.8192 21.8473 23.4176 14.6943 24.7588C7.54126 26.1 1.49527 21.2249 0.941762 20.4372C0.622431 19.9688 0.62243 19.3089 0.686297 18.7554C0.707585 18.5638 0.79274 18.3935 0.79274 18.1806C0.771451 18.1806 0.771452 18.1806 0.750163 18.1806C0.622431 18.1167 0.494699 18.0103 0.409544 17.9038C0.345678 17.84 0.260523 17.7548 0.196657 17.6484C0.0263473 17.4568 -0.0162304 17.1374 0.00505827 16.882C0.0689244 16.6691 0.175368 16.4136 0.303101 16.222Z" fill="#023E4F"/>
<path d="M34.7908 9.96318C31.5975 -0.170248 23.8058 0.319388 22.2518 0.404543C20.6764 0.510986 15.8013 0.234233 14.5878 0.404543C13.3531 0.574852 13.2892 2.7463 13.2892 2.7463C13.2892 2.7463 12.3525 3.61915 12.2035 3.98106C11.799 4.91776 12.1609 6.68471 12.1609 6.68471C12.2886 7.68528 12.8209 8.66457 13.2892 9.53741C13.864 10.6018 14.5239 11.6024 15.1839 12.6243C15.929 13.7313 16.5677 14.7957 17.5895 15.6898C18.3772 16.3711 19.25 16.9672 20.1442 17.4781C22.1453 18.6064 24.3593 19.3728 26.6798 19.4154C27.9997 19.4367 29.3622 19.3728 30.6182 18.9896C31.2995 18.798 31.9807 18.5 32.5129 18.0316C32.7258 17.84 32.96 17.6058 33.0877 17.3504C33.1941 17.0949 33.109 16.8394 33.109 16.584C33.109 16.3072 33.109 16.0517 33.109 15.775C33.109 15.6685 33.109 15.3705 33.2154 15.3066C33.3432 15.2002 34.1096 14.817 34.5141 14.5828C34.6844 14.4764 34.8121 14.3061 34.8547 14.1145C34.9398 13.3907 35.1314 11.645 34.7908 9.96318ZM31.5336 15.1789C31.2143 15.1789 30.8098 15.2002 30.6608 15.0086C30.5118 14.817 30.086 14.7957 29.788 14.9873C29.3409 15.115 28.9577 14.5403 28.9577 14.5403C28.9577 14.5403 28.8513 14.3274 28.2339 14.3487C27.6165 14.3699 27.361 14.1783 27.1482 13.8377C26.9566 13.4971 26.2327 13.6887 26.105 13.6461C25.9773 13.6035 25.5941 13.3481 25.3812 12.901C25.1896 12.4539 24.4232 12.603 24.2742 12.5604C24.1252 12.5178 24.1252 11.7727 23.6142 11.645C23.1033 11.5173 22.6775 11.6663 22.5498 11.4321C22.4221 11.1554 22.5285 10.4315 22.124 10.4528C21.6982 10.4741 21.0809 10.3038 20.868 9.98446C20.6764 9.66513 20.8467 9.47353 20.3996 9.36709C19.9526 9.26064 19.5268 9.04777 19.4416 8.87746C19.3565 8.70715 18.9733 8.57941 18.9733 8.57941L18.143 8.47297C18.143 8.47297 17.845 8.43038 17.6747 7.98332C17.5044 7.53626 16.8444 7.68527 16.6315 7.57883C16.4399 7.47239 16.4186 6.81244 15.8864 6.706C15.3755 6.59955 14.8859 6.19507 14.8007 5.83317C14.7155 5.47126 14.6304 5.23708 14.1408 5.0029C13.6724 4.74744 13.8427 4.79001 13.7363 4.49197C13.7363 4.49197 13.1189 4.06621 13.4595 3.44884C13.8001 2.81018 14.4175 2.76758 14.7368 2.76758C15.0562 2.76758 15.5458 2.87403 15.7161 3.19336C15.8864 3.51269 15.8864 3.91717 16.589 3.95975C17.2702 3.98104 17.5469 4.55584 17.5469 4.55584L18.3772 4.87517C18.3772 4.87517 18.2282 4.91775 18.7178 5.32223C19.2075 5.68414 19.6332 5.62028 19.6332 5.62028C19.6332 5.62028 19.9739 5.748 20.1655 6.38667C20.3571 7.02533 24.7212 12.5178 27.4036 13.3055C30.0647 14.0932 31.1717 14.4551 31.3633 14.7105C31.7252 14.8383 31.853 15.1789 31.5336 15.1789Z" fill="#01789A"/>
<path d="M62.828 2.55465V0H62.381C61.4443 0 60.4863 0 59.5283 0C58.5916 0 57.6336 0 56.8246 0H56.633V0.766389C56.6117 2.59722 56.6117 4.40677 56.5904 6.2376C56.5479 8.64323 55.0789 10.176 52.6733 10.4528C51.1405 10.6231 49.5865 10.8147 47.8408 11.0488C47.8408 7.47234 47.8408 3.83197 47.8408 0.212887C45.6906 0.212887 43.7746 0.212887 41.8799 0.212887C41.8799 8.60064 41.8799 16.7968 41.8799 25.0568C43.9024 25.0568 45.7971 25.0568 47.6279 25.0568C47.7556 24.8865 47.8195 24.8439 47.8195 24.7588C47.8408 23.2047 47.8408 21.6719 47.8834 20.1178C47.9472 17.6271 49.7355 15.924 52.2475 15.924C54.7383 15.924 56.5266 17.6483 56.5904 20.1391C56.6117 21.6719 56.5904 23.226 56.5904 24.8439C58.7193 24.8439 60.6779 24.8439 62.7003 24.8439C62.8067 20.6501 63.339 16.4988 59.6986 13.3054C62.232 10.1547 63.2751 6.66337 62.828 2.55465Z" fill="white"/>
<path d="M102.574 0.574829C102.574 1.49024 102.574 2.27792 102.574 3.04431C102.574 7.30206 102.617 11.5598 102.553 15.8388C102.51 18.0529 100.381 19.7347 97.9757 19.6282C95.5914 19.5218 93.6328 17.7122 93.7393 15.6685C93.8457 13.5396 95.9746 11.7727 98.4228 12.0281C99.4872 12.1346 100.488 12.6242 101.723 13.0074C101.723 11.4533 101.829 9.89928 101.68 8.36649C101.637 7.83428 100.956 7.00401 100.467 6.89757C96.4217 6.06731 92.8452 7.04658 89.9499 10.0057C86.7566 13.2416 86.7566 18.2445 89.886 21.5442C94.2502 26.1852 102.191 26.2277 106.427 21.5016C107.492 20.3095 108.514 18.6276 108.599 17.1161C108.876 11.6662 108.705 6.19503 108.705 0.659963C106.598 0.574808 104.639 0.574829 102.574 0.574829Z" fill="white"/>
<path d="M126.29 6.98268C125.97 7.04655 125.608 7.57877 125.566 7.91939C125.502 9.62249 125.545 11.3256 125.545 13.1138C126.503 12.7093 127.163 12.3049 127.908 12.1345C129.824 11.7088 131.548 12.1771 132.761 13.7951C133.719 15.0511 133.698 16.4562 132.825 17.7548C131.825 19.3088 129.568 19.9901 127.631 19.4366C125.63 18.8405 124.629 17.5845 124.608 15.4769C124.587 11.6023 124.608 7.74908 124.608 3.87454C124.608 2.8101 124.608 1.72437 124.608 0.596069C122.458 0.596069 120.627 0.596069 118.477 0.596069C118.477 5.38603 118.732 9.96311 118.434 14.5189C117.987 21.0758 123.416 24.9503 128.866 25.0142C134.252 25.1207 139.084 21.459 139.616 16.8393C140.404 9.53731 132.506 5.27959 126.29 6.98268Z" fill="white"/>
<path d="M150.091 6.59955C144.023 7.32336 139.914 12.3688 141.171 17.6697C142.363 22.779 149.218 26.4406 154.199 24.5885C154.561 24.4395 155.029 23.9286 155.072 23.5454C155.179 21.8423 155.115 20.1392 155.115 18.5212C153.88 18.9257 152.879 19.4154 151.836 19.5218C149.835 19.7773 147.962 18.5425 147.344 16.8181C146.748 15.2002 147.344 13.8803 148.622 12.901C150.133 11.7088 151.857 11.6024 153.603 12.3688C155.328 13.1352 156.073 14.5189 156.009 16.4136C155.966 19.2238 155.987 22.0339 155.987 24.8866C158.159 24.8866 160.032 24.8866 162.182 24.8866C162.182 22.2468 162.033 19.7773 162.204 17.3716C162.8 9.62254 155.817 5.91831 150.091 6.59955Z" fill="white"/>
<path d="M79.4971 15.4343C79.5184 17.0948 78.752 18.2657 77.3257 19.0534C74.175 20.7991 70.641 18.7767 70.6197 15.1789C70.5984 12.3688 70.6197 9.55865 70.6197 6.74854C68.427 6.74854 66.5536 6.74854 64.4673 6.74854C64.4673 10.0696 64.4034 13.1777 64.4886 16.2646C64.5525 18.7766 65.7446 20.8204 67.6819 22.417C70.6623 24.8652 74.0898 25.3549 77.794 24.6311C78.2837 24.5246 78.7733 24.4182 79.263 24.4395V25.1633H85.4793C85.4793 24.6736 85.4793 24.2053 85.4793 23.7156C85.4793 17.8187 85.4793 12.3262 85.4793 6.81239C83.4143 6.81239 81.5196 6.81239 79.4758 6.81239C79.4758 9.77152 79.4546 12.6029 79.4971 15.4343Z" fill="white"/>
<path d="M163.396 14.5828C162.991 17.9251 163.332 21.3526 163.332 24.8652C165.312 24.8652 167.228 24.8652 169.293 24.8652C169.293 22.0125 169.336 19.2663 169.272 16.52C169.229 14.5189 170.251 13.4119 171.869 12.3474C173.955 10.9637 175.829 9.28187 178 7.55748C171.443 4.91768 164.098 8.53676 163.396 14.5828Z" fill="white"/>
<path d="M110.493 24.8439C112.495 24.8439 114.474 24.8439 116.454 24.8439C116.454 18.734 116.454 12.7306 116.454 6.72717C114.389 6.72717 112.495 6.72717 110.493 6.72717C110.493 12.7945 110.493 18.7553 110.493 24.8439Z" fill="white"/>
<path d="M113.602 0.447063C111.941 0.404486 110.451 1.70312 110.43 3.23591C110.408 4.66225 111.75 5.96085 113.367 6.06729C115.028 6.17373 116.54 4.9177 116.625 3.4062C116.689 1.87341 115.262 0.510929 113.602 0.447063Z" fill="white"/>
</svg>
