<svg width="170" height="27" viewBox="0 0 170 27" fill="none" xmlns="http://www.w3.org/2000/svg">
<path d="M12.76 0C14.8465 0 16.9371 0 19.1073 0C18.9664 0.202116 18.8786 0.338905 18.7806 0.469566C17.0371 2.77655 15.2916 5.08148 13.546 7.38642C10.9941 10.7571 8.44208 14.1277 5.88399 17.4943C5.70229 17.7352 5.61246 17.97 5.6145 18.2803C5.62675 20.6812 5.62062 23.0841 5.62062 25.485C5.62062 25.6687 5.61246 25.8504 5.61041 25.9954C5.56754 26.0424 5.55734 26.0587 5.54509 26.0668C5.53284 26.075 5.51446 26.0852 5.50017 26.0852C3.84241 26.0914 2.18465 26.0954 0.52689 26.0995C0.375813 26.0995 0.224737 26.0995 0.055286 26.0995C0.0348703 25.9791 0.0103714 25.8831 0.00424663 25.7872C-0.00391967 25.6687 0.00220462 25.5503 0.00220462 25.4319C0.00220462 17.1778 0.00220462 8.92373 0.00220462 0.669637C0.00220462 0.469562 0.00628752 0.267449 0.0083291 0.053083C0.0961169 0.0306256 0.159406 0.00408714 0.220653 0.00408714C1.94579 0.00204556 3.67092 0.00204556 5.39809 0.00408714C5.44709 0.00408714 5.49813 0.0183752 5.55121 0.0265415C5.67575 0.173535 5.62062 0.34911 5.62062 0.510394C5.62471 2.91129 5.62267 5.31423 5.62471 7.71513C5.62471 7.87845 5.63287 8.03973 5.63696 8.18876C5.688 8.20305 5.70637 8.21327 5.71862 8.20918C5.73291 8.2051 5.74516 8.18876 5.75741 8.17856C5.76966 8.16835 5.78395 8.1561 5.79416 8.14385C5.82887 8.1071 5.86153 8.06831 5.89419 8.02952C8.15218 5.37752 10.4122 2.72346 12.6702 0.0714564C12.6804 0.0612485 12.6947 0.053081 12.76 0Z" fill="#F9F9FC"/>
<path d="M29.309 0.0285645C31.1791 0.0285645 33.0206 0.0285645 34.9029 0.0285645C34.8703 0.140851 34.8601 0.234762 34.8172 0.314384C34.4048 1.1106 33.9904 1.90477 33.5739 2.69894C33.0778 3.64215 32.5776 4.58332 32.0856 5.52653C31.0832 7.44561 30.0848 9.3647 29.0824 11.2838C27.9085 13.5316 26.7305 15.7793 25.5546 18.0251C24.8012 19.4623 24.0499 20.9016 23.2966 22.3389C22.6841 23.5067 22.0716 24.6745 21.4571 25.8423C21.4183 25.9178 21.3714 25.9872 21.3346 26.0485C21.306 26.0648 21.2938 26.073 21.2775 26.0811C21.2632 26.0893 21.2468 26.0975 21.2305 26.0995C21.1284 26.1056 21.0284 26.1117 20.9263 26.1117C18.997 26.1097 17.0677 26.1077 15.1405 26.1036C15.1078 26.1036 15.0752 26.0872 15.0098 26.0668C14.6913 25.5809 14.3545 25.0767 14.0237 24.5663C13.005 22.9902 11.9883 21.412 10.9716 19.8339C10.1937 18.6253 9.4159 17.4167 8.63806 16.2081C8.59315 16.1366 8.54415 16.0672 8.50128 15.9957C8.4237 15.8671 8.42982 15.7385 8.51761 15.616C8.59723 15.5058 8.68093 15.4016 8.7626 15.2934C9.8528 13.85 10.943 12.4066 12.0352 10.9632C12.123 10.8469 12.2231 10.7366 12.3476 10.5896C12.8825 11.4226 13.3214 12.2576 13.8033 13.0661C14.2871 13.8807 14.7485 14.7075 15.2221 15.5282C15.6876 16.3346 16.1531 17.139 16.6206 17.9434C17.0943 18.7621 17.57 19.5787 18.0661 20.4321C18.1416 20.3341 18.2008 20.279 18.2376 20.2095C19.0828 18.6682 19.9239 17.1227 20.7691 15.5813C22.0451 13.2539 23.3231 10.9265 24.5991 8.5991C25.2177 7.47215 25.8322 6.3452 26.4488 5.21621C27.3246 3.61357 28.1984 2.01093 29.0742 0.408295C29.1437 0.273551 29.2314 0.151059 29.309 0.0285645Z" fill="#2EABE2"/>
<path d="M115.741 9.91784C115.829 9.90559 115.909 9.88721 115.99 9.88721C116.668 9.88517 117.344 9.89539 118.022 9.8811C118.254 9.87701 118.397 9.97093 118.526 10.1485C119.675 11.7165 120.835 13.2783 121.976 14.8523C122.223 15.1933 122.409 15.5771 122.621 15.9405C122.695 16.0671 122.766 16.1957 122.883 16.4039C122.987 15.7792 122.828 15.2586 122.842 14.7319C122.856 14.2072 122.844 13.6825 122.844 13.1578C122.844 12.6168 122.84 12.0758 122.846 11.5348C122.852 11.0121 122.817 10.4895 122.866 9.98318C122.909 9.94847 122.934 9.90968 122.96 9.90968C123.787 9.85456 124.614 9.89742 125.461 9.88517C125.488 10.0056 125.516 10.0995 125.527 10.1955C125.537 10.2955 125.529 10.3976 125.529 10.4997C125.529 13.4436 125.529 16.3876 125.527 19.3295C125.527 19.5112 125.557 19.699 125.476 19.8991C125.394 19.9114 125.314 19.9359 125.235 19.9359C124.54 19.9399 123.846 19.9277 123.154 19.944C122.915 19.9501 122.781 19.8419 122.654 19.6684C121.888 18.615 121.121 17.5635 120.351 16.5121C120.133 16.212 119.916 15.9078 119.69 15.6138C119.214 14.9952 118.785 14.3481 118.457 13.6396C118.416 13.5518 118.391 13.4477 118.257 13.4049C118.257 13.509 118.25 13.6029 118.257 13.6968C118.281 14.05 118.33 14.4032 118.332 14.7564C118.34 16.3304 118.338 17.9025 118.336 19.4765C118.336 19.6072 118.322 19.7399 118.312 19.895C118.009 19.9726 117.724 19.9277 117.442 19.9359C117.17 19.944 116.901 19.9379 116.629 19.9379C116.344 19.9379 116.058 19.9379 115.751 19.9379C115.727 19.8113 115.702 19.7174 115.694 19.6215C115.684 19.5214 115.692 19.4193 115.692 19.3173C115.692 16.3733 115.692 13.4294 115.692 10.4874C115.69 10.3037 115.666 10.1179 115.741 9.91784Z" fill="#32ABE2"/>
<path d="M48.0854 9.89754C48.1896 10.0323 48.2937 10.1629 48.3937 10.2977C49.4063 11.6737 50.4128 13.0538 51.4316 14.4237C51.8378 14.9688 52.1992 15.5343 52.483 16.1529C52.5299 16.257 52.6075 16.3469 52.6729 16.4408C52.681 16.451 52.7035 16.451 52.7239 16.4551C52.7239 16.3714 52.728 16.2877 52.7239 16.204C52.6974 15.7814 52.6484 15.3608 52.6463 14.9402C52.6361 13.4009 52.6422 11.8615 52.6422 10.3222C52.6422 10.1915 52.6545 10.0609 52.6586 9.93632C53.0689 9.86691 54.6348 9.85466 55.2207 9.91182C55.3249 10.0751 55.2738 10.2671 55.2738 10.4467C55.2779 13.1702 55.2759 15.8936 55.2759 18.6171C55.2759 18.9376 55.2759 19.2602 55.2759 19.5807C55.2759 19.6787 55.2677 19.7788 55.2616 19.8666C54.8492 19.9462 53.5364 19.9646 52.632 19.9074C52.532 19.7788 52.4177 19.6338 52.3095 19.4848C51.3397 18.1618 50.3802 16.8307 49.3982 15.516C48.9409 14.9035 48.5407 14.2604 48.1998 13.5785C48.1569 13.4928 48.0977 13.4152 48.0017 13.2641C48.0017 13.4315 47.9976 13.5091 48.0017 13.5867C48.0283 14.0256 48.0813 14.4625 48.0834 14.9014C48.0936 16.4571 48.0875 18.0128 48.0875 19.5705C48.0875 19.6706 48.0793 19.7686 48.0752 19.8625C47.7139 19.9482 46.0377 19.9605 45.5008 19.887C45.4885 19.8747 45.4743 19.8645 45.4661 19.8502C45.4579 19.8359 45.4538 19.8196 45.4538 19.8033C45.4498 16.6735 45.4477 13.5458 45.4436 10.4161C45.4436 10.265 45.4436 10.1139 45.4436 9.9792C45.4906 9.94041 45.5151 9.89957 45.5396 9.89957C46.3828 9.89549 47.2259 9.89754 48.0854 9.89754Z" fill="#F9F9FC"/>
<path d="M71.9127 11.9677C71.1348 12.3862 70.3509 12.7312 69.5669 13.1089C69.4505 12.9824 69.3505 12.8701 69.2464 12.7619C68.4706 11.9554 67.2211 11.7309 66.2105 12.2208C65.6511 12.4924 65.2816 12.9395 65.0448 13.505C64.8651 13.9317 64.8019 14.3849 64.7876 14.8422C64.7712 15.4016 64.8161 15.9549 65.0203 16.4877C65.4102 17.5085 66.2146 18.0781 67.3069 18.1026C68.003 18.119 68.6482 17.9679 69.2076 17.5289C69.522 17.2819 69.7527 16.9757 69.8731 16.5939C69.9017 16.5 69.9017 16.3979 69.916 16.2856C69.6179 16.206 69.3301 16.253 69.0483 16.2448C68.7441 16.2366 68.4399 16.2468 68.1357 16.2407C67.852 16.2366 67.5682 16.2652 67.2926 16.2182C67.2211 15.814 67.215 14.6544 67.2762 14.1808C67.2905 14.1726 67.3028 14.1624 67.3171 14.1542C67.3314 14.1461 67.3477 14.1358 67.364 14.1358C69.0381 14.1338 70.7122 14.1318 72.3863 14.1297C72.4353 14.1297 72.4863 14.142 72.5353 14.1542C72.5496 14.1563 72.5619 14.1726 72.5864 14.191C72.5966 14.2257 72.6231 14.2726 72.6252 14.3196C72.6578 15.1689 72.5966 16.01 72.3475 16.8287C71.8514 18.4619 70.7898 19.5276 69.1279 19.9605C68.0275 20.2483 66.9149 20.2483 65.8145 19.9829C64.4405 19.6501 63.4217 18.8253 62.7337 17.6065C61.6884 15.7569 61.7619 13.1457 63.3299 11.4001C64.0301 10.6203 64.8774 10.0976 65.8921 9.85261C67.3375 9.50555 68.7441 9.59333 70.0834 10.2854C70.8347 10.6713 71.4349 11.2266 71.9127 11.9677Z" fill="#F9F9FC"/>
<path d="M80.6975 9.90763C81.504 9.85047 83.0066 9.86884 83.3802 9.93418C83.4373 10.316 83.4577 19.1519 83.4026 19.8603C83.0862 19.9481 81.4019 19.9685 80.7118 19.8909C80.6526 19.6357 80.6873 19.3683 80.6812 19.1029C80.6751 18.8334 80.6791 18.5619 80.6791 18.2903C80.6791 18.0372 80.6791 17.782 80.6791 17.5288C80.6791 17.2573 80.6791 16.9878 80.6791 16.7163C80.6791 16.4488 80.6791 16.1793 80.6791 15.8833C80.0483 15.8098 79.444 15.8547 78.8417 15.8507C78.2538 15.8466 77.6658 15.8221 77.0513 15.8752C77.0064 16.5693 77.037 17.243 77.0288 17.9147C77.0206 18.57 77.039 19.2254 77.0186 19.8726C76.6021 19.9399 75.0077 19.9563 74.3503 19.9032C74.2298 19.7399 74.2911 19.548 74.289 19.3703C74.2849 16.6816 74.2849 13.9928 74.2849 11.302C74.2849 10.9468 74.2829 10.5916 74.2849 10.2363C74.2849 10.1383 74.2951 10.0403 74.2992 9.94847C74.6871 9.86272 75.9754 9.84026 76.9757 9.9015C76.99 10.0036 77.0206 10.1138 77.0206 10.2241C77.0247 11.2224 77.0227 12.2207 77.0247 13.217C77.0247 13.3824 77.0349 13.5498 77.0411 13.6866C77.0819 13.7233 77.0921 13.7376 77.1044 13.7458C77.1186 13.754 77.135 13.758 77.1513 13.7642C77.1676 13.7682 77.184 13.7744 77.2003 13.7744C78.2497 13.7764 79.297 13.7785 80.3464 13.7785C80.4301 13.7785 80.5138 13.7683 80.6281 13.7601C80.6424 13.6478 80.671 13.5355 80.671 13.4253C80.6751 12.4269 80.673 11.4286 80.673 10.4323C80.6812 10.269 80.6914 10.1036 80.6975 9.90763Z" fill="#F9F9FC"/>
<path d="M144.307 9.95485C144.315 10.0835 144.325 10.1835 144.325 10.2856C144.325 12.1291 144.334 13.9727 144.313 15.8142C144.307 16.3511 144.246 16.8942 144.154 17.425C143.915 18.801 143.076 19.6462 141.743 20.0015C140.785 20.2567 139.809 20.2832 138.825 20.1648C138.421 20.1158 138.025 20.0402 137.639 19.9075C136.463 19.5054 135.771 18.6785 135.518 17.4719C135.396 16.8901 135.351 16.298 135.342 15.7101C135.322 13.8849 135.33 12.0577 135.33 10.2325C135.33 10.1345 135.353 10.0386 135.363 9.95077C135.783 9.8691 137.629 9.86503 138.07 9.94261C138.156 10.11 138.117 10.2978 138.119 10.4795C138.125 12.17 138.125 13.8604 138.127 15.5529C138.127 15.9591 138.15 16.3613 138.233 16.7615C138.354 17.3392 138.689 17.6761 139.258 17.819C139.789 17.9517 140.295 17.9211 140.785 17.672C141.071 17.5271 141.275 17.3086 141.359 16.9983C141.42 16.7696 141.483 16.5389 141.5 16.3042C141.543 15.7141 141.577 15.1241 141.581 14.5321C141.594 13.1969 141.586 11.8596 141.586 10.5244C141.586 10.3387 141.586 10.1549 141.586 9.95485C141.69 9.92831 141.767 9.89156 141.847 9.88952C142.574 9.88544 143.3 9.8834 144.029 9.88748C144.121 9.88748 144.213 9.93036 144.307 9.95485Z" fill="#33ACE2"/>
<path d="M40.6357 14.7892C41.3135 15.6548 41.9791 16.5041 42.6446 17.3555C43.2959 18.1884 43.9533 19.0153 44.6188 19.8768C44.1533 19.9442 42.1914 19.9605 41.2421 19.9115C40.7092 19.2256 40.1988 18.4926 39.6721 17.7719C39.1433 17.0513 38.6207 16.3265 38.1001 15.6099C37.9286 15.6426 37.9776 15.7671 37.9776 15.8529C37.9735 17.037 37.9755 18.2191 37.9735 19.4032C37.9735 19.5685 38.0123 19.7421 37.9122 19.9136C37.0589 19.9136 36.2014 19.9136 35.3276 19.9136C35.2214 19.74 35.2704 19.5502 35.2704 19.3725C35.2664 16.7695 35.2684 14.1665 35.2684 11.5635C35.2684 11.1409 35.2664 10.7183 35.2684 10.2957C35.2684 10.1793 35.2786 10.0629 35.2847 9.95066C35.6277 9.86696 37.2079 9.8445 37.9163 9.91187C38.0143 10.067 37.9735 10.2406 37.9735 10.4059C37.9776 11.539 37.9735 12.6721 37.9776 13.8031C37.9776 13.946 37.949 14.0971 38.0123 14.2176C38.0654 14.2257 38.0817 14.2339 38.096 14.2278C38.1103 14.2216 38.1205 14.2053 38.1307 14.1931C38.1429 14.1808 38.1552 14.1686 38.1654 14.1563C38.196 14.1155 38.2246 14.0746 38.2552 14.0338C39.2046 12.6762 40.1519 11.3185 41.1012 9.96291C41.1114 9.94862 41.1236 9.93841 41.1359 9.92616C41.5238 9.87308 43.3571 9.85879 44.2248 9.90167C44.2861 10.065 44.1452 10.1467 44.0717 10.2446C43.0652 11.5798 42.0526 12.913 41.042 14.2461C40.9072 14.4156 40.7807 14.5932 40.6357 14.7892Z" fill="#F9F9FC"/>
<path d="M146.424 9.90577C146.549 9.8976 146.632 9.88534 146.716 9.88534C147.882 9.88739 149.05 9.8731 150.215 9.90168C150.701 9.91189 151.197 9.96293 151.669 10.0773C152.851 10.3672 153.545 11.143 153.794 12.3352C153.923 12.9477 153.878 13.5439 153.694 14.1339C153.451 14.9097 152.939 15.4384 152.185 15.7365C152.028 15.7978 151.867 15.8447 151.677 15.91C151.92 16.3919 152.243 16.8022 152.53 17.233C152.82 17.6699 153.12 18.0986 153.412 18.5335C153.702 18.9642 153.99 19.3991 154.264 19.8095C154.243 19.8666 154.241 19.887 154.231 19.8993C154.221 19.9095 154.204 19.9177 154.188 19.9197C154.155 19.9279 154.123 19.936 154.088 19.936C153.159 19.936 152.23 19.936 151.275 19.936C151.189 19.8095 151.099 19.691 151.024 19.5624C150.44 18.5723 149.862 17.5801 149.278 16.5899C149.213 16.4776 149.129 16.3776 149.056 16.2734C148.89 16.3653 148.935 16.498 148.935 16.6083C148.931 17.5045 148.933 18.4008 148.933 19.295C148.933 19.4808 148.933 19.6645 148.933 19.8585C148.847 19.8891 148.786 19.9299 148.725 19.9299C147.998 19.934 147.271 19.9299 146.544 19.9279C146.514 19.9279 146.481 19.9075 146.418 19.887C146.404 19.7911 146.375 19.6788 146.375 19.5665C146.371 19.0092 146.373 18.4518 146.373 17.8924C146.373 15.4241 146.373 12.9559 146.375 10.4876C146.371 10.3059 146.34 10.1181 146.424 9.90577ZM148.966 14.6075C149.478 14.681 149.96 14.6565 150.432 14.5136C150.703 14.4299 150.907 14.2564 151.018 13.993C151.224 13.4989 151.214 13.0049 150.942 12.5374C150.869 12.4128 150.746 12.3026 150.624 12.225C150.238 11.9861 149.441 11.931 148.968 12.0882C148.915 12.4843 148.911 14.0808 148.966 14.6075Z" fill="#30ABE2"/>
<path d="M107.722 9.92001C108.408 9.85468 113.438 9.87305 113.81 9.9343C113.898 10.2814 113.912 11.4961 113.83 12.0698C113.71 12.082 113.581 12.1086 113.453 12.1086C112.624 12.1127 111.797 12.1086 110.968 12.1106C110.803 12.1106 110.637 12.1249 110.449 12.1351C110.378 12.6965 110.419 13.2294 110.417 13.7908C110.58 13.8072 110.709 13.8317 110.837 13.8337C111.599 13.8378 112.358 13.8337 113.12 13.8357C113.285 13.8357 113.451 13.85 113.606 13.8582C113.691 14.2522 113.706 15.32 113.64 15.8977C113.538 16.0202 113.393 15.9814 113.265 15.9814C112.503 15.9855 111.744 15.9814 110.982 15.9835C110.817 15.9835 110.652 15.9957 110.494 16.0039C110.388 16.3734 110.378 17.1451 110.47 17.6494C110.592 17.6596 110.721 17.6821 110.852 17.6821C111.662 17.6862 112.475 17.6841 113.285 17.6841C113.453 17.6841 113.622 17.6841 113.8 17.6841C113.83 17.7678 113.871 17.827 113.871 17.8883C113.873 18.513 113.871 19.1377 113.867 19.7645C113.867 19.7951 113.847 19.8257 113.822 19.8911C113.745 19.9033 113.649 19.9319 113.555 19.9319C111.711 19.9339 109.87 19.9339 108.026 19.9339C107.942 19.9339 107.861 19.9176 107.781 19.9115C107.646 19.7379 107.701 19.544 107.699 19.3643C107.695 17.4044 107.697 15.4425 107.697 13.4826C107.697 12.4679 107.695 11.4553 107.699 10.4406C107.699 10.2773 107.714 10.1119 107.722 9.92001Z" fill="#32ABE2"/>
<path d="M158.096 13.8398C159.192 13.8398 160.239 13.8398 161.293 13.8398C161.44 14.2073 161.356 14.5625 161.366 14.9096C161.377 15.2444 161.391 15.5813 161.342 15.9447C161.191 15.961 161.062 15.9855 160.934 15.9855C160.156 15.9896 159.378 15.9855 158.6 15.9896C158.437 15.9896 158.259 15.9467 158.114 16.0631C158.037 16.4449 158.03 17.1492 158.104 17.6494C158.224 17.6617 158.353 17.6862 158.484 17.6862C159.312 17.6902 160.141 17.6882 160.97 17.6882C161.138 17.6882 161.305 17.6882 161.485 17.6882C161.517 17.7719 161.56 17.8311 161.56 17.8903C161.562 18.515 161.56 19.1418 161.556 19.7665C161.556 19.7971 161.534 19.8278 161.507 19.8972C161.432 19.9094 161.338 19.936 161.244 19.936C159.417 19.938 157.589 19.938 155.762 19.936C155.664 19.936 155.564 19.9217 155.436 19.9115C155.419 19.7686 155.395 19.6379 155.395 19.5093C155.391 18.7151 155.393 17.9189 155.393 17.1247C155.393 14.9259 155.393 12.7272 155.393 10.5284C155.393 10.3426 155.393 10.1589 155.393 9.95675C155.495 9.92816 155.572 9.88937 155.65 9.88937C157.528 9.88529 159.404 9.88529 161.283 9.88733C161.348 9.88733 161.415 9.90775 161.491 9.91796C161.515 9.98329 161.558 10.0445 161.558 10.1078C161.562 10.6999 161.562 11.2919 161.558 11.882C161.558 11.9452 161.515 12.0065 161.481 12.1004C160.925 12.1167 160.37 12.1065 159.813 12.1086C159.255 12.1106 158.698 12.1086 158.139 12.1086C157.985 12.4046 158.069 12.6965 158.057 12.9742C158.049 13.2416 158.03 13.5132 158.096 13.8398Z" fill="#2FABE2"/>
<path d="M101.618 16.698C101.679 16.5571 101.714 16.502 101.728 16.4428C101.977 15.422 102.373 14.4523 102.718 13.4642C103.098 12.3801 103.486 11.3001 103.869 10.218C103.904 10.1241 103.947 10.0323 103.982 9.94448C104.343 9.86894 106.25 9.85261 106.844 9.92202C106.826 10.018 106.822 10.118 106.785 10.2038C105.97 12.1514 105.152 14.097 104.335 16.0447C103.857 17.1819 103.381 18.319 102.904 19.4562C102.838 19.6093 102.765 19.7604 102.693 19.9176C101.993 19.9176 101.322 19.9176 100.625 19.9176C100.576 19.8339 100.517 19.7543 100.48 19.6644C99.4147 17.1247 98.3531 14.585 97.2894 12.0473C97.0608 11.5022 96.826 10.9591 96.5994 10.414C96.5361 10.263 96.4891 10.1037 96.432 9.94448C96.8546 9.8669 98.8471 9.86281 99.3228 9.93835C99.7169 11.0306 100.123 12.1392 100.515 13.2518C100.905 14.3645 101.358 15.4567 101.618 16.698Z" fill="#32ABE2"/>
<path d="M169.496 10.5978C169.226 11.2123 168.951 11.8431 168.663 12.5046C168.549 12.4331 168.463 12.3882 168.385 12.3311C167.952 12.0187 167.473 11.8248 166.946 11.737C166.613 11.6818 166.309 11.7615 166.019 11.9187C165.515 12.1882 165.531 12.8864 165.913 13.1559C166.076 13.2702 166.26 13.3682 166.448 13.4356C166.748 13.5458 167.064 13.6152 167.369 13.7173C167.752 13.8459 168.138 13.9745 168.51 14.1338C169.339 14.4911 169.788 15.1342 169.943 16.0222C170.053 16.6572 170 17.2696 169.812 17.8739C169.516 18.8192 168.883 19.4827 167.983 19.8625C166.364 20.5464 164.202 20.3157 162.751 18.9009C162.704 18.8539 162.663 18.7988 162.612 18.7375C162.71 18.3496 162.981 18.0597 163.171 17.727C163.353 17.4044 163.555 17.0941 163.763 16.7511C163.873 16.8246 163.959 16.8695 164.031 16.9307C164.263 17.1267 164.484 17.337 164.721 17.5269C165.058 17.7964 165.447 17.9413 165.866 18.0393C166.182 18.1128 166.478 18.072 166.758 17.9577C167.354 17.7147 167.542 17.2064 167.342 16.5796C167.271 16.3591 167.107 16.2039 166.895 16.1202C166.566 15.9896 166.231 15.8732 165.897 15.7568C165.529 15.6303 165.162 15.5098 164.792 15.3873C164.484 15.2852 164.216 15.1056 163.951 14.9259C163.602 14.6891 163.369 14.3624 163.23 13.9705C162.667 12.3964 163.369 10.3916 165.288 9.84035C166.74 9.42386 168.134 9.66478 169.41 10.4957C169.433 10.5079 169.449 10.5406 169.496 10.5978Z" fill="#32ABE2"/>
<path d="M91.9609 9.90774C92.0283 10.4304 92.0222 11.8248 91.9507 12.2454C91.5934 12.2862 91.226 12.2556 90.8585 12.2658C90.5073 12.276 90.1541 12.2433 89.7907 12.2903C89.7254 12.4924 89.7479 12.6782 89.7479 12.8578C89.7458 15.0199 89.7479 17.1839 89.7458 19.3459C89.7458 19.5297 89.7397 19.7134 89.7376 19.9135C88.8251 19.9135 87.9492 19.9135 87.0734 19.9135C86.9448 19.74 87.004 19.5481 87.004 19.3684C86.9999 17.2064 87.0019 15.0423 86.9999 12.8803C86.9999 12.6965 86.9917 12.5148 86.9876 12.3107C86.7426 12.229 86.5058 12.2739 86.2772 12.2658C86.024 12.2576 85.7709 12.2658 85.5177 12.2637C85.2829 12.2617 85.0502 12.2596 84.8256 12.2556C84.7358 11.8677 84.7174 10.8081 84.7766 9.93428C84.846 9.91795 84.9216 9.88325 84.9991 9.88325C87.2633 9.8812 89.5274 9.8812 91.7935 9.88325C91.8384 9.88325 91.8874 9.89549 91.9609 9.90774Z" fill="#F9F9FC"/>
<path d="M126.915 12.2639C126.841 11.827 126.839 10.3877 126.909 9.92832C127.013 9.91403 127.127 9.88544 127.239 9.88544C129.389 9.8834 131.537 9.8834 133.687 9.88544C133.801 9.88544 133.915 9.90179 134.019 9.90995C134.103 10.2979 134.119 11.5942 134.054 12.2333C133.968 12.2516 133.874 12.2884 133.781 12.2904C133.307 12.2966 132.833 12.2925 132.36 12.2945C132.211 12.2966 132.062 12.3108 131.913 12.319C131.815 12.517 131.851 12.7069 131.851 12.8866C131.849 15.0343 131.849 17.1841 131.849 19.3318C131.849 19.5135 131.837 19.6952 131.829 19.8667C131.425 19.9525 129.693 19.9647 129.16 19.8912C129.062 19.7279 129.105 19.538 129.105 19.3584C129.101 17.4801 129.103 15.6019 129.103 13.7257C129.103 13.3868 129.105 13.0499 129.101 12.711C129.101 12.5967 129.087 12.4803 129.077 12.3374C128.356 12.2292 127.646 12.3455 126.915 12.2639Z" fill="#31ABE2"/>
<path d="M60.2554 19.93C60.0512 19.93 59.9185 19.93 59.7838 19.93C59.0406 19.93 58.2975 19.93 57.5299 19.93C57.5135 19.8136 57.489 19.7197 57.489 19.6237C57.487 16.4797 57.487 13.3357 57.487 10.1916C57.487 10.1079 57.4972 10.0263 57.5033 9.94871C57.8667 9.865 59.4306 9.84255 60.1962 9.90992C60.3044 10.0732 60.2513 10.2631 60.2513 10.4428C60.2554 12.9274 60.2533 15.412 60.2533 17.8966C60.2533 18.4376 60.2533 18.9786 60.2533 19.5196C60.2554 19.6339 60.2554 19.7503 60.2554 19.93Z" fill="#F9F9FC"/>
</svg>
