<svg width="18" height="19" viewBox="0 0 18 19" fill="none" xmlns="http://www.w3.org/2000/svg">
<path d="M15.335 15.6735H12.67V11.4965C12.67 10.5005 12.65 9.21847 11.28 9.21847C9.891 9.21847 9.679 10.3025 9.679 11.4235V15.6735H7.013V7.08447H9.573V8.25447H9.608C9.966 7.58047 10.836 6.86747 12.136 6.86747C14.836 6.86747 15.336 8.64547 15.336 10.9585V15.6735H15.335ZM4.003 5.90947C3.79956 5.90974 3.59806 5.86984 3.41006 5.79208C3.22207 5.71432 3.05127 5.60021 2.90746 5.45631C2.76365 5.3124 2.64965 5.14153 2.57201 4.95349C2.49437 4.76544 2.4546 4.56392 2.455 4.36047C2.4552 4.05431 2.54618 3.75508 2.71644 3.50062C2.8867 3.24616 3.12859 3.04791 3.41153 2.93092C3.69447 2.81394 4.00574 2.78349 4.30598 2.84341C4.60622 2.90334 4.88196 3.05095 5.09831 3.26758C5.31466 3.48421 5.46191 3.76013 5.52145 4.06045C5.58099 4.36077 5.55013 4.67201 5.43278 4.95479C5.31543 5.23758 5.11687 5.47921 4.86219 5.64914C4.60751 5.81908 4.30817 5.90967 4.002 5.90947H4.003ZM5.339 15.6735H2.666V7.08447H5.34V15.6735H5.339ZM16.67 0.334473H1.329C0.593 0.334473 0 0.914473 0 1.63147V17.0375C0 17.7545 0.594 18.3345 1.328 18.3345H16.666C17.4 18.3345 18 17.7545 18 17.0375V1.63147C18 0.914473 17.4 0.334473 16.666 0.334473H16.669H16.67Z" fill="url(#paint0_linear_102_76)"/>
<defs>
<linearGradient id="paint0_linear_102_76" x1="0" y1="9.33447" x2="18" y2="9.33447" gradientUnits="userSpaceOnUse">
<stop stop-color="#638D33"/>
<stop offset="1" stop-color="#89C149"/>
</linearGradient>
</defs>
</svg>
