<svg width="22" height="17" viewBox="0 0 22 17" fill="none" xmlns="http://www.w3.org/2000/svg">
<path d="M21.162 1.9904C20.3986 2.32809 19.589 2.54987 18.76 2.6484C19.6337 2.12583 20.2877 1.30341 20.6 0.334399C19.78 0.822399 18.881 1.1644 17.944 1.3494C17.3146 0.675978 16.4804 0.229362 15.5709 0.078984C14.6615 -0.0713944 13.7279 0.0828903 12.9153 0.517852C12.1026 0.952814 11.4564 1.64408 11.0771 2.48419C10.6978 3.3243 10.6067 4.26618 10.818 5.1634C9.1551 5.08005 7.52832 4.64792 6.04328 3.89506C4.55823 3.1422 3.24812 2.08545 2.19799 0.793399C1.82628 1.43185 1.63095 2.15763 1.63199 2.8964C1.63199 4.3464 2.36999 5.6274 3.49199 6.3774C2.828 6.3565 2.17862 6.17718 1.59799 5.8544V5.9064C1.59819 6.8721 1.93236 7.80802 2.54384 8.55546C3.15532 9.3029 4.00647 9.81588 4.95299 10.0074C4.33661 10.1744 3.6903 10.1991 3.06299 10.0794C3.32986 10.9106 3.85 11.6376 4.55058 12.1585C5.25117 12.6794 6.09712 12.9682 6.96999 12.9844C6.10247 13.6657 5.10917 14.1694 4.04687 14.4666C2.98458 14.7638 1.87412 14.8487 0.778992 14.7164C2.69069 15.9458 4.91609 16.5985 7.18899 16.5964C14.882 16.5964 19.089 10.2234 19.089 4.6964C19.089 4.5164 19.084 4.3344 19.076 4.1564C19.8949 3.56457 20.6016 2.83142 21.163 1.9914L21.162 1.9904Z" fill="url(#paint0_linear_102_86)"/>
<defs>
<linearGradient id="paint0_linear_102_86" x1="0.778992" y1="8.30968" x2="21.163" y2="8.30968" gradientUnits="userSpaceOnUse">
<stop stop-color="#638D33"/>
<stop offset="1" stop-color="#89C149"/>
</linearGradient>
</defs>
</svg>
