<svg width="170" height="36" viewBox="0 0 170 36" fill="none" xmlns="http://www.w3.org/2000/svg">
<path d="M3.44571 6.82486L0.653381 9.61719L12.6626 21.6264L15.4549 18.834L3.44571 6.82486Z" fill="#F16522"/>
<path d="M2.79233 15.4881L0 18.2804L8.0048 26.2852L10.7971 23.4929L2.79233 15.4881Z" fill="#F16522"/>
<path d="M27.8867 3.44381L25.0944 0.651489L13.0852 12.6607L15.8775 15.453L27.8867 3.44381Z" fill="#F16522"/>
<path d="M19.2245 2.79233L16.4321 0L8.42733 8.0048L11.2197 10.7971L19.2245 2.79233Z" fill="#F16522"/>
<path d="M31.0064 29.3506L33.7987 26.5582L21.7895 14.549L18.9972 17.3414L31.0064 29.3506Z" fill="#F16522"/>
<path d="M32.0475 20.2975L34.8398 17.5051L26.835 9.50033L24.0427 12.2927L32.0475 20.2975Z" fill="#F16522"/>
<path d="M5.69315 32.3113L8.48547 35.1036L20.4947 23.0944L17.7023 20.3021L5.69315 32.3113Z" fill="#F16522"/>
<path d="M14.3514 32.9638L17.1437 35.7561L25.1485 27.7513L22.3562 24.959L14.3514 32.9638Z" fill="#F16522"/>
<path d="M41.126 26.674L46.4203 17.518L41.5116 9.05151H46.4203L49.7585 15.0917L53.0938 9.05151H57.5325L52.7054 17.4082L58.0279 26.674H53.091L49.3672 20.0286L45.59 26.674H41.1231H41.126Z" fill="white"/>
<path d="M59.3057 26.6739V9.0542H71.4115V12.6654H63.7726V16.4708H70.8598V19.6429H63.7726V23.5581H71.4115V26.6739H59.3057Z" fill="white"/>
<path d="M73.8349 26.6739V9.0542H80.8659C83.0726 9.0542 84.7586 9.4961 85.9266 10.3771C87.0947 11.2581 87.6773 12.5753 87.6773 14.3204C87.6773 15.6433 87.3143 16.7297 86.5881 17.5741C85.8619 18.4213 84.8008 18.9814 83.4019 19.2573L88.5048 26.6767H83.4582L78.3018 19.0659V26.6767H73.8349V26.6739ZM78.3018 17.4081H80.3705C81.4007 17.4081 82.1269 17.2054 82.5491 16.8001C82.9713 16.3948 83.1824 15.7418 83.1824 14.8411C83.1824 13.9404 82.9713 13.3353 82.5491 12.9666C82.1269 12.5978 81.4542 12.4149 80.5366 12.4149H78.3018V17.4052V17.4081Z" fill="white"/>
<path d="M97.4019 27.0877C94.9025 27.0877 92.8506 26.2884 91.2519 24.6897C89.6532 23.0909 88.8538 20.8026 88.8538 17.8219V17.7656C88.8538 14.9904 89.611 12.7781 91.1281 11.1343C92.6451 9.49058 94.7364 8.66589 97.4019 8.66589C100.067 8.66589 102.13 9.49058 103.648 11.1343C105.165 12.7809 105.922 14.9904 105.922 17.7656V17.8219C105.922 20.7998 105.137 23.0881 103.563 24.6897C101.993 26.2884 99.9379 27.0877 97.3991 27.0877H97.4019ZM94.4521 22.5111C95.0967 23.3949 96.079 23.834 97.4019 23.834C98.7248 23.834 99.7099 23.3921 100.352 22.5111C100.993 21.6301 101.317 20.2313 101.317 18.3201V17.0254C101.317 13.7351 100.011 12.0885 97.4019 12.0885C94.7927 12.0885 93.4867 13.7351 93.4867 17.0254V18.3201C93.4867 20.2313 93.8076 21.6301 94.4521 22.5111Z" fill="white"/>
<path d="M107.833 26.6739V9.0542H114.478C118.779 9.0542 120.932 10.5994 120.932 13.6871C120.932 14.9734 120.578 15.9388 119.871 16.5834C119.162 17.2279 118.064 17.6304 116.575 17.7965V17.8781C118.303 17.9879 119.581 18.3566 120.409 18.9814C121.236 19.6063 121.65 20.5436 121.65 21.7933C121.65 23.392 121.107 24.6051 120.023 25.4326C118.94 26.2601 117.054 26.6739 114.371 26.6739H107.836H107.833ZM112.3 16.6368H114.231C115.922 16.6368 116.767 15.9107 116.767 14.4583C116.767 13.006 115.984 12.3614 114.422 12.3614H112.3V16.6368ZM112.3 23.6678H114.284C115.48 23.6678 116.283 23.4989 116.696 23.1584C117.11 22.8178 117.318 22.2718 117.318 21.5174C117.318 20.7631 117.088 20.2171 116.629 19.8765C116.17 19.5359 115.371 19.3671 114.231 19.3671H112.3V23.6678Z" fill="white"/>
<path d="M123.24 19.0631V9.0542H127.679V19.8652C127.679 21.1881 127.918 22.1535 128.397 22.7615C128.875 23.3667 129.728 23.6706 130.961 23.6706C132.194 23.6706 133.047 23.3723 133.525 22.7756C134.004 22.1789 134.243 21.2163 134.243 19.8934V9.0542H138.71V19.0912C138.71 21.8862 138.057 23.9183 136.751 25.1849C135.445 26.4543 133.514 27.0876 130.961 27.0876C128.408 27.0876 126.525 26.4487 125.211 25.1708C123.896 23.893 123.238 21.858 123.238 19.0631H123.24Z" fill="white"/>
<path d="M155.552 17.7684V24.6897C154.945 25.3511 154.058 25.9168 152.893 26.3869C151.725 26.8541 150.424 27.0905 148.992 27.0905C146.363 27.0905 144.28 26.2715 142.746 24.6362C141.212 23.0009 140.443 20.7126 140.443 17.7684V17.7122C140.443 14.9538 141.237 12.7584 142.827 11.1203C144.418 9.48495 146.582 8.66589 149.321 8.66589C151.637 8.66589 153.447 9.24571 154.753 10.4025V13.4902C153.52 12.6824 151.93 12.2771 149.982 12.2771C148.437 12.2771 147.244 12.6965 146.396 13.5324C145.549 14.3684 145.127 15.559 145.127 17.1042V18.1794C145.127 20.1468 145.482 21.571 146.188 22.4548C146.895 23.3358 147.959 23.7777 149.374 23.7777C150.055 23.7777 150.689 23.713 151.277 23.5863V17.7684H155.552Z" fill="white"/>
<path d="M163.189 27.0624C160.45 27.0624 158.474 26.4376 157.258 25.1879V22.1537C158.674 23.2205 160.467 23.7524 162.634 23.7524C163.737 23.7524 164.528 23.6004 165.007 23.2965C165.485 22.9925 165.725 22.4915 165.725 21.7934C165.725 21.4078 165.643 21.1095 165.477 20.8984C165.311 20.6873 164.998 20.4987 164.54 20.3326C164.374 20.2595 163.619 20.0709 162.279 19.7669C160.937 19.4629 159.955 19.1195 159.33 18.7339C157.877 17.8895 157.151 16.409 157.151 14.2952C157.151 12.4376 157.784 11.0415 159.054 10.1042C160.323 9.16695 161.894 8.6969 163.768 8.6969C166.141 8.6969 167.858 9.24857 168.925 10.3519V13.524C168.429 13.2116 167.717 12.9273 166.789 12.6684C165.86 12.4122 164.917 12.2828 163.963 12.2828C163.008 12.2828 162.344 12.4038 161.866 12.6402C161.387 12.8795 161.148 13.3101 161.148 13.9378C161.148 14.6189 161.534 15.0946 162.305 15.3704C162.654 15.5168 163.524 15.742 164.911 16.0459C166.299 16.3499 167.287 16.6849 167.875 17.0536C168.666 17.5321 169.218 18.1147 169.53 18.8043C169.842 19.4939 170 20.3523 170 21.3825C170 23.257 169.389 24.6728 168.165 25.6298C166.941 26.5868 165.283 27.0653 163.189 27.0653V27.0624Z" fill="white"/>
</svg>
