<svg width="100" height="27" viewBox="0 0 100 27" fill="none" xmlns="http://www.w3.org/2000/svg">
<path d="M69.768 6.45996C69.7034 7.29976 69.445 8.13955 69.0574 8.91475C68.476 10.2713 67.6362 11.5633 66.7318 12.7261C65.1814 14.7287 65.1814 17.7649 66.7318 19.8321C68.7344 22.4807 72.4165 23.0621 75.1297 21.0595C77.7137 19.1861 78.2305 15.3747 76.3571 12.8553C75.2589 11.4341 74.4191 9.94835 73.8377 8.26875C73.6439 7.75196 73.5147 7.17056 73.3855 6.65376C76.8093 7.10596 81.0083 10.2713 81.4605 15.5039C81.9127 20.9303 77.9721 25.7753 72.4811 26.2921C67.0548 26.8089 62.2098 22.8683 61.6284 17.4419C61.1116 11.6925 65.0522 7.23516 69.768 6.45996Z" fill="#89C149"/>
<path d="M73.9023 18.5403C72.6749 19.7677 70.7369 19.8323 69.4449 18.7341C68.1529 17.6359 67.8299 15.6979 68.7989 14.3413C70.4139 12.1449 71.1245 9.62556 71.2537 6.91236C71.3183 5.81417 71.1891 4.78057 70.7369 3.74698C70.6077 3.48858 70.4785 3.23018 70.2847 2.97178C69.7679 2.26118 69.8325 1.42139 70.4139 0.839988C70.9953 0.25859 71.8997 0.25859 72.5457 0.775388C73.1917 1.22759 73.3209 2.19658 72.8687 2.84258C72.2227 3.74698 71.8997 4.71597 71.8997 5.81417C71.7705 8.65656 72.4811 11.3051 73.9669 13.7599C74.0961 14.0183 74.3545 14.2767 74.4837 14.5351C75.1943 15.8917 74.9359 17.5067 73.9023 18.5403Z" fill="#89C149"/>
<path d="M15.1163 17.5065V22.0931C15.1163 24.3541 13.3076 26.1628 11.0466 26.1628H9.49616V17.4419L0 1.74414H3.68219C5.10338 1.74414 6.45998 2.51934 7.17057 3.74673L12.5324 12.5969L17.8941 3.74673C18.6047 2.51934 19.9613 1.74414 21.3825 1.74414H24.6125L15.1163 17.5065Z" fill="white"/>
<path d="M39.277 18.0232H25.0651C25.5819 20.3488 27.5845 21.77 30.4269 21.77C31.3959 21.77 32.2357 21.6408 33.0108 21.3178C34.5612 20.7364 36.3054 21.1886 37.4036 22.3514L38.0496 23.062C36.3054 25.0646 33.7214 26.0982 30.2977 26.0982C23.8377 26.0982 19.5741 22.0284 19.5741 16.4082C19.5741 10.788 23.8377 6.71826 29.5871 6.71826C35.078 6.71826 39.3416 10.4004 39.3416 16.4728C39.4062 16.9896 39.3416 17.571 39.277 18.0232ZM25.0651 14.8578H34.3028C33.9152 12.4676 32.1711 10.9818 29.7163 10.9818C27.1969 10.9172 25.3881 12.4676 25.0651 14.8578Z" fill="white"/>
<path d="M60.9819 16.4729C60.9819 22.3515 56.9121 26.1629 51.6149 26.1629C49.0955 26.1629 47.0929 25.3877 45.7363 23.7081C45.7363 24.8709 44.7673 25.8399 43.6045 25.8399H40.5684V0H41.925C44.1859 0 45.9947 1.80879 45.9947 4.06978V9.10857C47.4159 7.55817 49.2893 6.84757 51.6149 6.84757C56.9121 6.84757 60.9819 10.5944 60.9819 16.4729ZM55.4909 16.4729C55.4909 13.2429 53.4237 11.305 50.7105 11.305C47.9973 11.305 45.9301 13.2429 45.9301 16.4729C45.9301 19.7029 47.9973 21.6409 50.7105 21.6409C53.4237 21.7055 55.4909 19.7029 55.4909 16.4729Z" fill="white"/>
<path d="M92.6356 24.4186L89.7286 20.3488L86.6925 24.4186C85.9173 25.4522 84.6899 26.0982 83.3979 26.0982H79.5219L86.7571 16.6666L79.7803 7.36426H83.7855C85.0775 7.36426 86.3049 8.01026 87.0801 9.04385L89.8578 12.8552L92.7002 9.04385C93.4754 8.01026 94.7028 7.42886 95.9948 7.42886H99.7416L92.7648 16.602L100 26.1628H95.9302C94.6382 26.1628 93.4108 25.5168 92.6356 24.4186Z" fill="white"/>
</svg>
