<svg width="150" height="49" viewBox="0 0 150 49" fill="none" xmlns="http://www.w3.org/2000/svg">
<path d="M54.4372 20.0701C54.4372 20.6782 54.315 21.2458 54.0707 21.6918C53.8264 22.1377 53.5007 22.5431 53.1342 22.8269C52.7678 23.1512 52.3199 23.3539 51.872 23.5161C51.4241 23.6782 50.9762 23.7593 50.5691 23.7593H37.2546C36.7253 23.7593 36.3588 24.2863 36.5624 24.7323C36.6439 24.8944 36.7253 25.0971 36.8067 25.2998C37.0918 25.8674 37.4989 26.4349 38.0282 26.9214C38.5576 27.4079 39.1683 27.8538 39.8605 28.1782C40.5527 28.5025 41.367 28.7052 42.2628 28.7052C42.7921 28.7052 43.3622 28.6241 43.8915 28.5025C44.4208 28.3403 44.9501 28.1376 45.4387 27.8944C45.7645 27.6917 46.1309 27.5701 46.4567 27.489C46.8231 27.4079 47.1896 27.3674 47.5967 27.3674C48.2075 27.3674 48.7368 27.489 49.1847 27.6917C49.6733 27.8944 50.0805 28.2187 50.4876 28.6241C51.2613 29.4349 51.2205 30.7322 50.3248 31.4214C49.429 32.1511 48.4518 32.7187 47.4339 33.2051C45.8052 33.9349 44.0544 34.2997 42.2221 34.2997C40.512 34.2997 38.924 33.9754 37.4175 33.3268C35.911 32.6781 34.608 31.7862 33.4679 30.6917C32.3279 29.5971 31.4728 28.2592 30.8213 26.7998C30.1699 25.2998 29.8441 23.7188 29.8441 22.0161C29.8441 20.3134 30.1699 18.7323 30.8213 17.2323C31.4728 15.7324 32.3686 14.4351 33.4679 13.3405C34.608 12.2459 35.911 11.354 37.4175 10.7054C38.924 10.0567 40.512 9.73242 42.2221 9.73242C43.6472 9.73242 44.9908 9.97566 46.2938 10.4216C47.5967 10.9081 48.7775 11.5567 49.8362 12.3675C50.8948 13.1783 51.7906 14.1918 52.5642 15.2864C53.3378 16.4215 53.8671 17.6377 54.2336 18.8945C54.2743 19.0972 54.315 19.2999 54.315 19.5026C54.315 19.7053 54.4372 19.908 54.4372 20.0701ZM46.8638 18.6512C47.4746 18.6512 47.8003 17.9621 47.4339 17.5161C47.1081 17.1107 46.7417 16.7459 46.2531 16.381C45.7645 16.0567 45.1944 15.7729 44.5837 15.5297C43.9322 15.2864 43.24 15.2053 42.4664 15.2053C41.6113 15.2053 40.8377 15.327 40.1455 15.6107C39.4533 15.8945 38.8426 16.2188 38.354 16.6242C37.8247 17.0296 37.4175 17.4756 37.0918 17.9215C36.766 18.408 36.5624 18.8539 36.4403 19.2593C36.5217 19.1783 36.6439 19.0566 36.8474 18.935C37.051 18.7729 37.3361 18.6918 37.7025 18.6918H46.8638V18.6512Z" fill="url(#paint0_linear_27_951)"/>
<path d="M60.2598 1.25964C61.9292 1.25964 63.2728 2.59747 63.2728 4.25961V10.219C63.2728 10.7866 63.8836 11.1109 64.3722 10.8271C64.8201 10.5433 65.3087 10.3406 65.7973 10.1785C66.7338 9.85415 67.6703 9.69199 68.6068 9.69199C70.3169 9.69199 71.9048 10.0163 73.3706 10.6649C74.8364 11.3136 76.1394 12.2055 77.2387 13.3001C78.3381 14.4352 79.1932 15.7325 79.8039 17.2324C80.4147 18.7324 80.7404 20.3135 80.7404 22.0162C80.7404 23.7189 80.4147 25.2999 79.8039 26.7999C79.1932 28.2999 78.3381 29.5972 77.2387 30.6918C76.1394 31.8269 74.8772 32.6782 73.4114 33.3269C71.9455 33.9755 70.3576 34.2998 68.6882 34.2998H67.996C67.9553 34.2998 67.9146 34.2998 67.8738 34.2998C66.8966 34.1377 66.0009 33.8539 65.2272 33.489C64.7386 33.2458 64.25 33.0025 63.8429 32.7188C63.4357 32.435 63.0692 32.1512 62.8249 31.8674C62.8249 32.1917 62.7842 32.4755 62.7028 32.7593C62.6214 33.0026 62.5806 33.2458 62.4992 33.408C62.4178 33.5701 62.3363 33.7323 62.2956 33.8134C62.2142 33.8944 62.1735 33.9755 62.1735 33.9755H59.8933C58.4275 33.9755 57.2467 32.7998 57.2467 31.3404V4.25961C57.2467 2.59747 58.5904 1.25964 60.2598 1.25964ZM68.6068 28.3404C69.5025 28.3404 70.3169 28.1783 71.0498 27.854C71.7827 27.5296 72.4341 27.0837 73.0042 26.4756C73.5335 25.908 73.9814 25.2188 74.3071 24.4486C74.6329 23.6783 74.7957 22.8675 74.7957 21.9756C74.7957 21.1243 74.6329 20.273 74.3071 19.5027C73.9814 18.7324 73.5742 18.0432 73.0042 17.4757C72.4749 16.9081 71.8234 16.4622 71.0498 16.0973C70.3169 15.773 69.5025 15.6108 68.6068 15.6108C67.5481 15.6108 66.5302 15.8541 65.5937 16.3406C64.7386 16.7865 64.0057 17.3541 63.4357 18.0838C63.3543 18.2054 63.2728 18.3676 63.2728 18.5297V25.381C63.2728 25.5432 63.3135 25.7053 63.4357 25.827C64.0057 26.5567 64.7386 27.1242 65.5937 27.5702C66.5302 28.0972 67.5074 28.3404 68.6068 28.3404Z" fill="url(#paint1_linear_27_951)"/>
<path d="M83.5498 21.935C83.5498 20.2323 83.8755 18.6513 84.527 17.1513C85.1784 15.6513 86.0742 14.354 87.1736 13.2189C88.2729 12.0838 89.6166 11.2324 91.1231 10.5838C92.6297 9.93516 94.2176 9.61084 95.9277 9.61084C97.6378 9.61084 99.2258 9.93516 100.732 10.5838C102.239 11.2324 103.542 12.1243 104.682 13.2189C105.822 14.3135 106.677 15.6513 107.328 17.1513C107.98 18.6513 108.306 20.2323 108.306 21.935C108.306 23.6377 107.98 25.2188 107.328 26.7188C106.677 28.2187 105.781 29.516 104.682 30.6511C103.542 31.7863 102.239 32.6376 100.732 33.2863C99.2258 33.9349 97.6378 34.2592 95.9277 34.2592C94.2176 34.2592 92.6297 33.9349 91.1231 33.2863C89.6166 32.6376 88.3137 31.7457 87.1736 30.6511C86.0335 29.516 85.1784 28.2187 84.527 26.7188C83.8755 25.2188 83.5498 23.6377 83.5498 21.935ZM89.5352 21.9756C89.5352 22.8269 89.698 23.6783 90.0238 24.4485C90.3495 25.2188 90.7974 25.908 91.4081 26.4755C91.9782 27.0431 92.6704 27.489 93.444 27.8133C94.2176 28.1377 95.032 28.2998 95.9277 28.2998C96.7828 28.2998 97.6378 28.1377 98.4115 27.8133C99.1851 27.489 99.8773 27.0431 100.447 26.4755C101.017 25.908 101.465 25.2188 101.832 24.4485C102.157 23.6783 102.32 22.8675 102.32 21.9756C102.32 21.0837 102.157 20.2729 101.832 19.5026C101.506 18.7324 101.017 18.0432 100.447 17.4756C99.8773 16.9081 99.1851 16.4621 98.4115 16.0973C97.6378 15.7729 96.8235 15.6108 95.9277 15.6108C95.0727 15.6108 94.2176 15.7729 93.444 16.0973C92.6704 16.4216 91.9782 16.9081 91.4081 17.4756C90.8381 18.0432 90.3495 18.7324 90.0238 19.5026C89.698 20.2729 89.5352 21.0837 89.5352 21.9756Z" fill="url(#paint2_linear_27_951)"/>
<path d="M116.205 10.3001C116.246 10.3407 116.327 10.5028 116.49 10.7461C116.653 10.9893 116.734 11.2731 116.775 11.638C116.775 11.8407 116.816 12.0434 116.816 12.2055C116.816 12.4082 116.816 12.5298 116.816 12.692C117.141 12.3271 117.508 11.9623 117.956 11.638C118.404 11.3136 118.851 11.0299 119.381 10.7866C119.91 10.5434 120.439 10.3407 121.009 10.2191C121.579 10.0974 122.15 10.0164 122.72 10.0164C123.371 10.0164 124.063 10.0974 124.796 10.2596C125.122 10.3407 125.407 10.4218 125.733 10.5028C126.425 10.7055 126.873 11.4353 126.751 12.165C126.669 12.5704 126.628 13.0163 126.547 13.4217C126.465 13.8271 126.343 14.192 126.14 14.5163C125.936 14.8406 125.692 15.0839 125.407 15.3271C125.122 15.5298 124.755 15.7325 124.389 15.8136C124.022 15.9352 123.615 15.9758 123.249 15.9758C123.167 15.9758 123.086 15.9758 123.086 15.9758C123.086 15.9758 122.923 15.9758 122.679 15.9758C122.068 15.9758 121.498 16.0568 120.969 16.1785C120.399 16.3406 119.91 16.5028 119.462 16.746C119.014 16.9893 118.607 17.273 118.281 17.5974C117.793 18.0433 117.467 18.6514 117.345 19.3C117.263 19.6244 117.263 19.9081 117.223 20.1919V31.2594C117.223 32.9215 115.879 34.2593 114.21 34.2593C112.54 34.2593 111.197 32.9215 111.197 31.2594V11.0299C111.197 10.6245 111.522 10.3001 111.93 10.3001H116.205Z" fill="url(#paint3_linear_27_951)"/>
<path d="M132.94 15.1649C132.614 14.9622 132.288 14.719 131.962 14.5163C131.596 14.3136 131.433 13.8271 131.759 13.4622C132.084 13.0568 131.922 13.2595 132.003 13.1785C132.207 12.9352 132.492 12.6514 132.777 12.3271C133.062 12.0433 133.428 11.7596 133.795 11.5163C134.69 10.9082 135.708 10.4623 136.767 10.1785C137.826 9.89472 139.006 9.69202 140.309 9.69202C141.694 9.69202 142.915 9.85418 143.933 10.1785C144.951 10.5028 145.847 10.9488 146.539 11.5163C147.272 12.0839 147.842 12.7731 148.29 13.5433C148.738 14.3136 149.104 15.1649 149.348 16.0568C149.593 16.9892 149.756 17.9217 149.878 18.9352C149.959 19.9487 150 20.9622 150 22.0162V32.5161C150 33.3269 149.348 33.9755 148.534 33.9755H145.847C145.358 33.9755 144.87 33.6918 144.707 33.2053C144.544 32.881 144.462 32.5566 144.462 32.2323C144.015 32.5566 143.567 32.8404 143.037 33.0837C142.508 33.3269 141.938 33.5701 141.409 33.7323C140.839 33.8945 140.269 34.0566 139.739 34.1377C139.21 34.2188 138.681 34.2593 138.233 34.2593C136.971 34.2593 135.83 34.0972 134.772 33.7323C133.713 33.3674 132.817 32.881 132.044 32.1918C131.27 31.5431 130.659 30.7323 130.252 29.7999C129.804 28.8675 129.601 27.854 129.601 26.7189C129.601 24.1648 130.578 22.2189 132.573 20.8C134.568 19.3811 137.5 18.6919 141.409 18.6919C142.019 18.6919 142.549 18.7325 142.997 18.773C143.445 18.8135 143.77 18.8541 143.933 18.8946C143.811 17.6784 143.445 16.746 142.834 16.0568C142.223 15.3676 141.368 15.0433 140.269 15.0433C139.576 15.0433 139.006 15.0839 138.599 15.2055C138.192 15.3271 137.826 15.4487 137.5 15.5703C137.174 15.692 136.889 15.8136 136.604 15.9352C136.197 16.0974 135.627 16.1379 134.894 16.0568C134.813 16.0568 134.772 16.0163 134.69 16.0163C134.08 15.773 133.469 15.4893 132.94 15.1649ZM138.233 28.9891C139.088 28.9891 140.065 28.827 141.124 28.5432C142.019 28.2999 142.915 27.9351 143.73 27.5297C143.974 27.408 144.137 27.1648 144.137 26.881V24.6919C144.137 24.327 143.852 24.0027 143.445 23.9621C143.282 23.9621 143.119 23.9621 142.956 23.9216C142.345 23.8811 141.694 23.8811 140.961 23.8811C140.187 23.8811 139.495 23.9621 138.803 24.0838C138.151 24.2054 137.581 24.3675 137.093 24.6108C136.4 24.9351 135.871 25.381 135.627 25.9486C135.586 26.0297 135.545 26.1108 135.545 26.2324C135.423 27.1243 135.668 27.8134 136.238 28.381C136.686 28.7459 137.337 28.9891 138.233 28.9891Z" fill="url(#paint4_linear_27_951)"/>
<path d="M78.0938 41.1105C78.1752 41.1916 78.216 41.3132 78.216 41.4348C78.216 41.5565 78.1752 41.6781 78.0938 41.7592C78.0124 41.8402 77.8902 41.8808 77.7681 41.8808H75.8137V47.6375C75.8137 47.7591 75.7729 47.8807 75.6915 47.9618C75.6101 48.0429 75.4879 48.0834 75.3658 48.0834C75.2436 48.0834 75.1215 48.0429 75.04 47.9618C74.9586 47.8807 74.9179 47.7591 74.9179 47.6375V41.8808H72.9635C72.8413 41.8808 72.7192 41.8402 72.6377 41.7592C72.5563 41.6781 72.5156 41.5565 72.5156 41.4348C72.5156 41.3132 72.5563 41.1916 72.6377 41.1105C72.7192 41.0294 72.8413 40.9889 72.9635 40.9889H77.8495C77.9309 40.9889 78.0124 41.0294 78.0938 41.1105Z" fill="#39BD78"/>
<path d="M79.0302 47.9618C78.9488 47.8807 78.9081 47.7591 78.9081 47.6374V41.5159C78.9081 41.3943 78.9488 41.2726 79.0302 41.1916C79.1117 41.1105 79.2338 41.0699 79.356 41.0699C79.4781 41.0699 79.6003 41.1105 79.6817 41.1916C79.7631 41.2726 79.8039 41.3943 79.8039 41.5159V44.1105H84.0384V41.5159C84.0384 41.3943 84.0792 41.2726 84.1606 41.1916C84.242 41.1105 84.3642 41.0699 84.4863 41.0699C84.6085 41.0699 84.7306 41.1105 84.8121 41.1916C84.8935 41.2726 84.9342 41.3943 84.9342 41.5159V47.6374C84.9342 47.7591 84.8935 47.8807 84.8121 47.9618C84.7306 48.0428 84.6085 48.0834 84.4863 48.0834C84.3642 48.0834 84.242 48.0428 84.1606 47.9618C84.0792 47.8807 84.0384 47.7591 84.0384 47.6374V44.9213H79.8039V47.6374C79.8039 47.7591 79.7631 47.8807 79.6817 47.9618C79.6003 48.0428 79.4781 48.0834 79.356 48.0834C79.2338 48.0834 79.1524 48.0428 79.0302 47.9618Z" fill="#39BD78"/>
<path d="M86.5223 47.9618C86.4408 47.8807 86.4001 47.7591 86.4001 47.6374V41.5159C86.4001 41.3943 86.4408 41.2726 86.5223 41.1916C86.6037 41.1105 86.7259 41.0699 86.848 41.0699H90.9604C91.0826 41.0699 91.2047 41.1105 91.2861 41.1916C91.3676 41.2726 91.4083 41.3943 91.4083 41.5159C91.4083 41.6375 91.3676 41.7591 91.2861 41.8402C91.2047 41.9213 91.0826 41.9618 90.9604 41.9618H87.3366V44.151H89.9425C90.0646 44.151 90.1868 44.1915 90.2682 44.2726C90.3497 44.3537 90.3904 44.4753 90.3904 44.5969C90.3904 44.7186 90.3497 44.8402 90.2682 44.9213C90.1868 45.0023 90.0646 45.0429 89.9425 45.0429H87.3366V47.3131H90.9604C91.0826 47.3131 91.2047 47.3537 91.2861 47.4347C91.3676 47.5158 91.4083 47.5969 91.4083 47.7591C91.4083 47.8807 91.3676 48.0023 91.2861 48.0834C91.2047 48.1645 91.0826 48.205 90.9604 48.205H86.848C86.7259 48.0834 86.6444 48.0428 86.5223 47.9618Z" fill="#39BD78"/>
<path d="M96.05 47.678C95.5207 47.3537 95.0728 46.9078 94.7878 46.3807C94.462 45.8132 94.3399 45.2051 94.3399 44.5564C94.3399 43.9078 94.5027 43.2997 94.7878 42.7321C95.1135 42.1646 95.5207 41.7592 96.05 41.4348C96.5793 41.1105 97.1901 40.9484 97.8415 40.9484C98.2894 40.9484 98.6966 40.9889 99.0223 41.1105C99.3481 41.2321 99.7145 41.4348 100.04 41.7186C100.122 41.7592 100.162 41.8402 100.203 41.8808C100.244 41.9213 100.244 42.0024 100.244 42.0835C100.244 42.2051 100.203 42.2862 100.122 42.3673C100.04 42.4483 99.9181 42.4889 99.8367 42.4889C99.7145 42.4889 99.6331 42.4483 99.5109 42.3673C99.2666 42.1646 99.0223 42.0024 98.778 41.9213C98.5337 41.8402 98.2487 41.7997 97.8415 41.7997C97.3529 41.7997 96.9458 41.9213 96.5386 42.1646C96.1314 42.4078 95.8057 42.7321 95.6021 43.1781C95.3578 43.624 95.2356 44.07 95.2356 44.5564C95.2356 45.0835 95.3578 45.5294 95.6021 45.9348C95.8464 46.3402 96.1314 46.7051 96.5386 46.9483C96.9458 47.1915 97.3529 47.3132 97.8415 47.3132C98.4116 47.3132 98.9816 47.1105 99.5109 46.7051C99.6331 46.624 99.7145 46.5834 99.796 46.5834C99.9181 46.5834 99.9995 46.624 100.081 46.7051C100.162 46.7861 100.203 46.9078 100.203 47.0294C100.203 47.151 100.162 47.2726 100.04 47.3537C99.3888 47.8807 98.6559 48.124 97.8008 48.124C97.1901 48.1645 96.62 48.0023 96.05 47.678Z" fill="#39BD78"/>
<path d="M102.402 47.7185C101.872 47.3942 101.425 46.9888 101.14 46.4213C100.855 45.8537 100.692 45.2456 100.692 44.5564C100.692 43.8672 100.855 43.2186 101.14 42.6916C101.425 42.124 101.872 41.7186 102.402 41.3943C102.931 41.07 103.583 40.9484 104.275 40.9484C104.967 40.9484 105.578 41.1105 106.148 41.3943C106.677 41.7186 107.125 42.124 107.451 42.6916C107.776 43.2591 107.899 43.8672 107.899 44.5564C107.899 45.2456 107.736 45.8942 107.451 46.4213C107.125 46.9888 106.718 47.3942 106.188 47.7185C105.659 48.0429 105.008 48.1645 104.315 48.1645C103.542 48.1645 102.931 48.0023 102.402 47.7185ZM105.659 46.9483C106.066 46.7051 106.392 46.3807 106.636 45.9348C106.881 45.5294 106.962 45.0429 106.962 44.5159C106.962 43.9889 106.84 43.5429 106.636 43.097C106.392 42.6916 106.066 42.3267 105.659 42.0835C105.252 41.8402 104.804 41.7186 104.275 41.7186C103.745 41.7186 103.298 41.8402 102.89 42.0835C102.483 42.3267 102.157 42.651 101.913 43.097C101.669 43.5024 101.587 43.9889 101.587 44.5159C101.587 45.0429 101.71 45.4889 101.913 45.9348C102.157 46.3402 102.483 46.7051 102.89 46.9483C103.298 47.1915 103.786 47.3131 104.275 47.3131C104.763 47.3131 105.252 47.1915 105.659 46.9483Z" fill="#39BD78"/>
<path d="M109.039 47.9618C108.957 47.8807 108.917 47.7591 108.917 47.6374V41.5159C108.917 41.3943 108.957 41.2726 109.039 41.1916C109.12 41.1105 109.242 41.0699 109.364 41.0699C109.487 41.0699 109.609 41.1105 109.69 41.1916C109.772 41.2726 109.812 41.3943 109.812 41.5159V47.1915H113.11C113.233 47.1915 113.355 47.232 113.436 47.3131C113.518 47.3942 113.558 47.5158 113.558 47.6374C113.558 47.7591 113.518 47.8807 113.436 47.9618C113.355 48.0428 113.233 48.0834 113.11 48.0834H109.324C109.242 48.0834 109.12 48.0428 109.039 47.9618Z" fill="#39BD78"/>
<path d="M114.495 47.9618C114.413 47.8807 114.373 47.7591 114.373 47.6374V41.5159C114.373 41.3943 114.413 41.2726 114.495 41.1916C114.576 41.1105 114.698 41.0699 114.821 41.0699C114.943 41.0699 115.065 41.1105 115.146 41.1916C115.228 41.2726 115.268 41.3943 115.268 41.5159V47.1915H118.566C118.689 47.1915 118.811 47.232 118.892 47.3131C118.974 47.3942 119.014 47.5158 119.014 47.6374C119.014 47.7591 118.974 47.8807 118.892 47.9618C118.811 48.0428 118.689 48.0834 118.566 48.0834H114.821C114.658 48.0834 114.576 48.0428 114.495 47.9618Z" fill="#39BD78"/>
<path d="M119.91 47.9618C119.829 47.8807 119.788 47.7591 119.788 47.6374V41.5159C119.788 41.3943 119.829 41.2726 119.91 41.1916C119.992 41.1105 120.114 41.0699 120.236 41.0699H124.348C124.47 41.0699 124.593 41.1105 124.674 41.1916C124.755 41.2726 124.796 41.3943 124.796 41.5159C124.796 41.6375 124.755 41.7591 124.674 41.8402C124.593 41.9213 124.47 41.9618 124.348 41.9618H120.724V44.151H123.33C123.452 44.151 123.575 44.1915 123.656 44.2726C123.738 44.3537 123.778 44.4753 123.778 44.5969C123.778 44.7186 123.738 44.8402 123.656 44.9213C123.575 45.0023 123.452 45.0429 123.33 45.0429H120.724V47.3131H124.348C124.47 47.3131 124.593 47.3537 124.674 47.4347C124.755 47.5158 124.796 47.5969 124.796 47.7591C124.796 47.8807 124.755 48.0023 124.674 48.0834C124.593 48.1645 124.47 48.205 124.348 48.205H120.236C120.114 48.0834 119.992 48.0428 119.91 47.9618Z" fill="#39BD78"/>
<path d="M126.669 47.678C126.14 47.3537 125.692 46.9078 125.407 46.3807C125.081 45.8132 124.959 45.2051 124.959 44.5564C124.959 43.9078 125.122 43.2997 125.407 42.7321C125.733 42.1646 126.14 41.7592 126.669 41.4348C127.198 41.1105 127.809 40.9484 128.461 40.9484C128.909 40.9484 129.316 40.9889 129.641 41.1105C129.967 41.2321 130.334 41.4348 130.659 41.7186C130.741 41.7592 130.782 41.8402 130.822 41.8808C130.863 41.9213 130.863 42.0024 130.863 42.0835C130.863 42.2051 130.822 42.2862 130.741 42.3673C130.659 42.4483 130.537 42.4889 130.456 42.4889C130.334 42.4889 130.252 42.4483 130.13 42.3673C129.886 42.1646 129.641 42.0024 129.397 41.9213C129.153 41.8402 128.868 41.7997 128.461 41.7997C127.972 41.7997 127.565 41.9213 127.158 42.1646C126.751 42.4078 126.425 42.7321 126.221 43.1781C125.977 43.624 125.855 44.07 125.855 44.5564C125.855 45.0835 125.977 45.5294 126.221 45.9348C126.466 46.3402 126.751 46.7051 127.158 46.9483C127.565 47.1915 127.972 47.3132 128.461 47.3132C129.031 47.3132 129.601 47.1105 130.13 46.7051C130.252 46.624 130.334 46.5834 130.415 46.5834C130.537 46.5834 130.619 46.624 130.7 46.7051C130.782 46.7861 130.822 46.9078 130.822 47.0294C130.822 47.151 130.782 47.2726 130.659 47.3537C130.008 47.8807 129.275 48.124 128.42 48.124C127.809 48.1645 127.198 48.0023 126.669 47.678Z" fill="#39BD78"/>
<path d="M136.93 41.1105C137.011 41.1916 137.052 41.3132 137.052 41.4348C137.052 41.5565 137.011 41.6781 136.93 41.7592C136.848 41.8402 136.726 41.8808 136.604 41.8808H134.65V47.6375C134.65 47.7591 134.609 47.8807 134.527 47.9618C134.446 48.0429 134.324 48.0834 134.202 48.0834C134.08 48.0834 133.957 48.0429 133.876 47.9618C133.795 47.8807 133.754 47.7591 133.754 47.6375V41.8808H131.799C131.677 41.8808 131.555 41.8402 131.474 41.7592C131.392 41.6781 131.352 41.5565 131.352 41.4348C131.352 41.3132 131.392 41.1916 131.474 41.1105C131.555 41.0294 131.677 40.9889 131.799 40.9889H136.686C136.767 40.9889 136.848 41.0294 136.93 41.1105Z" fill="#39BD78"/>
<path d="M138.762 47.7185C138.233 47.3942 137.785 46.9888 137.5 46.4213C137.215 45.8537 137.052 45.2456 137.052 44.5564C137.052 43.8672 137.215 43.2186 137.5 42.6916C137.785 42.124 138.233 41.7186 138.762 41.3943C139.291 41.07 139.943 40.9484 140.635 40.9484C141.327 40.9484 141.938 41.1105 142.508 41.3943C143.037 41.7186 143.485 42.124 143.811 42.6916C144.137 43.2591 144.259 43.8672 144.259 44.5564C144.259 45.2456 144.096 45.8942 143.811 46.4213C143.485 46.9888 143.078 47.3942 142.549 47.7185C142.019 48.0429 141.368 48.1645 140.676 48.1645C139.984 48.1645 139.291 48.0023 138.762 47.7185ZM142.019 46.9483C142.427 46.7051 142.752 46.3807 142.997 45.9348C143.241 45.5294 143.322 45.0429 143.322 44.5159C143.322 43.9889 143.2 43.5429 142.997 43.097C142.752 42.6916 142.427 42.3267 142.019 42.0835C141.612 41.8402 141.164 41.7186 140.635 41.7186C140.106 41.7186 139.658 41.8402 139.251 42.0835C138.844 42.3267 138.518 42.651 138.274 43.097C138.029 43.5024 137.948 43.9889 137.948 44.5159C137.948 45.0429 138.07 45.4889 138.274 45.9348C138.518 46.3402 138.844 46.7051 139.251 46.9483C139.658 47.1915 140.147 47.3131 140.635 47.3131C141.124 47.3131 141.612 47.1915 142.019 46.9483Z" fill="#39BD78"/>
<path d="M150 47.6375C150 47.7591 149.959 47.8402 149.878 47.9212C149.796 48.0023 149.674 48.0429 149.552 48.0429C149.389 48.0429 149.226 47.9618 149.145 47.7996L147.598 45.2861H147.394H146.213V47.5564C146.213 47.678 146.173 47.7996 146.091 47.8807C146.01 47.9618 145.888 48.0023 145.765 48.0023C145.643 48.0023 145.521 47.9618 145.44 47.8807C145.358 47.7996 145.318 47.678 145.318 47.5564V41.4348C145.318 41.3132 145.358 41.1916 145.44 41.1105C145.521 41.0294 145.643 40.9889 145.765 40.9889H147.394C147.842 40.9889 148.249 41.07 148.616 41.2727C148.982 41.4754 149.267 41.7186 149.43 42.0429C149.634 42.3673 149.715 42.7727 149.715 43.2186C149.715 43.6645 149.593 44.0294 149.389 44.3537C149.186 44.678 148.86 44.9213 148.493 45.124L149.878 47.3537C149.959 47.4348 150 47.5564 150 47.6375ZM147.394 44.4753C147.801 44.4753 148.127 44.3537 148.412 44.1105C148.697 43.8672 148.819 43.5835 148.819 43.2186C148.819 42.8132 148.697 42.4889 148.412 42.2456C148.127 42.0024 147.801 41.8808 147.394 41.8808H146.213V44.4753H147.394Z" fill="#39BD78"/>
<path d="M19.9513 37.5835C19.707 36.9754 19.9513 36.2862 20.1142 35.7592C21.865 29.8809 27.8911 21.2458 1.79157 5.43521C0.977231 4.94872 0.32576 4.17846 0.122175 3.24604C-0.407146 1.09742 1.26225 -1.09175 6.35187 0.610934C6.47402 0.651474 6.67761 0.732554 6.79976 0.813634L16.9383 5.43521C18.5262 6.16493 20.5621 5.51629 21.4986 4.05684C23.738 0.489314 31.7185 3.28658 26.5475 10.7054C24.8374 12.5703 24.3488 15.2054 25.2038 17.5567C27.2397 23.1107 29.4384 34.2592 22.7201 37.9889C22.7608 37.9889 20.6028 39.3267 19.9513 37.5835Z" fill="url(#paint5_linear_27_951)"/>
<path d="M22.7594 37.9889C22.7594 37.9889 20.6421 39.3267 19.9499 37.5835C19.7056 36.9754 19.9499 36.2862 20.1128 35.7592C21.0493 32.6376 23.2073 28.7052 21.0086 23.3134C20.6014 22.3404 20.0721 21.3269 19.3799 20.2323C19.2985 20.1107 19.217 20.0296 19.1356 19.908C18.5248 19.0161 17.7919 18.0837 16.9369 17.1513C17.4662 14.8405 19.5021 13.1378 21.9858 13.1378C23.0851 13.1378 24.1031 13.5027 24.9581 14.0702C24.7545 15.2054 24.836 16.4216 25.2839 17.5567C25.6503 18.5702 26.0168 19.7459 26.3425 21.0431C27.7676 26.9215 28.2562 34.9484 22.7594 37.9889Z" fill="url(#paint6_linear_27_951)"/>
<path d="M26.1807 28.2572C26.1807 28.014 26.14 27.7707 26.14 27.5275C26.14 27.4869 26.14 27.4464 26.14 27.4059C26.14 27.2437 26.0993 27.0815 26.0993 26.9194C26.0993 26.9194 26.0993 26.9194 26.0993 26.8788C26.0993 26.7978 26.0585 26.7167 26.0585 26.6356C26.0178 26.4329 25.9771 26.2302 25.9364 26.0275C25.9364 25.9464 25.8957 25.8653 25.8957 25.7843C25.8957 25.7032 25.855 25.6221 25.8142 25.541C25.8142 25.5005 25.7735 25.4599 25.7735 25.4194C25.6514 25.014 25.5292 24.6491 25.3664 24.2437C25.3256 24.1627 25.2849 24.041 25.2442 23.96C25.1628 23.7573 25.0813 23.5546 24.9999 23.3924C24.9592 23.3519 24.9592 23.2708 24.9185 23.2302C24.8778 23.1492 24.8778 23.1086 24.837 23.0275C24.7963 22.9465 24.7556 22.9059 24.7556 22.8248C24.7149 22.7438 24.6742 22.7032 24.6742 22.6221C24.6335 22.5411 24.5927 22.5005 24.5927 22.4194C24.552 22.3384 24.5113 22.2978 24.4706 22.2167C24.3891 22.0951 24.3077 21.9735 24.267 21.8113C24.1856 21.6897 24.1041 21.5681 24.0227 21.4059C23.982 21.3249 23.9413 21.2843 23.9005 21.2032C23.8191 21.0816 23.7377 20.9194 23.6562 20.7978C23.6562 20.7573 23.6155 20.7573 23.6155 20.7167C23.5748 20.6357 23.4934 20.5546 23.4527 20.4735C23.2084 20.1492 22.9641 19.7843 22.7198 19.46C22.2719 18.8924 21.7833 18.2843 21.2539 17.7168C20.3989 16.7844 19.4217 15.8114 18.2816 14.7574C15.35 12.1222 11.3597 9.20336 6.10723 6.00069C5.29289 5.51421 4.64142 4.74395 4.43783 3.81153C4.1121 2.39262 4.68214 1.01426 6.55512 0.649399C6.5144 0.649399 6.47368 0.608859 6.43297 0.608859C1.26191 -1.09383 -0.407486 1.09534 0.0811173 3.24397C0.284702 4.17639 0.936174 4.94665 1.75051 5.43313C9.03885 9.852 13.8435 13.7439 16.8972 17.1087C17.3858 17.6762 17.8337 18.2033 18.2816 18.7303C18.3223 18.8114 18.4038 18.8924 18.4445 18.9735C18.6888 19.2978 18.8924 19.5816 19.0959 19.9059C19.1367 19.987 19.2181 20.0681 19.2588 20.1492C19.2588 20.1897 19.2995 20.1897 19.2995 20.2303L19.4217 20.433C19.5845 20.7167 19.7474 20.96 19.9103 21.2032C19.951 21.2843 19.9917 21.3249 20.0324 21.4059C20.0732 21.487 20.1139 21.5275 20.1546 21.6086C20.1953 21.6897 20.236 21.7303 20.2767 21.8113C20.3175 21.8924 20.3582 21.933 20.3582 22.014C20.3989 22.0951 20.4396 22.1357 20.4396 22.2167C20.4803 22.2978 20.521 22.3384 20.521 22.4194C20.6025 22.6221 20.6839 22.7843 20.7653 22.987C20.8061 23.0681 20.8061 23.1086 20.8468 23.1897C20.8875 23.2708 20.8875 23.3113 20.9282 23.3924C20.9689 23.4735 21.0096 23.5951 21.0504 23.6762C21.1318 23.8789 21.2132 24.1221 21.2947 24.3248C21.3354 24.4059 21.3354 24.4464 21.3761 24.5275C21.3761 24.5681 21.4168 24.6086 21.4168 24.6491C21.4168 24.7302 21.4575 24.7708 21.4575 24.8518C21.4575 24.8518 21.4575 24.8518 21.4575 24.8924C21.4575 24.9329 21.4982 24.9735 21.4982 25.014C21.4982 25.014 21.4982 25.014 21.4982 25.0545C21.539 25.1356 21.539 25.2167 21.539 25.2572C21.5797 25.3383 21.5797 25.4194 21.5797 25.5005C21.5797 25.541 21.5797 25.541 21.5797 25.5816V25.6221C21.5797 25.7032 21.6204 25.7843 21.6204 25.8653C21.6204 25.9059 21.6204 25.9464 21.6611 25.987C21.7018 26.1086 21.7018 26.2707 21.7425 26.3924C21.7833 26.5545 21.7833 26.7572 21.824 26.9194C21.824 26.9599 21.824 27.0005 21.824 27.041C21.824 27.1221 21.824 27.2032 21.824 27.2437C21.824 27.2842 21.824 27.3653 21.824 27.4059C21.824 27.4464 21.824 27.4869 21.824 27.5275C21.824 27.6086 21.824 27.6896 21.824 27.7302C21.824 28.5004 21.7833 29.2707 21.6611 30.0004C21.6204 30.1626 21.6204 30.3653 21.5797 30.5275C21.5797 30.6085 21.539 30.6896 21.539 30.7707C21.4575 31.2166 21.3354 31.622 21.2132 32.0274C21.1318 32.2707 21.0504 32.5545 20.9689 32.7977C20.6432 33.8923 20.236 34.8652 19.951 35.7977C19.9103 35.9193 19.8696 36.0814 19.8288 36.2436C19.7881 36.3652 19.7881 36.4463 19.7474 36.5679C19.666 36.9328 19.666 37.2976 19.7881 37.622C19.8696 37.8652 19.9917 38.0274 20.1139 38.149L20.1546 38.1895L20.1953 38.2301C20.236 38.2706 20.2767 38.2706 20.3175 38.3111C20.3175 38.3111 20.3582 38.3111 20.3582 38.3517C20.3989 38.3517 20.3989 38.3922 20.4396 38.3922H20.4803C20.521 38.3922 20.521 38.4328 20.5618 38.4328H20.6025C20.6432 38.4328 20.6432 38.4328 20.6839 38.4733C20.7246 38.5139 20.7246 38.4733 20.7653 38.4733C20.8061 38.4733 20.8468 38.4733 20.8468 38.4733C21.0096 38.4733 21.1725 38.4733 21.3761 38.4328C21.4168 38.4328 21.4575 38.4328 21.4982 38.3922C21.7833 38.3111 22.0683 38.1895 22.2719 38.1084C22.3126 38.1084 22.3126 38.0679 22.3533 38.0679C22.4755 37.9868 22.5569 37.9463 22.5569 37.9463C22.7605 37.8247 22.9641 37.703 23.1676 37.5814C23.2491 37.5409 23.3305 37.4598 23.4119 37.4193C23.4934 37.3787 23.5341 37.3382 23.6155 37.2571C23.697 37.176 23.7784 37.0949 23.9005 37.0544C23.9413 37.0139 23.982 36.9733 24.0227 36.9733C24.0227 36.9328 24.0227 36.8922 24.0634 36.8517C24.0634 36.8112 24.0634 36.7706 24.1041 36.7301C24.1448 36.5679 24.1856 36.4058 24.2263 36.2841C24.5113 35.3517 24.8778 34.3788 25.2442 33.2842V33.2436C25.2849 33.0815 25.3256 32.9193 25.3664 32.7977C25.4478 32.5545 25.5292 32.3112 25.5699 32.0274C25.6107 31.9464 25.6107 31.8653 25.6107 31.7842C25.6514 31.7031 25.6514 31.622 25.6514 31.541C25.6921 31.3788 25.7328 31.2166 25.7735 31.0139C25.8142 30.8518 25.855 30.6491 25.855 30.4869C25.855 30.4058 25.8957 30.3248 25.8957 30.2031C25.8957 30.122 25.9364 30.041 25.9364 29.9193C25.9364 29.8383 25.9364 29.7572 25.9771 29.6356C25.9771 29.5545 25.9771 29.4734 25.9771 29.4329C25.9771 29.3923 25.9771 29.3518 25.9771 29.3112C25.9771 29.2707 25.9771 29.2302 25.9771 29.1896C25.9771 29.1491 25.9771 29.1085 25.9771 29.0275C25.9771 28.9464 25.9771 28.8653 25.9771 28.7842C25.9771 28.7031 25.9771 28.5815 25.9771 28.5004C26.1807 28.4194 26.1807 28.3383 26.1807 28.2572Z" fill="#1B75BC"/>
<defs>
<linearGradient id="paint0_linear_27_951" x1="27.8558" y1="22.3251" x2="213.904" y2="17.5009" gradientUnits="userSpaceOnUse">
<stop stop-color="#1B75BC"/>
<stop offset="0.2442" stop-color="#1C78BE"/>
<stop offset="0.4215" stop-color="#1E81C5"/>
<stop offset="0.5777" stop-color="#2291D0"/>
<stop offset="0.7209" stop-color="#28A7DF"/>
<stop offset="0.7405" stop-color="#29ABE2"/>
</linearGradient>
<linearGradient id="paint1_linear_27_951" x1="27.7619" y1="18.7032" x2="213.81" y2="13.8789" gradientUnits="userSpaceOnUse">
<stop stop-color="#1B75BC"/>
<stop offset="0.2442" stop-color="#1C78BE"/>
<stop offset="0.4215" stop-color="#1E81C5"/>
<stop offset="0.5777" stop-color="#2291D0"/>
<stop offset="0.7209" stop-color="#28A7DF"/>
<stop offset="0.7405" stop-color="#29ABE2"/>
</linearGradient>
<linearGradient id="paint2_linear_27_951" x1="27.8914" y1="23.7023" x2="213.939" y2="18.878" gradientUnits="userSpaceOnUse">
<stop stop-color="#1B75BC"/>
<stop offset="0.2442" stop-color="#1C78BE"/>
<stop offset="0.4215" stop-color="#1E81C5"/>
<stop offset="0.5777" stop-color="#2291D0"/>
<stop offset="0.7209" stop-color="#28A7DF"/>
<stop offset="0.7405" stop-color="#29ABE2"/>
</linearGradient>
<linearGradient id="paint3_linear_27_951" x1="27.911" y1="24.4491" x2="213.958" y2="19.6249" gradientUnits="userSpaceOnUse">
<stop stop-color="#1B75BC"/>
<stop offset="0.2442" stop-color="#1C78BE"/>
<stop offset="0.4215" stop-color="#1E81C5"/>
<stop offset="0.5777" stop-color="#2291D0"/>
<stop offset="0.7209" stop-color="#28A7DF"/>
<stop offset="0.7405" stop-color="#29ABE2"/>
</linearGradient>
<linearGradient id="paint4_linear_27_951" x1="27.9205" y1="24.8245" x2="213.968" y2="20.0003" gradientUnits="userSpaceOnUse">
<stop stop-color="#1B75BC"/>
<stop offset="0.2442" stop-color="#1C78BE"/>
<stop offset="0.4215" stop-color="#1E81C5"/>
<stop offset="0.5777" stop-color="#2291D0"/>
<stop offset="0.7209" stop-color="#28A7DF"/>
<stop offset="0.7405" stop-color="#29ABE2"/>
</linearGradient>
<linearGradient id="paint5_linear_27_951" x1="2.38344e-05" y1="19.2451" x2="28.265" y2="19.2451" gradientUnits="userSpaceOnUse">
<stop stop-color="#1B75BC"/>
<stop offset="0.2442" stop-color="#1C78BE"/>
<stop offset="0.4215" stop-color="#1E81C5"/>
<stop offset="0.5777" stop-color="#2291D0"/>
<stop offset="0.7209" stop-color="#28A7DF"/>
<stop offset="0.7405" stop-color="#29ABE2"/>
</linearGradient>
<linearGradient id="paint6_linear_27_951" x1="22.6125" y1="40.6597" x2="22.0152" y2="19.9339" gradientUnits="userSpaceOnUse">
<stop offset="0.5027" stop-color="#2BB673"/>
<stop offset="0.6061" stop-color="#2BB677" stop-opacity="0.7921"/>
<stop offset="0.6989" stop-color="#2BB581" stop-opacity="0.6054"/>
<stop offset="0.7878" stop-color="#2AB394" stop-opacity="0.4268"/>
<stop offset="0.8741" stop-color="#2AB0AE" stop-opacity="0.2532"/>
<stop offset="0.9579" stop-color="#29ADCE" stop-opacity="0.0847222"/>
<stop offset="1" stop-color="#29ABE2" stop-opacity="0"/>
</linearGradient>
</defs>
</svg>
