<svg width="21" height="21" viewBox="0 0 21 21" fill="none" xmlns="http://www.w3.org/2000/svg">
<path d="M11.5 9.5H15.5V11.5H11.5V15.5H9.5V11.5H5.5V9.5H9.5V5.5H11.5V9.5ZM10.5 20.5C7.84784 20.5 5.3043 19.4464 3.42893 17.5711C1.55357 15.6957 0.5 13.1522 0.5 10.5C0.5 7.84784 1.55357 5.3043 3.42893 3.42893C5.3043 1.55357 7.84784 0.5 10.5 0.5C13.1522 0.5 15.6957 1.55357 17.5711 3.42893C19.4464 5.3043 20.5 7.84784 20.5 10.5C20.5 13.1522 19.4464 15.6957 17.5711 17.5711C15.6957 19.4464 13.1522 20.5 10.5 20.5ZM10.5 18.5C12.6217 18.5 14.6566 17.6571 16.1569 16.1569C17.6571 14.6566 18.5 12.6217 18.5 10.5C18.5 8.37827 17.6571 6.34344 16.1569 4.84315C14.6566 3.34285 12.6217 2.5 10.5 2.5C8.37827 2.5 6.34344 3.34285 4.84315 4.84315C3.34285 6.34344 2.5 8.37827 2.5 10.5C2.5 12.6217 3.34285 14.6566 4.84315 16.1569C6.34344 17.6571 8.37827 18.5 10.5 18.5Z" fill="white"/>
</svg>
