<svg width="15" height="15" viewBox="0 0 15 15" fill="none" xmlns="http://www.w3.org/2000/svg">
<g clip-path="url(#clip0_5950_8907)">
<path d="M14.0325 13.562H0.770686C0.404276 13.562 0.107422 13.8589 0.107422 14.2256C0.107422 14.5917 0.404276 14.8885 0.770686 14.8885H14.0322C14.3986 14.8885 14.6955 14.5917 14.6955 14.2256C14.6952 13.8589 14.3983 13.562 14.0325 13.562Z" fill="#FF7115"/>
<path d="M1.59881 11.8376C1.2324 11.8376 0.935547 12.1344 0.935547 12.5008C0.935547 12.8672 1.2324 13.1644 1.59881 13.1644H13.2028C13.5692 13.1644 13.8661 12.8672 13.8661 12.5008C13.8661 12.1344 13.5692 11.8376 13.2028 11.8376H13.0373V5.86943H13.2028C13.3863 5.86943 13.5341 5.721 13.5341 5.53811C13.5341 5.35521 13.3857 5.20679 13.2028 5.20679H1.59881C1.41561 5.20679 1.26749 5.35521 1.26749 5.53811C1.26749 5.721 1.41592 5.86943 1.59881 5.86943H1.76463V11.8373H1.59881V11.8376ZM11.7108 5.86943V11.8373H9.72162V5.86943H11.7108ZM8.39509 5.86943V11.8373H6.40592V5.86943H8.39509ZM3.09053 5.86943H5.0797V11.8373H3.09053V5.86943Z" fill="#FF7115"/>
<path d="M0.770698 4.61182H14.0322C14.0344 4.61182 14.0369 4.61182 14.0388 4.61182C14.4055 4.61182 14.702 4.31496 14.702 3.94855C14.702 3.65729 14.5145 3.41043 14.254 3.321L7.67411 0.360224C7.50115 0.282595 7.30335 0.282595 7.13008 0.360224L0.498686 3.34398C0.213321 3.47253 0.0565097 3.78243 0.122339 4.08798C0.187858 4.39352 0.458008 4.61182 0.770698 4.61182Z" fill="#FF7115"/>
</g>
<defs>
<clipPath id="clip0_5950_8907">
<rect width="14.5946" height="14.5946" fill="white" transform="translate(0.107422 0.297363)"/>
</clipPath>
</defs>
</svg>
