<svg width="16" height="16" viewBox="0 0 16 16" fill="none" xmlns="http://www.w3.org/2000/svg">
<g clip-path="url(#clip0_5959_9627)">
<path d="M6.49935 12.9999C4.93735 12.9999 3.66602 11.7286 3.66602 10.1666V3.33325H2.49935C1.48802 3.33325 0.666016 4.15525 0.666016 5.16658V14.1666C0.666016 15.1779 1.48802 15.9999 2.49935 15.9999H10.8327C11.844 15.9999 12.666 15.1779 12.666 14.1666V12.9999H6.49935Z" fill="#137C4B"/>
<path d="M15.3327 1.83333C15.3327 0.820667 14.512 0 13.4993 0H6.49935C5.48668 0 4.66602 0.820667 4.66602 1.83333V10.1667C4.66602 11.1793 5.48668 12 6.49935 12H13.4993C14.512 12 15.3327 11.1793 15.3327 10.1667V1.83333Z" fill="#137C4B"/>
</g>
<defs>
<clipPath id="clip0_5959_9627">
<rect width="16" height="16" fill="white"/>
</clipPath>
</defs>
</svg>
