<svg width="25" height="24" viewBox="0 0 25 24" fill="none" xmlns="http://www.w3.org/2000/svg">
<path d="M6.87718 19.8857H16.9824C17.4473 19.8857 17.8244 19.5789 17.8244 19.2C17.8244 18.8215 17.447 18.5144 16.9824 18.5144L6.87718 18.5142C6.41225 18.5142 6.03516 18.8215 6.03516 19.1998C6.03516 19.5789 6.41256 19.8857 6.87718 19.8857V19.8857Z" fill="#9999B4"/>
<path d="M6.87718 16.457H16.9824C17.4473 16.457 17.8244 16.1502 17.8244 15.7713C17.8244 15.3928 17.447 15.0857 16.9824 15.0857L6.87718 15.0854C6.41225 15.0854 6.03516 15.3928 6.03516 15.7711C6.03516 16.1502 6.41256 16.457 6.87718 16.457V16.457Z" fill="#9999B4"/>
<path d="M6.87718 13.0288H16.9824C17.4473 13.0288 17.8244 12.7219 17.8244 12.3431C17.8244 11.9645 17.447 11.6575 16.9824 11.6575L6.87718 11.6572C6.41225 11.6572 6.03516 11.9645 6.03516 12.3429C6.03516 12.7219 6.41256 13.0288 6.87718 13.0288V13.0288Z" fill="#9999B4"/>
<path d="M7.71954 3.42855C7.71954 4.5631 6.58647 5.48581 5.19309 5.48581H3.19769L7.71954 2.21246V3.42855ZM24.1405 2.7429C24.1405 1.23428 22.6247 0 20.772 0L8.56157 0.000717471V0.00693555C8.3595 0.00693555 8.15949 0.0593108 8.00207 0.173147L0.423168 5.65895C0.239898 5.79121 0.147086 5.97942 0.147086 6.17147H0.140625V21.2571C0.140625 22.7657 1.6564 24 3.5091 24H20.7722C22.6248 24 24.1406 22.7657 24.1406 21.2571L24.1405 2.7429ZM1.82484 6.8571H5.19332C7.51503 6.8571 9.40382 5.31909 9.40382 3.42855V1.37203L20.7722 1.37132C21.7006 1.37132 22.4562 1.98643 22.4562 2.74261V21.2568C22.4562 22.0128 21.7005 22.6281 20.7722 22.6281L3.50912 22.6286C2.58018 22.6286 1.82507 22.0132 1.82507 21.2573L1.82484 6.8571Z" fill="#9999B4"/>
<path d="M16.1392 5.82833V8.22826H13.1919V5.82833H16.1392ZM16.5603 4.45703H12.771C12.0764 4.45703 11.5078 4.9198 11.5078 5.48566V8.57123C11.5078 9.13684 12.0761 9.59986 12.771 9.59986H16.5603C17.2549 9.59986 17.8236 9.13709 17.8236 8.57123V5.48566C17.8236 4.91981 17.255 4.45703 16.5603 4.45703Z" fill="#9999B4"/>
</svg>
