<svg width="15" height="15" viewBox="0 0 15 15" fill="none" xmlns="http://www.w3.org/2000/svg">
<g clip-path="url(#clip0_5950_8935)">
<path d="M8.87305 6.13037V9.58622C9.04599 9.45139 9.23358 9.34 9.42997 9.24914V6.13037H8.87305Z" fill="#3A76EC" stroke="#3A76EC"/>
<path d="M11.1602 4.6062V9.02054C11.3507 9.04693 11.5383 9.09969 11.7171 9.17003V4.6062H11.1602Z" fill="#3A76EC" stroke="#3A76EC"/>
<path d="M11.8465 9.88224C11.5446 9.70051 11.2016 9.59206 10.8499 9.56568H10.847C10.7854 9.55982 10.7268 9.55688 10.6652 9.55688C10.3956 9.55688 10.1259 9.60378 9.87382 9.69758C9.84451 9.71517 9.81227 9.72982 9.77709 9.73569C8.90947 10.0933 8.34375 10.9404 8.34375 11.8784C8.34375 13.1564 9.38138 14.1969 10.6623 14.1969C11.4801 14.1969 12.2393 13.766 12.6584 13.0596C13.3121 11.9575 12.9486 10.5359 11.8465 9.88224ZM10.6652 11.6409C11.058 11.6409 11.4127 11.8813 11.5563 12.2477C11.7468 12.7372 11.5065 13.2912 11.014 13.4847V13.6459C11.014 13.8071 10.8821 13.939 10.7209 13.939C10.5597 13.939 10.4278 13.8071 10.4278 13.6459V13.514C10.0087 13.4055 9.71554 13.0245 9.71261 12.5906V12.5877C9.70968 12.4265 9.83865 12.2975 9.99986 12.2975C10.1611 12.2975 10.293 12.4294 10.293 12.5906C10.293 12.7929 10.4571 12.96 10.6594 12.96C10.8616 12.96 11.0287 12.7958 11.0287 12.5936C11.0287 12.3913 10.8646 12.2242 10.6623 12.2242C10.2285 12.2242 9.85037 11.9311 9.74485 11.509C9.61295 10.999 9.92072 10.4773 10.4307 10.3454V10.1343C10.4307 9.97311 10.5626 9.84121 10.7239 9.84121C10.8851 9.84121 11.017 9.97311 11.017 10.1343V10.3776C11.3834 10.5212 11.6237 10.8759 11.6237 11.2687C11.6208 11.4328 11.4889 11.5618 11.3248 11.5618C11.1635 11.5618 11.0316 11.4299 11.0316 11.2687C11.0316 11.0664 10.8675 10.8994 10.6623 10.8994C10.4571 10.9023 10.2959 11.0664 10.2959 11.2716C10.2959 11.4768 10.4601 11.6409 10.6652 11.6409Z" fill="#3A76EC"/>
<path d="M4.82841 8.47534H4.27148V12.5204H4.82841V8.47534Z" fill="#3A76EC" stroke="#3A76EC"/>
<path d="M7.14481 7.80127H6.58789V12.5205H7.14481V7.80127Z" fill="#3A76EC" stroke="#3A76EC"/>
<path d="M2.51395 10.9961H1.95703V12.5203H2.51395V10.9961Z" fill="#3A76EC" stroke="#3A76EC"/>
<path d="M12.2583 0.297363L10.2534 0.300294C10.0922 0.297363 9.96028 0.429266 9.95735 0.59048C9.95442 0.751695 10.0863 0.883597 10.2475 0.886529C10.2505 0.886529 10.2505 0.886529 10.2534 0.886529L11.5519 0.883597L8.37158 4.05219L7.26067 2.95007C7.20498 2.89731 7.12877 2.87093 7.05256 2.87386C6.97635 2.87093 6.90014 2.89731 6.84444 2.95007L1.2166 8.57792C1.10228 8.69224 1.10228 8.8769 1.2166 8.98829C1.27229 9.04398 1.34557 9.07329 1.42471 9.07329C1.50385 9.07329 1.57713 9.04398 1.63282 8.98829L7.05549 3.56562L8.1664 4.68533C8.21916 4.74395 8.29537 4.77619 8.37452 4.77912C8.45366 4.77619 8.52694 4.74395 8.58263 4.68533L11.9652 1.29982L11.9623 2.60419C11.9623 2.76834 12.0912 2.90024 12.2554 2.90611C12.4195 2.90317 12.5485 2.76834 12.5485 2.60419L12.5514 0.593412C12.5514 0.432197 12.4195 0.297363 12.2583 0.297363Z" fill="#3A76EC" stroke="#3A76EC"/>
</g>
<defs>
<clipPath id="clip0_5950_8935">
<rect width="13.8996" height="13.8996" fill="white" transform="translate(0.107422 0.297363)"/>
</clipPath>
</defs>
</svg>
