<svg width="24" height="24" viewBox="0 0 24 24" fill="none" xmlns="http://www.w3.org/2000/svg">
<path opacity="0.4" d="M2 6.447C2 3.996 4.03024 2 6.52453 2H11.4856C13.9748 2 16 3.99 16 6.437V17.553C16 20.005 13.9698 22 11.4744 22H6.51537C4.02515 22 2 20.01 2 17.563V16.623V6.447Z" fill="white"/>
<path d="M21.7792 11.455L18.9334 8.54604C18.6393 8.24604 18.166 8.24604 17.8728 8.54804C17.5807 8.85004 17.5816 9.33704 17.8748 9.63704L19.434 11.23H17.9391H9.54875C9.13483 11.23 8.79883 11.575 8.79883 12C8.79883 12.426 9.13483 12.77 9.54875 12.77H19.434L17.8748 14.363C17.5816 14.663 17.5807 15.15 17.8728 15.452C18.0199 15.603 18.2118 15.679 18.4046 15.679C18.5955 15.679 18.7873 15.603 18.9334 15.454L21.7792 12.546C21.9204 12.401 22.0003 12.205 22.0003 12C22.0003 11.796 21.9204 11.6 21.7792 11.455Z" fill="white"/>
</svg>
