<svg width="30" height="30" viewBox="0 0 30 30" fill="none" xmlns="http://www.w3.org/2000/svg">
<rect x="0.5" y="0.5" width="29" height="29" rx="7.5" stroke="#137C4B"/>
<path fill-rule="evenodd" clip-rule="evenodd" d="M7.5 10.9326C7.5 9.82805 8.39543 8.93262 9.5 8.93262H20.5C21.6046 8.93262 22.5 9.82805 22.5 10.9326V14.9473C22.229 14.8933 21.9506 14.8652 21.6666 14.8652C18.9052 14.8652 16.6666 17.5214 16.6666 20.7978C16.6666 21.1347 16.6903 21.4651 16.7358 21.7866H9.5C8.39543 21.7866 7.5 20.8912 7.5 19.7866V10.9326ZM20.1203 10.7516C20.4242 10.5574 20.8033 10.6923 20.9669 11.053C21.1306 11.4136 21.0169 11.8633 20.7129 12.0575L15.2963 15.5182C15.1113 15.6364 14.8886 15.6364 14.7036 15.5182L9.28698 12.0575C8.98306 11.8633 8.86935 11.4136 9.033 11.053C9.19665 10.6923 9.57569 10.5574 9.87961 10.7516L15 14.023L20.1203 10.7516Z" fill="#137C4B"/>
<path opacity="0.3" fill-rule="evenodd" clip-rule="evenodd" d="M21.2474 22.7754C22.398 22.7754 23.3307 21.6687 23.3307 20.3035C23.3307 18.9383 22.398 17.8315 21.2474 17.8315C20.0968 17.8315 19.1641 18.9383 19.1641 20.3035C19.1641 21.6687 20.0968 22.7754 21.2474 22.7754Z" fill="#137C4B"/>
</svg>
