<svg width="24" height="24" viewBox="0 0 24 24" fill="none" xmlns="http://www.w3.org/2000/svg">
<path opacity="0.4" d="M16.191 2H7.81C4.77 2 3 3.78 3 6.83V17.16C3 20.26 4.77 22 7.81 22H16.191C19.28 22 21 20.26 21 17.16V6.83C21 3.78 19.28 2 16.191 2Z" fill="white"/>
<path fill-rule="evenodd" clip-rule="evenodd" d="M8.08094 6.6499V6.6599C7.64994 6.6599 7.30094 7.0099 7.30094 7.4399C7.30094 7.8699 7.64994 8.2199 8.08094 8.2199H11.0699C11.5009 8.2199 11.8509 7.8699 11.8509 7.4289C11.8509 6.9999 11.5009 6.6499 11.0699 6.6499H8.08094ZM15.9209 12.7399H8.08094C7.64994 12.7399 7.30094 12.3899 7.30094 11.9599C7.30094 11.5299 7.64994 11.1789 8.08094 11.1789H15.9209C16.3509 11.1789 16.7009 11.5299 16.7009 11.9599C16.7009 12.3899 16.3509 12.7399 15.9209 12.7399ZM15.9209 17.3099H8.08094C7.78094 17.3499 7.49094 17.1999 7.33094 16.9499C7.17094 16.6899 7.17094 16.3599 7.33094 16.1099C7.49094 15.8499 7.78094 15.7099 8.08094 15.7399H15.9209C16.3199 15.7799 16.6209 16.1199 16.6209 16.5299C16.6209 16.9289 16.3199 17.2699 15.9209 17.3099Z" fill="white"/>
</svg>
