<svg width="108" height="22" viewBox="0 0 108 22" fill="none" xmlns="http://www.w3.org/2000/svg">
<path d="M0 0L10.4963 3.9906V11.9718L0 7.9812V0Z" fill="white"/>
<path d="M0 9.54248L10.4963 13.5331V21.5144L0 17.5238V9.54248Z" fill="white"/>
<path d="M20.9057 0L10.4961 3.9906V11.9718L20.9057 7.9812V0Z" fill="#9D9D9C"/>
<path d="M25.0684 3.99072H31.3141C32.9623 3.99072 34.2635 4.42449 35.2177 5.29202C36.1719 6.15956 36.6924 7.37406 36.6924 8.93562C36.6924 10.4972 36.1719 11.7118 35.2177 12.5793C34.2635 13.4469 32.9623 13.8806 31.3141 13.8806H28.7117V18.1316H25.1551V3.99072H25.0684ZM30.7069 10.8443C31.4008 10.8443 32.0081 10.6708 32.355 10.4105C32.7888 10.1502 32.9623 9.62967 32.9623 8.84889C32.9623 8.06811 32.7888 7.63439 32.355 7.37413C31.9213 7.11387 31.4008 6.94036 30.6201 6.94036H28.5382V10.8443H30.7069Z" fill="white"/>
<path d="M37.9941 3.12305H41.5507V18.0444H37.9941V3.12305Z" fill="white"/>
<path d="M44.1512 17.4377C43.3704 16.8304 43.0234 16.0496 43.0234 15.0086C43.0234 13.8808 43.3704 13.1001 44.0644 12.4928C44.7584 11.8856 45.7993 11.6253 47.1873 11.6253C47.7078 11.6253 48.2282 11.712 48.7487 11.7988C49.2692 11.8855 49.7029 12.059 50.1366 12.2325V12.0591C50.1366 11.018 49.2692 10.4975 47.621 10.4975C46.4066 10.4975 45.3656 10.7578 44.4114 11.1915V8.76242C44.8451 8.58892 45.3656 8.41543 46.1463 8.24193C46.8403 8.15518 47.5343 8.06836 48.315 8.06836C50.1366 8.06836 51.4378 8.41543 52.3921 9.10946C53.3463 9.80348 53.78 10.8445 53.78 12.1458V18.0449H50.4836V17.1774C50.1366 17.5244 49.7029 17.7847 49.0957 18.0449C48.5752 18.2184 47.8812 18.3052 47.1873 18.3052C45.8861 18.3052 44.9319 18.045 44.1512 17.4377ZM49.2692 15.8761C49.6162 15.7026 49.8764 15.5292 50.1366 15.1821V14.3146C49.5294 13.9676 48.9222 13.7073 48.1415 13.7073C47.7078 13.7073 47.274 13.7941 47.0138 13.9676C46.7535 14.1411 46.6668 14.4881 46.6668 14.8351C46.6668 15.1821 46.7535 15.4424 47.0138 15.7026C47.274 15.8761 47.621 15.9629 48.0547 15.9629C48.5752 16.1364 48.9222 16.0496 49.2692 15.8761Z" fill="white"/>
<path d="M55.5164 8.32799H58.8995V9.369C59.3333 8.93523 59.8537 8.58825 60.3742 8.32799C60.9815 8.06773 61.5887 7.98096 62.1959 7.98096C63.5839 7.98096 64.5381 8.32804 65.232 9.02207C65.926 9.7161 66.1863 10.6703 66.1863 11.8849V17.9576H62.6296V12.4054C62.6296 11.2776 62.1092 10.7571 61.155 10.7571C60.7212 10.7571 60.2875 10.8438 59.9405 11.1041C59.5935 11.2776 59.2465 11.6247 58.9863 12.0584V17.9576H55.4297V8.32799H55.5164Z" fill="white"/>
<path d="M67.1406 8.32812H70.6972L72.8659 13.9671L75.0346 8.32812H78.5911L74.5141 17.9578H71.131L67.1406 8.32812Z" fill="white"/>
<path d="M80.24 17.0039C79.199 16.1364 78.5918 14.835 78.5918 13.2735C78.5918 11.712 79.1123 10.4108 80.0665 9.45648C81.0207 8.50221 82.4086 8.06836 84.2303 8.06836C85.358 8.06836 86.399 8.32866 87.1797 8.76242C88.0472 9.19618 88.6544 9.80343 89.0881 10.5842C89.5219 11.365 89.6954 12.2325 89.6954 13.1868V14.4881H81.9749C82.1484 15.0086 82.4087 15.4424 83.0159 15.6159C83.5364 15.8761 84.3171 15.9629 85.1845 15.9629C85.7918 15.9629 86.4858 15.8761 87.093 15.7893C87.7869 15.7026 88.3074 15.5291 88.8279 15.3556V17.698C88.3074 17.8715 87.7002 18.0449 87.0062 18.2185C86.2255 18.3052 85.5315 18.3919 84.7508 18.3919C82.8424 18.3052 81.3677 17.8714 80.24 17.0039ZM86.399 12.1458C86.3122 11.6253 86.1388 11.1915 85.7918 10.9312C85.4448 10.671 84.9243 10.4975 84.2303 10.4975C83.6231 10.4975 83.1026 10.671 82.6689 10.9312C82.3219 11.1915 82.0617 11.6253 82.0617 12.1458H86.399Z" fill="white"/>
<path d="M92.9901 18.1311C92.1227 17.9576 91.5154 17.7841 90.995 17.437V14.8345C91.5154 15.1815 92.2094 15.4418 92.9901 15.6153C93.7708 15.7888 94.4648 15.9623 95.072 15.9623C95.5058 15.9623 95.8528 15.9622 96.113 15.8755C96.2865 15.7887 96.46 15.7019 96.46 15.4417C96.46 15.2682 96.3733 15.1814 96.2865 15.0079C96.113 14.9212 95.8528 14.8345 95.5058 14.661C95.1588 14.5742 94.725 14.4007 94.2046 14.314C93.4238 14.0537 92.7299 13.7934 92.2962 13.5332C91.8624 13.2729 91.5154 12.9259 91.2552 12.5789C90.9949 12.2319 90.9082 11.7113 90.9082 11.104C90.9082 10.063 91.3419 9.28227 92.1227 8.76175C92.9901 8.24124 94.1178 7.98096 95.5058 7.98096C96.1997 7.98096 96.9805 8.06775 97.6744 8.24126C98.4552 8.41476 99.0624 8.58823 99.4094 8.84849V11.3643C98.9756 11.1041 98.4552 10.8438 97.8479 10.6703C97.154 10.4968 96.5467 10.4101 96.0263 10.4101C95.5925 10.4101 95.2455 10.4968 94.9853 10.5835C94.7251 10.6703 94.6383 10.8438 94.6383 11.0173C94.6383 11.1908 94.7251 11.3643 94.9853 11.4511C95.2455 11.5378 95.6793 11.7113 96.3732 11.8848C96.807 11.9716 96.9805 12.0584 96.8937 12.0584C97.7612 12.3187 98.4552 12.5788 98.8889 12.8391C99.3226 13.0994 99.6696 13.4465 99.8431 13.7935C100.017 14.1405 100.103 14.661 100.103 15.2682C100.103 16.2225 99.6696 16.9165 98.8889 17.437C98.1082 17.9576 96.8937 18.2178 95.419 18.2178C94.6383 18.3046 93.7708 18.3046 92.9901 18.1311Z" fill="white"/>
<path d="M102.793 17.3502C102.186 16.6561 101.839 15.7886 101.839 14.6608V10.8437H100.451V8.41455H101.839V5.55176H105.396V8.41455H107.651V10.8437H105.396V14.1402C105.396 14.6608 105.482 15.0078 105.656 15.2681C105.829 15.5283 106.176 15.6151 106.697 15.6151C107.131 15.6151 107.564 15.5283 107.998 15.2681V17.8707C107.651 18.0442 107.304 18.131 106.87 18.2177C106.437 18.3045 106.003 18.3044 105.396 18.3044C104.268 18.3044 103.401 18.0442 102.793 17.3502Z" fill="white"/>
</svg>
