<svg width="18" height="21" viewBox="0 0 18 21" fill="none" xmlns="http://www.w3.org/2000/svg">
<path d="M8.99923 7.85123C9.33566 7.85123 9.60002 7.60447 9.60002 7.29043V0.560802C9.60002 0.246761 9.33566 0 8.99923 0C8.66279 0 8.39844 0.246761 8.39844 0.560802V7.29043C8.39844 7.60447 8.66279 7.85123 8.99923 7.85123Z" fill="#137C4B"/>
<path d="M9.00009 20.0357C11.4033 20.0357 13.6622 19.0985 15.3685 17.3922C18.8772 13.8835 18.8772 8.16401 15.3685 4.65539C15.1281 4.415 14.7437 4.415 14.5273 4.65539C14.2869 4.89577 14.2869 5.28017 14.5273 5.49658C17.5793 8.54864 17.5793 13.4991 14.5273 16.5511C13.0613 18.0171 11.0908 18.8341 9 18.8341C6.90929 18.8341 4.96277 18.0171 3.47272 16.5511C0.420661 13.4991 0.420661 8.5486 3.47272 5.49658C3.71311 5.25619 3.71311 4.8718 3.47272 4.65539C3.23234 4.415 2.84794 4.415 2.63153 4.65539C-0.877176 8.16409 -0.877176 13.8835 2.63153 17.3922C4.33803 19.0985 6.59701 20.0357 9.00034 20.0357H9.00009Z" fill="#137C4B"/>
</svg>
