<svg width="15" height="10" viewBox="0 0 15 10" fill="none" xmlns="http://www.w3.org/2000/svg">
<path d="M9.75633 9.49323V7.29729H5.53336C2.6462 7.29729 0.296875 4.94796 0.296875 2.0608V1.04728C0.296875 0.767554 0.523902 0.540527 0.803632 0.540527C1.08336 0.540527 1.31039 0.767554 1.31039 1.04728C1.31039 3.00337 2.9016 4.59458 4.85768 4.59458H9.75633V2.39864C9.75633 1.95472 10.2908 1.72431 10.6131 2.03242L14.3293 5.57972C14.4293 5.67499 14.4861 5.80742 14.4861 5.94593C14.4861 6.08445 14.4293 6.21688 14.3293 6.31215L10.6131 9.85945C10.2908 10.1662 9.75633 9.93783 9.75633 9.49323Z" fill="#C0BE30"/>
</svg>
