<svg width="39" height="39" viewBox="0 0 39 39" fill="none" xmlns="http://www.w3.org/2000/svg">
<g opacity="0.6">
<path fill-rule="evenodd" clip-rule="evenodd" d="M12.4118 5.51755C8.22413 5.51755 5.5185 8.38892 5.5185 12.8187V26.1664C5.5185 27.4095 5.74925 28.5194 6.14413 29.4798C6.16118 29.4594 6.53318 29.0061 7.01843 28.4148C7.96658 27.2593 9.34708 25.577 9.35675 25.5684C10.4813 24.2847 12.5921 22.3704 15.3628 23.529C15.9699 23.7808 16.5096 24.1256 17.0063 24.4431C17.0547 24.474 17.1027 24.5046 17.1503 24.5349C18.0814 25.1573 18.629 25.4498 19.1978 25.401C19.4334 25.3685 19.6544 25.2987 19.864 25.1687C20.6548 24.6812 22.7049 21.7763 23.3188 20.9064C23.4089 20.7788 23.468 20.695 23.4878 20.669C25.259 18.3615 27.989 17.744 30.264 19.109C30.5695 19.291 32.7584 20.8202 33.4831 21.4344V12.8187C33.4831 8.38892 30.7775 5.51755 26.5753 5.51755H12.4118ZM26.5753 3.25067C32.0629 3.25067 35.75 7.08892 35.75 12.8187V26.1664C35.75 26.3105 35.7349 26.4457 35.7197 26.5807C35.7091 26.6756 35.6985 26.7705 35.6931 26.8684C35.6896 26.9276 35.688 26.9868 35.6863 27.046C35.684 27.1249 35.6818 27.2039 35.6753 27.2828C35.672 27.3137 35.6659 27.3433 35.6598 27.373C35.6537 27.4026 35.6476 27.4323 35.6444 27.4632C35.5907 27.9734 35.5079 28.4609 35.3925 28.9338C35.3652 29.052 35.3337 29.166 35.3019 29.281L35.295 29.3059C35.165 29.7642 35.0123 30.2013 34.8286 30.6189C34.7965 30.6891 34.7625 30.7576 34.7286 30.826C34.706 30.8716 34.6833 30.9173 34.6612 30.9634C34.463 31.3615 34.2485 31.7434 33.9999 32.0977C33.9539 32.1632 33.9049 32.2247 33.8559 32.2863C33.8235 32.3269 33.791 32.3677 33.7594 32.4097C33.501 32.7444 33.2312 33.0645 32.9257 33.3554C32.8647 33.4134 32.7988 33.4665 32.7329 33.5196C32.6917 33.5528 32.6505 33.5859 32.6105 33.6203C32.2969 33.89 31.9768 34.1484 31.6241 34.3694C31.5472 34.4178 31.4654 34.4583 31.3839 34.4987C31.3313 34.5249 31.2787 34.551 31.2276 34.579C30.8685 34.7773 30.5061 34.9707 30.1113 35.1202C30.0162 35.1563 29.9151 35.1824 29.8138 35.2085C29.7417 35.2271 29.6696 35.2458 29.5994 35.268C29.5642 35.2789 29.5291 35.2899 29.494 35.3008C29.1413 35.4105 28.7897 35.5199 28.4099 35.5849C28.1898 35.6235 27.9563 35.6383 27.7226 35.6531C27.6215 35.6595 27.5203 35.666 27.4202 35.6743C27.3126 35.6823 27.2071 35.6953 27.1015 35.7083C26.9296 35.7295 26.7574 35.7507 26.5753 35.7507H12.4117C11.8007 35.7507 11.2174 35.6889 10.6535 35.5963C10.6324 35.593 10.6129 35.5898 10.5934 35.5865C8.39475 35.2079 6.56988 34.1468 5.291 32.5462C5.28212 32.5462 5.27863 32.5402 5.27398 32.5322C5.27098 32.527 5.26749 32.521 5.26175 32.5153C3.97638 30.8968 3.25 28.7209 3.25 26.1664V12.8187C3.25 7.08892 6.94037 3.25067 12.4117 3.25067H26.5753ZM17.876 13.8368C17.876 16.0386 16.0337 17.875 13.8213 17.875C11.8767 17.875 10.2186 16.4542 9.84703 14.6147C9.78562 14.3387 9.75097 14.0548 9.75097 13.7616C9.75097 11.5441 11.5523 9.75002 13.7788 9.75002C14.9126 9.75002 15.9392 10.2268 16.6745 10.9874C17.413 11.7213 17.876 12.7328 17.876 13.8368Z" fill="#137C4B"/>
</g>
</svg>
