<svg width="26" height="26" viewBox="0 0 26 26" fill="none" xmlns="http://www.w3.org/2000/svg">
<g opacity="0.6">
<path fill-rule="evenodd" clip-rule="evenodd" d="M8.2719 3.67824C5.48015 3.67824 3.6764 5.59249 3.6764 8.54566V17.4442C3.6764 18.2729 3.83023 19.0128 4.09348 19.6531C4.10485 19.6395 4.35295 19.3372 4.67655 18.9428C5.30864 18.1725 6.22878 17.0512 6.23523 17.0455C6.9849 16.1897 8.39215 14.9135 10.2392 15.6859C10.644 15.8537 11.0038 16.0836 11.335 16.2953C11.3672 16.3159 11.3992 16.3363 11.4309 16.3565C12.0516 16.7714 12.4167 16.9664 12.7959 16.9339C12.953 16.9122 13.1003 16.8657 13.2401 16.779C13.7672 16.454 15.134 14.5174 15.5433 13.9375C15.6033 13.8524 15.6427 13.7966 15.6559 13.7792C16.8367 12.2409 18.6567 11.8292 20.1734 12.7392C20.3771 12.8606 21.8363 13.88 22.3195 14.2895V8.54566C22.3195 5.59249 20.5157 3.67824 17.7142 3.67824H8.2719ZM17.7142 2.16699C21.3726 2.16699 23.8307 4.72583 23.8307 8.54566V17.4442C23.8307 17.5402 23.8206 17.6303 23.8106 17.7204C23.8035 17.7836 23.7964 17.8469 23.7928 17.9122C23.7905 17.9516 23.7894 17.9911 23.7882 18.0306C23.7867 18.0832 23.7852 18.1358 23.7809 18.1884C23.7787 18.209 23.7747 18.2288 23.7706 18.2485C23.7665 18.2683 23.7625 18.2881 23.7603 18.3087C23.7246 18.6488 23.6693 18.9738 23.5924 19.2891C23.5742 19.3679 23.5532 19.4439 23.532 19.5205L23.5274 19.5372C23.4407 19.8427 23.3389 20.1341 23.2165 20.4125C23.195 20.4593 23.1724 20.5049 23.1498 20.5506C23.1347 20.581 23.1196 20.6114 23.1049 20.6422C22.9727 20.9076 22.8297 21.1622 22.664 21.3983C22.6333 21.442 22.6007 21.483 22.568 21.5241C22.5464 21.5512 22.5248 21.5783 22.5036 21.6063C22.3314 21.8295 22.1516 22.0429 21.9479 22.2368C21.9072 22.2755 21.8633 22.3109 21.8193 22.3463C21.7919 22.3684 21.7644 22.3905 21.7377 22.4134C21.5286 22.5932 21.3152 22.7655 21.0801 22.9128C21.0288 22.9451 20.9743 22.9721 20.92 22.999C20.8849 23.0165 20.8499 23.0339 20.8158 23.0526C20.5764 23.1847 20.3348 23.3137 20.0716 23.4133C20.0082 23.4374 19.9408 23.4548 19.8733 23.4722C19.8252 23.4846 19.7771 23.4971 19.7303 23.5119C19.7069 23.5192 19.6835 23.5264 19.6601 23.5337C19.4249 23.6069 19.1905 23.6798 18.9373 23.7232C18.7906 23.7489 18.6349 23.7587 18.4791 23.7686C18.4117 23.7729 18.3443 23.7772 18.2776 23.7827C18.2058 23.7881 18.1355 23.7968 18.065 23.8054C17.9505 23.8195 17.8357 23.8337 17.7142 23.8337H8.2719C7.86456 23.8337 7.47565 23.7925 7.09973 23.7307C7.08565 23.7286 7.07265 23.7264 7.05965 23.7242C5.5939 23.4718 4.37731 22.7644 3.52473 21.6973C3.51881 21.6973 3.51648 21.6933 3.51339 21.688C3.51138 21.6846 3.50906 21.6806 3.50523 21.6767C2.64831 20.5977 2.16406 19.1472 2.16406 17.4442V8.54566C2.16406 4.72583 4.62431 2.16699 8.2719 2.16699H17.7142ZM11.9147 9.22443C11.9147 10.6923 10.6865 11.9166 9.21163 11.9166C7.9152 11.9166 6.80982 10.9693 6.56208 9.74299C6.52114 9.55899 6.49805 9.36975 6.49805 9.17425C6.49805 7.69593 7.69895 6.49989 9.18329 6.49989C9.9391 6.49989 10.6235 6.81772 11.1138 7.32478C11.6061 7.81407 11.9147 8.48841 11.9147 9.22443Z" fill="#666668"/>
</g>
</svg>
