<svg width="81" height="89" viewBox="0 0 81 89" fill="none" xmlns="http://www.w3.org/2000/svg">
<path d="M18.0438 62.7486C23.6273 63.0756 24.0325 54.2317 18.404 54.1424C12.3765 54.0925 11.9101 62.3306 18.0438 62.7486Z" fill="#137C4B"/>
<path d="M27.4979 56.216C26.0794 58.433 27.1666 61.7606 29.6299 62.7085C36.2838 64.8255 38.6594 54.5964 31.5854 53.9221C29.9085 53.782 28.427 54.9173 27.4979 56.216Z" fill="#137C4B"/>
<path d="M44.9912 62.7653C50.8471 62.3151 50.3166 54.1899 44.5716 54.1577C38.8869 54.1541 39.2785 63.0861 44.9912 62.7653Z" fill="#137C4B"/>
<path d="M56.461 82.8221C52.3993 82.095 48.2041 81.6 44.0672 81.408C37.3941 81.1892 30.2174 81.5264 23.5426 81.9137C18.9197 81.8909 12.1371 83.1277 8.00672 81.2243C3.55551 78.4816 2.92799 72.3985 3.51483 67.5953C3.49797 63.907 3.58019 59.8539 3.67267 56.1426C3.68588 55.1842 3.76045 53.2827 3.79661 52.3226C3.80078 52.2369 3.79695 52.1562 3.7893 52.0778C3.86562 50.5749 3.96087 49.091 4.18807 47.6543C4.9138 42.2663 7.31367 37.0899 13.4569 37.0812C20.882 36.1382 28.3712 35.3085 35.8822 35.37C42.2582 35.4385 49.2334 35.573 55.5996 35.7107C58.1735 35.8086 60.7625 35.6554 63.3094 35.8997C64.6804 35.9372 66.7229 37.0716 67.2656 35.1762C68.0247 32.1976 59.7341 32.8596 56.8554 32.7205C57.7881 27.7562 57.893 22.5797 57.0821 17.5514C55.2829 5.82757 47.2717 -1.94428 35.0262 0.425865C26.4162 1.96303 20.1192 8.83584 19.7921 17.6312C19.2943 22.223 20.1757 26.8722 19.7613 31.446C19.118 31.4693 18.4752 31.4969 17.8331 31.5312C14.8655 31.7473 11.8002 31.8095 8.90907 32.5498C0.832837 35.2033 -0.965416 45.143 0.84709 52.4394C0.681432 56.8348 0.420168 63.1012 0.338991 67.4378C-0.554834 73.4982 0.533156 80.8151 6.10713 84.3988C10.7153 86.9841 16.3355 86.2161 21.4221 86.71C33.0321 86.9426 44.7031 86.2193 56.3075 85.7565C57.9945 85.6847 58.1252 83.0759 56.461 82.8221ZM22.8497 19.0901C23.0917 11.2906 27.7552 5.4462 35.6051 4.42356C51.6473 2.50172 53.23 20.5298 53.7263 32.5418C51.3718 32.4384 48.7138 32.3433 46.7233 32.2269C38.8106 31.854 30.7481 31.271 22.7418 31.3751C23.0847 27.2908 22.4779 23.1633 22.8497 19.0901Z" fill="#137C4B"/>
<path d="M70.472 80.3826C64.762 80.4174 64.2674 88.7135 70.2109 88.9997C76.1627 89.0659 76.8011 80.3068 70.472 80.3826Z" fill="#137C4B"/>
<path d="M71.089 46.005C65.1865 45.3923 59.8427 50.3528 59.7879 56.2565C59.6826 58.1229 62.6203 58.2879 62.7159 56.4152C62.7828 55.0903 63.1305 53.8078 63.8237 52.6941C65.95 48.9526 71.7127 48.134 74.4105 51.6567C79.4171 57.1083 72.3341 62.1601 69.223 66.5426C67.8066 68.5656 68.4434 71.4314 69.0585 73.4394C69.4337 74.9627 71.824 74.8163 71.9967 73.2378C72.2987 72.0545 71.9886 69.9382 72.977 69.2034C76.1452 66.3055 79.6706 63.2023 80.6967 58.8393C82.1428 52.9048 76.9175 46.644 71.089 46.005Z" fill="#137C4B"/>
</svg>
