<svg width="24" height="19" viewBox="0 0 24 19" fill="none" xmlns="http://www.w3.org/2000/svg">
<path d="M23.7676 2.36856C22.9123 2.74375 22.0009 2.99244 21.0507 3.11319C22.0282 2.52956 22.7743 1.61244 23.125 0.507C22.2136 1.05037 21.2074 1.43419 20.135 1.64838C19.2696 0.726938 18.0363 0.15625 16.6908 0.15625C14.0803 0.15625 11.9786 2.27513 11.9786 4.87269C11.9786 5.24644 12.0103 5.60581 12.0879 5.94794C8.16783 5.75675 4.69914 3.87794 2.36895 1.01588C1.96214 1.72169 1.72352 2.52956 1.72352 3.39925C1.72352 5.03225 2.56445 6.47981 3.81795 7.31787C3.06039 7.3035 2.3172 7.08356 1.68758 6.73712C1.68758 6.7515 1.68758 6.77019 1.68758 6.78887C1.68758 9.08025 3.32202 10.9835 5.46533 11.4219C5.08152 11.5269 4.6632 11.5772 4.22908 11.5772C3.9272 11.5772 3.62245 11.5599 3.33639 11.4967C3.94733 13.364 5.68095 14.7368 7.74233 14.7814C6.13808 16.0363 4.10114 16.7924 1.89602 16.7924C1.50933 16.7924 1.13845 16.7752 0.767578 16.7277C2.85627 18.0747 5.33164 18.8438 8.00108 18.8438C16.6778 18.8438 21.4216 11.6562 21.4216 5.42613C21.4216 5.21769 21.4144 5.01644 21.4043 4.81663C22.3401 4.1525 23.1265 3.32306 23.7676 2.36856Z" fill="#666668"/>
</svg>
