<svg width="24" height="23" viewBox="0 0 24 23" fill="none" xmlns="http://www.w3.org/2000/svg">
<path d="M16.3457 0H7.7207C3.75177 0 0.533203 3.21856 0.533203 7.1875V15.8125C0.533203 19.7814 3.75177 23 7.7207 23H16.3457C20.3146 23 23.5332 19.7814 23.5332 15.8125V7.1875C23.5332 3.21856 20.3146 0 16.3457 0ZM21.377 15.8125C21.377 18.5869 19.1201 20.8438 16.3457 20.8438H7.7207C4.94633 20.8438 2.68945 18.5869 2.68945 15.8125V7.1875C2.68945 4.41313 4.94633 2.15625 7.7207 2.15625H16.3457C19.1201 2.15625 21.377 4.41313 21.377 7.1875V15.8125Z" fill="#666668"/>
<path d="M12.0332 5.75C8.85777 5.75 6.2832 8.32456 6.2832 11.5C6.2832 14.6754 8.85777 17.25 12.0332 17.25C15.2086 17.25 17.7832 14.6754 17.7832 11.5C17.7832 8.32456 15.2086 5.75 12.0332 5.75ZM12.0332 15.0938C10.0523 15.0938 8.43945 13.4809 8.43945 11.5C8.43945 9.51769 10.0523 7.90625 12.0332 7.90625C14.0141 7.90625 15.627 9.51769 15.627 11.5C15.627 13.4809 14.0141 15.0938 12.0332 15.0938Z" fill="#666668"/>
<path d="M18.2154 6.08486C18.6386 6.08486 18.9816 5.74183 18.9816 5.31867C18.9816 4.89552 18.6386 4.55249 18.2154 4.55249C17.7923 4.55249 17.4492 4.89552 17.4492 5.31867C17.4492 5.74183 17.7923 6.08486 18.2154 6.08486Z" fill="#666668"/>
</svg>
