<svg width="95" height="111" viewBox="0 0 95 111" fill="none" xmlns="http://www.w3.org/2000/svg">
<path fill-rule="evenodd" clip-rule="evenodd" d="M77.3729 38.2091V29.4539C77.3729 13.2724 63.9709 0.083252 47.5844 0.083252H47.4155C31.0289 0.083252 17.6269 13.1671 17.5706 29.4539V38.2096C7.60394 41.6456 0.396484 50.9609 0.396484 61.9829V85.7566C0.396484 99.6107 11.8839 110.916 25.9617 110.916H68.9833C83.1174 110.916 94.6048 99.6107 94.6048 85.7566V61.9829C94.6048 50.9606 87.397 41.6451 77.3737 38.2093C77.3734 38.2092 77.3732 38.2091 77.3729 38.2091ZM68.9263 36.8239V29.4539C68.9263 17.8719 59.3534 8.39571 47.5281 8.39571H47.4718C35.6465 8.39571 26.0736 17.7666 26.0173 29.3431V36.8239H68.9263ZM52.4277 79.9944C52.4277 82.7098 50.2316 84.8711 47.4724 84.8711C44.7694 84.8711 42.5733 82.7098 42.5733 79.9944V67.692C42.5733 65.0375 44.7694 62.8707 47.4724 62.8707C50.2316 62.8707 52.4277 65.0375 52.4277 67.692V79.9944Z" fill="#3A76EC"/>
</svg>
