<svg width="153" height="224" viewBox="0 0 153 224" fill="none" xmlns="http://www.w3.org/2000/svg">
<path fill-rule="evenodd" clip-rule="evenodd" d="M119.607 1.12895C119.26 1.33795 118.817 2.05195 117.977 3.74995C116.519 6.69795 116.436 6.77395 114.551 6.90095C110.118 7.19895 109.333 7.55295 109.333 9.25595C109.333 10.643 109.597 10.909 112.222 12.165C115.342 13.659 115.178 13.429 115.42 16.644C115.641 19.573 115.834 20.137 116.768 20.581C118.426 21.368 119.221 20.792 120.67 17.755C122.084 14.789 121.923 14.901 125.132 14.678C128.131 14.47 128.546 14.3139 129.031 13.2179C129.755 11.5829 129.273 10.9369 126.228 9.46695C123.233 8.01995 123.329 8.15795 123.13 5.03495C122.894 1.31995 121.625 -0.0870487 119.607 1.12895ZM121.396 1.65895C122.065 1.91295 122.221 2.43195 122.434 5.12495C122.705 8.54495 122.641 8.44795 125.613 9.91695C128.702 11.4419 128.937 11.6969 128.416 12.9449C128.099 13.7039 127.86 13.7789 125.083 13.992C121.586 14.261 121.691 14.1929 120.231 17.1559C118.761 20.1349 118.32 20.533 117.099 19.977C116.429 19.671 116.217 18.9429 116.097 16.5359C115.93 13.1679 115.953 13.201 112.722 11.657C110.24 10.471 110 10.2579 110 9.25295C110 8.27295 110.562 7.88795 112.173 7.76695C117.265 7.38295 116.815 7.63195 118.452 4.28495C119.812 1.50295 120.163 1.18995 121.396 1.65895ZM48.9998 6.68195C39.8518 7.85895 31.6408 12.557 26.0198 19.83C25.3608 20.683 24.8488 21.464 24.8828 21.566C25.0348 22.023 25.5388 21.645 26.5218 20.338C39.6998 2.80295 66.9858 2.89895 80.1088 20.526C84.0398 25.806 85.4288 29.3829 87.0898 38.5C87.5158 40.837 88.2698 44.962 88.7658 47.667C89.2628 50.3709 89.8188 53.408 90.0018 54.417C90.1848 55.4249 90.6718 58.074 91.0838 60.304C91.4958 62.533 91.8328 64.5349 91.8328 64.7529C91.8328 66.7829 81.2428 69.0159 79.0888 67.4409C78.8688 67.2809 78.5888 66.0659 77.9098 62.3239C77.4198 59.6249 76.4478 54.304 75.7488 50.5C75.0508 46.6959 74.2158 42.1209 73.8948 40.333C72.9528 35.102 72.3408 33.1199 70.9228 30.6999C64.0878 19.0369 48.2948 16.9649 38.8328 26.4909C33.7268 31.6309 31.9168 38.09 33.3888 45.917C33.9428 48.861 34.9458 54.3079 35.7518 58.75C36.0688 60.492 36.3998 62.292 36.4888 62.75C36.5778 63.208 36.9228 65.0829 37.2558 66.9169C37.5888 68.7499 38.0418 71.2199 38.2628 72.4059C38.7358 74.9469 38.7228 74.9899 37.2228 75.7899C34.8928 77.0319 31.5838 77.7369 28.5518 77.6379C25.4248 77.5359 25.6908 77.8849 24.7678 72.6669C24.6298 71.8879 24.1038 68.9999 23.5998 66.2499C19.3158 42.8939 19.3918 43.396 19.5678 39.467C19.6778 37.018 20.0758 34.391 20.6738 32.176C20.9858 31.022 21.0078 30.774 20.8148 30.652C19.9818 30.127 18.8268 36.2099 18.8408 41.0469C18.8498 44.2119 18.9688 45.0669 20.7408 54.667C22.8428 66.0549 23.3328 68.7859 23.3328 69.1179C23.3328 69.3949 23.0168 69.4909 20.8048 69.8889C16.4968 70.6639 14.6338 72.2119 14.2538 75.3329C14.1328 76.3279 14.1548 76.4859 15.1568 81.9169C15.5288 83.9329 16.1738 87.4579 16.5908 89.7499C17.8008 96.4029 17.8778 96.7379 18.2078 96.8019C18.6648 96.8889 18.6928 97.0949 16.9248 87.5549C16.5998 85.7979 16.3328 84.2779 16.3328 84.1759C16.3328 84.075 16.7128 84.2919 17.1768 84.6589C18.0478 85.3479 19.7688 85.9999 20.7128 85.9999C21.1808 85.9999 25.4618 85.2389 39.0628 82.7379C41.8018 82.2349 47.0888 81.2669 50.8128 80.5869C54.5368 79.9069 59.8328 78.9379 62.5828 78.4329C65.3328 77.9279 69.8708 77.1009 72.6668 76.5949C75.4628 76.089 77.9748 75.631 78.2498 75.5779C78.9648 75.4389 80.5708 75.144 86.3328 74.0939C97.6528 72.032 98.4428 71.8739 99.2478 71.5179C100.229 71.0839 101.565 69.8149 102.012 68.8919C102.492 67.9009 102.169 66.5079 104.74 80.6669C105.064 82.4539 105.442 84.5169 105.579 85.2499C105.84 86.6479 106.683 91.236 107.816 97.417C108.186 99.433 108.748 102.494 109.066 104.218L109.643 107.353L107.145 116.718C105.771 121.869 104.423 126.929 104.15 127.963C103.876 128.997 103.615 129.941 103.569 130.061C103.51 130.215 103.914 130.391 104.951 130.661C106.958 131.185 107.593 132.015 106.25 132.359C105.828 132.467 95.5238 134.379 92.9168 134.833C92.4578 134.913 88.9708 135.549 85.1668 136.248C81.3618 136.946 75.9998 137.929 73.2498 138.431C70.4998 138.934 65.9998 139.76 63.2498 140.267C58.0438 141.227 53.3458 142.085 51.9168 142.338C51.4578 142.419 50.4828 142.596 49.7498 142.733C49.0168 142.869 46.1288 143.394 43.3328 143.901C40.5368 144.407 37.8748 144.898 37.4168 144.991C32.8508 145.925 31.1048 145.696 28.8518 143.867C27.1278 142.468 26.8558 141.756 25.7488 135.75C24.3108 127.953 23.8148 125.251 23.6698 124.417C23.5298 123.621 23.2608 122.146 21.9168 114.833C21.5888 113.046 21.2178 111.021 21.0938 110.333C20.9688 109.646 20.7348 108.352 20.5728 107.458C20.3268 106.099 20.2288 105.833 19.9728 105.833C19.5598 105.833 19.5738 106.077 20.1738 109.333C20.4528 110.846 20.9388 113.508 21.2548 115.25C21.5708 116.992 21.9428 119.017 22.0808 119.75C22.2188 120.483 23.1198 125.396 24.0828 130.667C26.3998 143.346 26.6178 143.881 30.1378 145.545C32.6398 146.728 30.7858 146.955 55.0828 142.493C59.5748 141.669 65.6878 140.549 68.6668 140.004C81.7738 137.61 88.1438 136.444 93.7498 135.412C97.0498 134.805 100.088 134.249 100.5 134.178C100.912 134.107 102.394 133.838 103.793 133.581C106.68 133.051 106.566 133.033 106.287 133.995C105.99 135.021 105.758 135.115 104.394 134.759C102.151 134.174 102.602 133.511 101.039 139.692C100.97 139.968 101.261 140.085 103.448 140.658C104.358 140.896 104.406 141.118 103.929 142.894C103.381 144.938 103.407 144.922 101.52 144.404C100.665 144.17 99.9408 144.004 99.9098 144.034C99.8788 144.065 99.3998 145.776 98.8448 147.837C98.2888 149.897 97.6008 152.446 97.3158 153.5C95.8828 158.794 98.2788 163.049 103.147 163.853C107.578 164.585 110.556 162.021 112.078 156.167C112.423 154.838 113.137 152.137 113.665 150.167C114.192 148.196 114.978 145.233 115.411 143.583C115.844 141.933 116.295 140.246 116.413 139.833C116.731 138.721 117.086 137.401 117.915 134.25C118.326 132.692 118.776 131.004 118.915 130.5C119.055 129.996 119.505 128.308 119.915 126.75C120.326 125.192 120.776 123.504 120.915 123C121.055 122.496 121.507 120.818 121.92 119.272C123.994 111.51 123.963 111.667 123.427 111.667C123.289 111.667 123.038 112.301 122.752 113.375C122.502 114.315 122.191 115.458 122.061 115.917C121.931 116.375 121.377 118.438 120.83 120.5C120.283 122.563 119.273 126.35 118.585 128.917C117.897 131.483 115.827 139.246 113.984 146.167C111.571 155.229 110.491 159.018 110.128 159.706C107.994 163.745 102.343 164.402 99.2438 160.972C97.3428 158.868 97.1298 156.776 98.3618 152.333C98.7808 150.821 99.4098 148.512 99.7588 147.202C100.185 145.605 100.46 144.846 100.594 144.898C102.482 145.622 103.814 145.545 104.143 144.694C105.425 141.368 105.234 140.401 103.185 139.843C102.507 139.659 101.929 139.485 101.901 139.457C101.826 139.382 102.846 135.438 102.977 135.298C103.038 135.233 103.643 135.322 104.322 135.497C105.855 135.892 106.524 135.706 106.804 134.808C107.996 130.991 107.925 130.704 105.625 130.086C105.006 129.92 104.5 129.71 104.5 129.62C104.5 129.438 105.091 127.151 106.338 122.5C106.793 120.804 107.615 117.729 108.163 115.667C108.712 113.604 109.275 111.504 109.415 111C109.555 110.496 110.108 108.433 110.644 106.417C112.412 99.774 113.695 94.9689 114.688 91.2799C115.893 86.8039 115.904 87.1969 114.542 86.2329C103.947 78.7399 102.477 62.174 111.589 52.958C112.637 51.8979 112.885 51.333 112.303 51.333C111.995 51.333 110.139 53.3829 108.981 55C101.993 64.768 104.007 78.9069 113.435 86.2689C114.96 87.4599 115.007 87.5649 114.597 88.8449C114.467 89.2509 114.01 90.9329 113.581 92.5829C113.153 94.2329 112.703 95.9209 112.583 96.3329C112.463 96.7459 112.014 98.4329 111.585 100.083C111.155 101.733 110.705 103.421 110.584 103.833C110.462 104.246 110.315 104.798 110.257 105.061C110.072 105.892 110.339 107.206 107.081 89.4169C106.476 86.1169 105.727 82.0289 105.416 80.3329C105.105 78.6379 104.809 77.0249 104.759 76.7499C104.709 76.4749 104.442 75.0129 104.167 73.4999C103.502 69.8559 103.596 70.3709 102.655 65.1669C101.187 57.0499 99.4728 55.4389 93.5148 56.5749C92.2848 56.8099 91.2598 56.982 91.2348 56.957C91.2108 56.933 90.8078 54.8139 90.3388 52.248C89.8708 49.682 88.9678 44.733 88.3318 41.25C86.8358 33.049 86.7498 32.6519 85.8978 30.0579C80.8178 14.5799 65.0838 4.61095 48.9998 6.68195ZM57.1428 21.57C65.4488 23.3729 71.1938 29.4609 72.7428 38.1019C72.8728 38.8249 73.2428 40.8419 73.5658 42.583C75.3068 51.986 76.6648 59.5569 76.6178 59.6039C76.5518 59.6699 74.5058 60.061 67.9998 61.25C65.2038 61.761 58.6038 62.9689 53.3328 63.9349C48.0628 64.9009 43.4118 65.7499 42.9998 65.8219C42.5868 65.8949 41.3238 66.1219 40.1918 66.327C37.7568 66.769 37.9708 66.9279 37.5068 64.333C37.1288 62.2169 36.6478 59.5919 34.8348 49.75C33.1218 40.457 33.1578 38.0389 35.0798 33.3109C38.5498 24.7689 48.2078 19.6299 57.1428 21.57ZM125.792 45.341C123.393 45.557 120.034 46.3839 119.875 46.7979C119.707 47.2369 120.088 47.3459 120.845 47.0749C129.39 44.0049 139.907 47.319 145.598 54.875C156.571 69.4419 146.335 90.256 128.046 90.5649C126.834 90.5849 125.784 90.66 125.713 90.7309C125.416 91.0279 126.262 91.3329 127.384 91.3329H128.537L128.422 91.9579C128.316 92.5299 127.886 94.158 125.526 102.917C124.715 105.926 124.66 106.392 125.127 106.3C125.298 106.266 125.583 105.485 126.024 103.833C129.689 90.1279 129.336 91.174 130.299 91.169C131.975 91.1609 135.774 90.0329 138.167 88.8319C148.487 83.6509 153.348 71.5159 149.487 60.5709C146.024 50.757 136.152 44.411 125.792 45.341ZM129.956 50.0039C125.08 51.2319 124.193 58.062 128.618 60.3069C132.458 62.2539 136.779 59.545 136.73 55.219C136.691 51.83 133.244 49.1759 129.956 50.0039ZM133.25 51.0599C137.737 53.1589 136.483 59.812 131.54 60.132C126.265 60.474 124.45 53.2929 129.247 51.0599C130.409 50.5179 132.092 50.5179 133.25 51.0599ZM98.2988 57.4779C100.111 58.4129 100.948 59.722 101.404 62.333C101.556 63.2039 101.758 64.3669 101.854 64.9169C102.296 67.4469 101.218 69.702 99.0368 70.8149C98.5078 71.0839 91.8178 72.4199 86.4168 73.3349C85.9578 73.4119 83.7078 73.8229 81.4168 74.2479C79.1248 74.672 75.4498 75.3489 73.2498 75.7509C71.0498 76.1529 66.1368 77.0529 62.3328 77.7499C58.5288 78.4469 52.3788 79.5719 48.6668 80.2499C44.9538 80.9289 39.2168 81.9799 35.9168 82.5859C32.6168 83.1929 29.5418 83.7549 29.0828 83.8349C28.6248 83.9159 26.7868 84.2529 24.9998 84.5849C18.1788 85.8509 16.4598 84.8909 15.3958 79.2199C14.3888 73.8579 15.6628 71.534 20.0358 70.7589C20.7948 70.6249 21.8208 70.436 22.3138 70.341C23.6398 70.0839 23.6238 70.0759 23.7478 71.0419C23.8088 71.5229 23.9208 72.1789 23.9958 72.4999C24.0708 72.8209 24.2978 74.0209 24.4998 75.1669C25.0228 78.1259 25.4348 78.4149 29.0828 78.3869C33.8518 78.3509 39.3328 76.3429 39.3328 74.6339C39.3328 74.4459 39.0608 72.797 38.7278 70.9689C38.3828 69.0729 38.1858 67.5869 38.2698 67.5109C38.3498 67.437 41.6038 66.7979 45.4998 66.0899C52.5888 64.8009 59.9728 63.452 70.9168 61.445C74.1248 60.8569 76.7678 60.3899 76.7898 60.4079C76.8118 60.4259 77.1248 62.0359 77.4858 63.985C77.9308 66.394 78.2338 67.6319 78.4308 67.8489C80.2788 69.8919 91.0708 67.9349 92.4268 65.3119C92.6368 64.9079 92.1958 61.7999 91.4118 58.153C91.3198 57.726 91.3368 57.718 92.9508 57.429C93.8488 57.268 94.6578 57.1069 94.7498 57.0709C95.2798 56.8659 97.6348 57.1359 98.2988 57.4779ZM151.874 74.5439C151.785 74.6569 151.504 75.3879 151.251 76.1669C149.367 81.9629 144.682 87.478 139.375 90.1469C138.398 90.6389 138.107 91.0069 138.504 91.2519C138.598 91.3099 139.248 91.049 139.948 90.671C145.411 87.725 149.942 82.3429 151.906 76.4709C152.449 74.8449 152.433 73.8379 151.874 74.5439ZM133.944 110.778C133.668 111.054 133.822 155.506 134.1 155.613C134.247 155.669 134.433 155.611 134.514 155.483C134.678 155.224 134.728 111.354 134.566 110.93C134.462 110.659 134.141 110.581 133.944 110.778ZM7.17978 133.128C6.86578 133.301 6.46678 133.699 6.29279 134.013C5.95679 134.619 5.95579 134.512 6.34079 138.167C6.58579 140.495 6.61279 140.443 4.31979 142.1C1.39679 144.212 0.944786 145.005 1.83279 146.46C2.47279 147.51 2.95678 147.604 6.01878 147.274C9.24878 146.925 8.99079 146.819 10.6938 149.197C12.6588 151.942 13.1338 152.286 14.4998 151.945C16.0618 151.556 16.2718 150.903 15.9098 147.546C15.5548 144.247 15.4148 144.552 18.1758 142.571C20.7128 140.749 21.1968 139.815 20.3308 138.412C19.6938 137.381 19.2148 137.286 16.3008 137.61C12.9488 137.983 13.1378 138.057 11.4368 135.704C9.32478 132.783 8.59978 132.344 7.17978 133.128ZM8.88579 133.694C9.30979 133.92 9.27378 133.875 10.9558 136.226C12.7268 138.701 12.7498 138.709 16.6668 138.262C19.2628 137.965 19.9998 138.269 19.9998 139.637C19.9998 140.316 19.7008 140.626 17.5038 142.217C14.7098 144.241 14.7658 144.043 15.4408 149.509C15.5708 150.569 14.9568 151.333 13.9718 151.333C13.1618 151.333 12.9208 151.104 11.1088 148.606C9.37978 146.222 9.36678 146.216 6.25978 146.568C3.20778 146.914 3.22179 146.915 2.65378 146.346C1.56479 145.257 1.92879 144.616 4.78579 142.601C7.33979 140.8 7.31078 140.869 6.92778 137.373C6.65078 134.841 6.64878 134.635 6.90878 134.239C7.35278 133.561 8.19879 133.328 8.88579 133.694ZM36.8628 153.537C36.5598 153.84 36.5828 171.89 36.8868 172.142C37.4678 172.624 37.4998 172.141 37.4998 162.82C37.4998 153.416 37.4668 152.933 36.8628 153.537ZM86.9148 156.194C86.6738 156.826 86.9198 182.75 87.1668 182.75C87.5088 182.75 87.5508 156.156 87.2078 156.042C87.0938 156.004 86.9618 156.072 86.9148 156.194ZM18.8738 174.279C18.9108 184.642 18.9468 186.083 19.1668 186.083C19.5838 186.083 19.5408 162.612 19.1238 162.532C18.8468 162.478 18.8328 163.097 18.8738 174.279ZM19.1668 222.667C19.1668 223.158 135.207 223.116 135.302 222.625C135.355 222.348 132.502 222.333 77.2618 222.333C19.2638 222.333 19.1668 222.334 19.1668 222.667Z" fill="#137C4B" stroke="#137C4B"/>
</svg>
