<svg width="124" height="124" viewBox="0 0 124 124" fill="none" xmlns="http://www.w3.org/2000/svg">
<g clip-path="url(#clip0_5706_1542)">
<path d="M76.6097 48.5828C76.9471 48.7534 77.327 48.8216 77.7027 48.779C78.0783 48.7363 78.4333 48.5847 78.7238 48.3428L121.365 12.8464C121.649 12.6096 121.86 12.2963 121.972 11.9435C122.084 11.5908 122.092 11.2133 121.997 10.8559C121.901 10.4984 121.705 10.1758 121.431 9.92633C121.158 9.67683 120.819 9.51084 120.454 9.44799L65.7784 0.028107C65.4058 -0.0361262 65.0226 0.0100519 64.6759 0.16095C64.3293 0.311849 64.0343 0.560874 63.8275 0.877336C63.6206 1.1938 63.5108 1.56387 63.5117 1.94195C63.5126 2.32002 63.6241 2.68958 63.8324 3.00508L76.9803 22.918L75.5514 46.7371C75.5285 47.1145 75.6165 47.4903 75.8045 47.8182C75.9926 48.1462 76.2725 48.412 76.6097 48.5828ZM69.5335 4.60715L115.659 12.554L79.6867 42.4988L80.803 23.8988L98.1678 19.2459C98.4144 19.1808 98.6457 19.0677 98.8484 18.913C99.0512 18.7583 99.2214 18.5651 99.3494 18.3445C99.4773 18.1239 99.5604 17.8802 99.5939 17.6274C99.6275 17.3746 99.6108 17.1176 99.5448 16.8713C99.4788 16.6249 99.3648 16.394 99.2094 16.1918C99.054 15.9896 98.8602 15.8201 98.6391 15.693C98.418 15.5659 98.174 15.4836 97.9211 15.451C97.6681 15.4184 97.4112 15.436 97.1651 15.5029L79.801 20.1563L69.5335 4.60715Z" fill="#137C4B"/>
<path d="M36.8125 79.4375V114.312C36.8154 116.881 37.837 119.343 39.6531 121.159C41.4692 122.976 43.9316 123.997 46.5 124H96.875C99.4434 123.997 101.906 122.976 103.722 121.159C105.538 119.343 106.56 116.881 106.562 114.312V79.4375C106.56 76.8691 105.538 74.4067 103.722 72.5906C101.906 70.7745 99.4434 69.7529 96.875 69.75H46.5C43.9316 69.7529 41.4692 70.7745 39.6531 72.5906C37.837 74.4067 36.8154 76.8691 36.8125 79.4375ZM96.875 120.125H46.5C44.959 120.123 43.4816 119.51 42.3919 118.421C41.3023 117.331 40.6893 115.854 40.6875 114.312V82.9991L66.4248 99.6526C67.9932 100.665 69.8206 101.204 71.6875 101.204C73.5544 101.204 75.3818 100.665 76.9502 99.6526L102.688 82.9991V114.312C102.686 115.854 102.073 117.331 100.983 118.421C99.8934 119.51 98.416 120.123 96.875 120.125ZM102.6 78.4399L74.8454 96.3991C73.9043 97.0067 72.8078 97.3299 71.6876 97.3299C70.5674 97.3299 69.471 97.0067 68.5299 96.3991L40.7752 78.4399C41.0116 77.0926 41.7149 75.8716 42.7618 74.9911C43.8086 74.1107 45.1321 73.627 46.5 73.625H96.875C98.2429 73.6269 99.5665 74.1105 100.613 74.991C101.66 75.8715 102.364 77.0926 102.6 78.4399Z" fill="#137C4B"/>
<path d="M50.7905 33.0533C51.0213 33.0535 51.2502 33.0124 51.4665 32.9322C53.1722 32.2969 54.9244 31.6728 56.6735 31.0799C56.9157 30.9992 57.1396 30.8714 57.3323 30.7039C57.525 30.5364 57.6827 30.3325 57.7963 30.1038C57.9099 29.8752 57.9772 29.6263 57.9943 29.3716C58.0114 29.1168 57.978 28.8612 57.896 28.6194C57.814 28.3776 57.685 28.1544 57.5165 27.9626C57.3479 27.7708 57.1431 27.6143 56.9138 27.5019C56.6846 27.3895 56.4354 27.3236 56.1805 27.3079C55.9257 27.2922 55.6703 27.327 55.4289 27.4103C53.6428 28.0157 51.8542 28.6522 50.1129 29.3008C49.6866 29.459 49.3296 29.7621 49.1043 30.157C48.879 30.5519 48.7997 31.0135 48.8803 31.4609C48.961 31.9084 49.1964 32.3132 49.5455 32.6046C49.8945 32.8959 50.3349 33.0553 50.7896 33.0547L50.7905 33.0533Z" fill="#137C4B"/>
<path d="M10.4809 90.7387C10.3074 90.9249 10.1723 91.1434 10.0833 91.3818C9.99433 91.6201 9.95315 91.8737 9.96215 92.128C9.97114 92.3823 10.0301 92.6323 10.1358 92.8638C10.2414 93.0953 10.3916 93.3037 10.5778 93.4771C12.0422 94.8407 13.6523 96.039 15.3789 97.0504C15.8224 97.31 16.3508 97.3828 16.848 97.2527C17.3451 97.1227 17.7703 96.8005 18.0299 96.357C18.2895 95.9135 18.3623 95.385 18.2322 94.8879C18.1022 94.3907 17.78 93.9656 17.3365 93.706C15.8558 92.8387 14.4751 91.8111 13.2193 90.6416C13.0331 90.4682 12.8146 90.3331 12.5762 90.2441C12.3378 90.1551 12.0843 90.114 11.83 90.123C11.5757 90.132 11.3257 90.191 11.0942 90.2967C10.8627 90.4023 10.6543 90.5525 10.4809 90.7387Z" fill="#137C4B"/>
<path d="M61.6062 27.4427C61.6779 27.687 61.797 27.9146 61.9567 28.1128C62.1164 28.3109 62.3136 28.4756 62.5371 28.5974C62.7605 28.7193 63.0058 28.7958 63.2588 28.8228C63.5119 28.8497 63.7678 28.8265 64.0119 28.7544C66.4079 28.0489 68.232 27.5658 69.34 27.2846C69.5888 27.2241 69.8232 27.1149 70.0296 26.9633C70.2359 26.8117 70.4102 26.6207 70.5423 26.4013C70.6744 26.1819 70.7616 25.9386 70.7991 25.6853C70.8365 25.4319 70.8234 25.1737 70.7604 24.9255C70.6975 24.6773 70.5859 24.444 70.4323 24.2392C70.2786 24.0344 70.0859 23.862 69.8652 23.7322C69.6445 23.6023 69.4003 23.5174 69.1466 23.4825C68.8929 23.4476 68.6348 23.4633 68.3873 23.5288C67.2466 23.8194 65.3718 24.3147 62.9177 25.0369C62.6736 25.1087 62.4461 25.2279 62.248 25.3877C62.05 25.5475 61.8854 25.7448 61.7637 25.9682C61.6419 26.1916 61.5653 26.4368 61.5383 26.6898C61.5113 26.9428 61.5344 27.1987 61.6062 27.4427Z" fill="#137C4B"/>
<path d="M2.70792 67.2966C2.23052 69.2343 1.97346 71.2197 1.94164 73.215C1.93374 73.7288 2.13027 74.2247 2.48799 74.5936C2.8457 74.9624 3.33531 75.1741 3.8491 75.182H3.87962C4.38836 75.1821 4.87671 74.9821 5.23921 74.6251C5.60172 74.2682 5.8093 73.783 5.81712 73.2743C5.84422 71.5711 6.06358 69.8765 6.47103 68.2225C6.59028 67.7248 6.50777 67.2002 6.24151 66.7631C5.97526 66.326 5.54689 66.012 5.04993 65.8897C4.55297 65.7674 4.02781 65.8467 3.5891 66.1102C3.15039 66.3738 2.83378 66.8002 2.7084 67.2964L2.70792 67.2966Z" fill="#137C4B"/>
<path d="M42.8171 32.2025C41.0556 32.9508 39.3184 33.7261 37.6539 34.5066C37.4235 34.6147 37.2167 34.767 37.0452 34.955C36.8737 35.143 36.7409 35.3629 36.6544 35.6022C36.568 35.8414 36.5294 36.0954 36.5411 36.3496C36.5528 36.6037 36.6144 36.8531 36.7224 37.0835C36.9406 37.5487 37.3347 37.9082 37.8179 38.0829C38.0572 38.1694 38.3112 38.2079 38.5654 38.1963C38.8195 38.1846 39.0689 38.123 39.2993 38.0149C40.9207 37.2542 42.6141 36.4986 44.3319 35.7689C44.5683 35.6709 44.783 35.5271 44.9635 35.3458C45.144 35.1644 45.2868 34.9491 45.3836 34.7123C45.4804 34.4754 45.5294 34.2218 45.5277 33.9659C45.5259 33.71 45.4736 33.457 45.3735 33.2215C45.2735 32.986 45.1278 32.7727 44.9449 32.5938C44.7619 32.4149 44.5453 32.274 44.3077 32.1792C44.07 32.0845 43.8159 32.0378 43.56 32.0417C43.3042 32.0457 43.0517 32.1003 42.8171 32.2025Z" fill="#137C4B"/>
<path d="M26.7219 44.4942C27.0802 44.4943 27.4314 44.3945 27.7361 44.206C29.2377 43.2816 30.832 42.3581 32.4765 41.4615C32.9276 41.2156 33.2626 40.8004 33.4077 40.3075C33.5528 39.8145 33.4961 39.2841 33.2501 38.8329C33.0042 38.3818 32.589 38.0468 32.0961 37.9017C31.6031 37.7566 31.0727 37.8133 30.6216 38.0593C28.9175 38.9886 27.2629 39.9464 25.7052 40.9067C25.3458 41.1279 25.0684 41.4603 24.9153 41.8535C24.7622 42.2468 24.7416 42.6792 24.8567 43.0852C24.9718 43.4912 25.2163 43.8485 25.553 44.1028C25.8898 44.3571 26.3004 44.4946 26.7223 44.4942H26.7219Z" fill="#137C4B"/>
<path d="M21.6483 97.7818C21.5928 98.0301 21.5866 98.2869 21.6303 98.5375C21.674 98.7882 21.7666 99.0278 21.9029 99.2427C22.0392 99.4575 22.2165 99.6434 22.4246 99.7898C22.6328 99.9362 22.8677 100.04 23.116 100.096C25.0682 100.531 27.0624 100.751 29.0627 100.75C29.5765 100.75 30.0693 100.546 30.4327 100.183C30.796 99.8192 31.0002 99.3264 31.0002 98.8125C31.0002 98.2987 30.796 97.8059 30.4327 97.4425C30.0693 97.0792 29.5765 96.875 29.0627 96.875C27.3471 96.8757 25.6366 96.6877 23.9622 96.3144C23.4608 96.2021 22.9353 96.2937 22.5014 96.5689C22.0674 96.8441 21.7606 97.2804 21.6483 97.7818Z" fill="#137C4B"/>
<path d="M19.138 45.3644C17.5565 46.5545 16.0622 47.7795 14.6975 49.0054C14.3265 49.3517 14.1062 49.8297 14.0839 50.3367C14.0616 50.8436 14.2391 51.3391 14.5783 51.7167C14.9174 52.0942 15.3911 52.3235 15.8976 52.3555C16.4041 52.3874 16.9029 52.2194 17.2867 51.8874C18.5689 50.7358 19.975 49.5825 21.4679 48.4598C21.8785 48.1508 22.1495 47.6914 22.2214 47.1826C22.2933 46.6738 22.1601 46.1573 21.8511 45.7466C21.5422 45.336 21.0828 45.065 20.574 44.9931C20.0651 44.9212 19.5486 45.0544 19.138 45.3634V45.3644Z" fill="#137C4B"/>
<path d="M11.8557 54.5341C11.4553 54.2121 10.9433 54.0624 10.4325 54.1178C9.92171 54.1733 9.45384 54.4294 9.13182 54.8298C7.90123 56.3512 6.79131 57.9665 5.81216 59.6607C5.68112 59.8816 5.59531 60.1263 5.55971 60.3807C5.52412 60.6351 5.53945 60.8939 5.60481 61.1423C5.67018 61.3907 5.78428 61.6236 5.94047 61.8275C6.09666 62.0314 6.29183 62.2022 6.51463 62.3299C6.73742 62.4577 6.9834 62.5399 7.23825 62.5718C7.49311 62.6036 7.75175 62.5845 7.99914 62.5155C8.24653 62.4465 8.47773 62.3289 8.67929 62.1698C8.88085 62.0106 9.04876 61.8129 9.17324 61.5883C10.0522 60.0696 11.0482 58.6217 12.1521 57.2577C12.474 56.8572 12.6235 56.3453 12.5679 55.8345C12.5123 55.3237 12.2561 54.856 11.8557 54.5341Z" fill="#137C4B"/>
<path d="M6.79279 80.3302C6.72088 80.085 6.60116 79.8564 6.44054 79.6576C6.27992 79.4589 6.08157 79.2939 5.8569 79.1721C5.63224 79.0503 5.38571 78.9742 5.1315 78.9481C4.87729 78.922 4.62043 78.9464 4.3757 79.02C4.13098 79.0936 3.90323 79.2148 3.70557 79.3768C3.50791 79.5388 3.34424 79.7382 3.224 79.9637C3.10375 80.1892 3.0293 80.4363 3.00492 80.6907C2.98055 80.945 3.00675 81.2017 3.08199 81.4459C3.65862 83.363 4.44653 85.21 5.43121 86.953C5.55641 87.1745 5.72401 87.3692 5.92445 87.5259C6.12488 87.6827 6.35422 87.7984 6.59938 87.8665C6.84453 87.9346 7.1007 87.9537 7.35325 87.9228C7.6058 87.8919 7.8498 87.8116 8.0713 87.6864C8.2928 87.5612 8.48747 87.3936 8.64421 87.1932C8.80094 86.9927 8.91665 86.7634 8.98475 86.5182C9.05285 86.2731 9.07199 86.0169 9.04109 85.7643C9.01019 85.5118 8.92984 85.2678 8.80464 85.0463C7.96131 83.5537 7.28655 81.9719 6.79279 80.3302Z" fill="#137C4B"/>
</g>
<defs>
<clipPath id="clip0_5706_1542">
<rect width="124" height="124" fill="white"/>
</clipPath>
</defs>
</svg>
